<?xml version="1.0" encoding="UTF-8" standalone="no"?>
<!-- Created with Inkscape (http://www.inkscape.org/) -->

<svg
   xmlns:dc="http://purl.org/dc/elements/1.1/"
   xmlns:cc="http://creativecommons.org/ns#"
   xmlns:rdf="http://www.w3.org/1999/02/22-rdf-syntax-ns#"
   xmlns:svg="http://www.w3.org/2000/svg"
   xmlns="http://www.w3.org/2000/svg"
   xmlns:sodipodi="http://sodipodi.sourceforge.net/DTD/sodipodi-0.dtd"
   xmlns:inkscape="http://www.inkscape.org/namespaces/inkscape"
   width="1000"
   height="400"
   viewBox="0 0 1000 400"
   id="svg2"
   version="1.1"
   inkscape:version="0.91 r13725"
   sodipodi:docname="interference_1d.svg"
   inkscape:export-filename="/home/pospelov/development/git/gisas/artwork/website/tutorials/interference/interference_1d_C.png"
   inkscape:export-xdpi="90"
   inkscape:export-ydpi="90">
  <defs
     id="defs4">
    <marker
       inkscape:stockid="Arrow2Mend"
       orient="auto"
       refY="0"
       refX="0"
       id="Arrow2Mend"
       style="overflow:visible"
       inkscape:isstock="true">
      <path
         id="path4610"
         style="fill-rule:evenodd;stroke-width:0.625;stroke-linejoin:round"
         d="M 8.7185878,4.0337352 -2.2072895,0.01601326 8.7185884,-4.0017078 c -1.7454984,2.3720609 -1.7354408,5.6174519 -6e-7,8.035443 z"
         transform="scale(-0.6,-0.6)"
         inkscape:connector-curvature="0" />
    </marker>
    <marker
       inkscape:isstock="true"
       style="overflow:visible"
       id="marker5444"
       refX="0"
       refY="0"
       orient="auto"
       inkscape:stockid="Arrow2Mend">
      <path
         transform="scale(-0.6,-0.6)"
         d="M 8.7185878,4.0337352 -2.2072895,0.01601326 8.7185884,-4.0017078 c -1.7454984,2.3720609 -1.7354408,5.6174519 -6e-7,8.035443 z"
         style="fill:#000000;fill-opacity:1;fill-rule:evenodd;stroke:#000000;stroke-width:0.625;stroke-linejoin:round;stroke-opacity:1"
         id="path5446"
         inkscape:connector-curvature="0" />
    </marker>
    <marker
       inkscape:isstock="true"
       style="overflow:visible"
       id="marker5166"
       refX="0"
       refY="0"
       orient="auto"
       inkscape:stockid="Arrow1Lend">
      <path
         transform="matrix(-0.8,0,0,-0.8,-10,0)"
         style="fill:#0000d6;fill-opacity:1;fill-rule:evenodd;stroke:#0000d6;stroke-width:1pt;stroke-opacity:1"
         d="M 0,0 5,-5 -12.5,0 5,5 0,0 Z"
         id="path5168"
         inkscape:connector-curvature="0" />
    </marker>
    <marker
       inkscape:stockid="Arrow1Mend"
       orient="auto"
       refY="0"
       refX="0"
       id="Arrow1Mend"
       style="overflow:visible"
       inkscape:isstock="true">
      <path
         id="path4258"
         d="M 0,0 5,-5 -12.5,0 5,5 0,0 Z"
         style="fill:#000000;fill-opacity:1;fill-rule:evenodd;stroke:#000000;stroke-width:1pt;stroke-opacity:1"
         transform="matrix(-0.4,0,0,-0.4,-4,0)"
         inkscape:connector-curvature="0" />
    </marker>
    <marker
       inkscape:stockid="Arrow2Mend"
       orient="auto"
       refY="0"
       refX="0"
       id="marker6350"
       style="overflow:visible"
       inkscape:isstock="true">
      <path
         id="path6352"
         style="fill:#000000;fill-opacity:1;fill-rule:evenodd;stroke:#000000;stroke-width:0.625;stroke-linejoin:round;stroke-opacity:1"
         d="M 8.7185878,4.0337352 -2.2072895,0.01601326 8.7185884,-4.0017078 c -1.7454984,2.3720609 -1.7354408,5.6174519 -6e-7,8.035443 z"
         transform="scale(-0.6,-0.6)"
         inkscape:connector-curvature="0" />
    </marker>
    <marker
       inkscape:stockid="Arrow2Lend"
       orient="auto"
       refY="0"
       refX="0"
       id="marker6304"
       style="overflow:visible"
       inkscape:isstock="true">
      <path
         id="path6306"
         style="fill:#000000;fill-opacity:1;fill-rule:evenodd;stroke:#000000;stroke-width:0.625;stroke-linejoin:round;stroke-opacity:1"
         d="M 8.7185878,4.0337352 -2.2072895,0.01601326 8.7185884,-4.0017078 c -1.7454984,2.3720609 -1.7354408,5.6174519 -6e-7,8.035443 z"
         transform="matrix(-1.1,0,0,-1.1,-1.1,0)"
         inkscape:connector-curvature="0" />
    </marker>
    <marker
       inkscape:isstock="true"
       style="overflow:visible"
       id="marker5734"
       refX="0"
       refY="0"
       orient="auto"
       inkscape:stockid="Arrow2Mend">
      <path
         transform="scale(-0.6,-0.6)"
         d="M 8.7185878,4.0337352 -2.2072895,0.01601326 8.7185884,-4.0017078 c -1.7454984,2.3720609 -1.7354408,5.6174519 -6e-7,8.035443 z"
         style="fill:#000000;fill-opacity:1;fill-rule:evenodd;stroke:#000000;stroke-width:0.625;stroke-linejoin:round;stroke-opacity:1"
         id="path5736"
         inkscape:connector-curvature="0" />
    </marker>
    <marker
       inkscape:stockid="Arrow2Lend"
       orient="auto"
       refY="0"
       refX="0"
       id="Arrow2Lend"
       style="overflow:visible"
       inkscape:isstock="true">
      <path
         id="path4207"
         style="fill:#000000;fill-opacity:1;fill-rule:evenodd;stroke:#000000;stroke-width:0.625;stroke-linejoin:round;stroke-opacity:1"
         d="M 8.7185878,4.0337352 -2.2072895,0.01601326 8.7185884,-4.0017078 c -1.7454984,2.3720609 -1.7354408,5.6174519 -6e-7,8.035443 z"
         transform="matrix(-1.1,0,0,-1.1,-1.1,0)"
         inkscape:connector-curvature="0" />
    </marker>
    <marker
       inkscape:stockid="Arrow1Lend"
       orient="auto"
       refY="0"
       refX="0"
       id="Arrow1Lend"
       style="overflow:visible"
       inkscape:isstock="true"
       inkscape:collect="always">
      <path
         id="path4189"
         d="M 0,0 5,-5 -12.5,0 5,5 0,0 Z"
         style="fill:#0000de;fill-opacity:1;fill-rule:evenodd;stroke:#0000de;stroke-width:1pt;stroke-opacity:1"
         transform="matrix(-0.8,0,0,-0.8,-10,0)"
         inkscape:connector-curvature="0" />
    </marker>
    <marker
       inkscape:isstock="true"
       style="overflow:visible"
       id="marker13261"
       refX="0"
       refY="0"
       orient="auto"
       inkscape:stockid="Arrow1Mstart">
      <path
         transform="matrix(0.4,0,0,0.4,4,0)"
         style="fill:#000000;fill-opacity:1;fill-rule:evenodd;stroke:#000000;stroke-width:1pt;stroke-opacity:1"
         d="M 0,0 5,-5 -12.5,0 5,5 0,0 Z"
         id="path13263"
         inkscape:connector-curvature="0" />
    </marker>
  </defs>
  <sodipodi:namedview
     id="base"
     pagecolor="#ffffff"
     bordercolor="#666666"
     borderopacity="1.0"
     inkscape:pageopacity="1"
     inkscape:pageshadow="2"
     inkscape:zoom="1.4142136"
     inkscape:cx="334.61548"
     inkscape:cy="259.16778"
     inkscape:document-units="px"
     inkscape:current-layer="layer1"
     showgrid="true"
     inkscape:window-width="2466"
     inkscape:window-height="1365"
     inkscape:window-x="0"
     inkscape:window-y="0"
     inkscape:window-maximized="1"
     inkscape:snap-bbox="true"
     inkscape:snap-global="false"
     objecttolerance="20"
     guidetolerance="10000"
     showguides="true"
     units="px"
     inkscape:snap-bbox-midpoints="true"
     inkscape:bbox-nodes="true"
     inkscape:object-paths="true">
    <inkscape:grid
       type="xygrid"
       id="grid4174"
       units="px"
       spacingx="20"
       spacingy="20" />
  </sodipodi:namedview>
  <metadata
     id="metadata7">
    <rdf:RDF>
      <cc:Work
         rdf:about="">
        <dc:format>image/svg+xml</dc:format>
        <dc:type
           rdf:resource="http://purl.org/dc/dcmitype/StillImage" />
        <dc:title />
      </cc:Work>
    </rdf:RDF>
  </metadata>
  <g
     inkscape:label="Layer 1"
     inkscape:groupmode="layer"
     id="layer1"
     transform="translate(0,-652.36219)">
    <path
       style="fill:none;fill-rule:evenodd;stroke:#000000;stroke-width:1;stroke-linecap:butt;stroke-linejoin:miter;stroke-miterlimit:4;stroke-dasharray:1.99999999, 1.99999999;stroke-dashoffset:0;stroke-opacity:1"
       d="m 78.470997,853.07111 844.156403,0"
       id="path4241"
       inkscape:connector-curvature="0" />
    <circle
       style="fill:#6e6e6e;fill-opacity:1;stroke:#646464;stroke-width:2;stroke-miterlimit:4;stroke-dasharray:none;stroke-opacity:1"
       id="path4176"
       cx="241.97057"
       cy="851.30328"
       r="14" />
    <circle
       r="14"
       cy="851.30328"
       cx="441.97055"
       id="circle4136"
       style="fill:#6e6e6e;fill-opacity:1;stroke:#646464;stroke-width:2;stroke-miterlimit:4;stroke-dasharray:none;stroke-opacity:1" />
    <circle
       style="fill:#6e6e6e;fill-opacity:1;stroke:#646464;stroke-width:2;stroke-miterlimit:4;stroke-dasharray:none;stroke-opacity:1"
       id="circle4138"
       cx="641.97058"
       cy="851.30328"
       r="14" />
    <circle
       r="14"
       cy="851.30328"
       cx="841.97058"
       id="circle4140"
       style="fill:#6e6e6e;fill-opacity:1;stroke:#646464;stroke-width:2;stroke-miterlimit:4;stroke-dasharray:none;stroke-opacity:1" />
    <text
       xml:space="preserve"
       style="font-style:normal;font-weight:normal;font-size:40px;line-height:125%;font-family:sans-serif;letter-spacing:0px;word-spacing:0px;fill:#000000;fill-opacity:1;stroke:none;stroke-width:1px;stroke-linecap:butt;stroke-linejoin:miter;stroke-opacity:1"
       x="324.04529"
       y="835.3772"
       id="text6450"
       sodipodi:linespacing="125%"><tspan
         sodipodi:role="line"
         id="tspan6452"
         x="324.04529"
         y="835.3772">a</tspan></text>
    <path
       style="fill:none;fill-rule:evenodd;stroke:#0000de;stroke-width:1;stroke-linecap:butt;stroke-linejoin:miter;stroke-miterlimit:4;stroke-dasharray:3, 3;stroke-dashoffset:0;stroke-opacity:1;marker-end:url(#Arrow1Lend)"
       d="M 57.118284,742.5056 425.5087,959.60773"
       id="path5058"
       inkscape:connector-curvature="0" />
    <path
       style="fill:none;fill-rule:evenodd;stroke:#0000d6;stroke-width:1;stroke-linecap:butt;stroke-linejoin:miter;stroke-miterlimit:4;stroke-dasharray:4, 2;stroke-dashoffset:0;stroke-opacity:1;marker-end:url(#marker5166)"
       d="M 194.6505,940.13923 308.49103,739.31421"
       id="path5152"
       inkscape:connector-curvature="0" />
    <text
       xml:space="preserve"
       style="font-style:normal;font-weight:normal;font-size:40px;line-height:125%;font-family:sans-serif;letter-spacing:0px;word-spacing:0px;fill:#000000;fill-opacity:1;stroke:none;stroke-width:1px;stroke-linecap:butt;stroke-linejoin:miter;stroke-opacity:1"
       x="394.65005"
       y="973.72968"
       id="text5414"
       sodipodi:linespacing="125%"><tspan
         sodipodi:role="line"
         id="tspan5416"
         x="394.65005"
         y="973.72968"
         style="font-style:normal;font-variant:normal;font-weight:normal;font-stretch:normal;font-size:22.5px;font-family:'Adobe Courier';-inkscape-font-specification:'Adobe Courier';stroke:#0000d8;stroke-opacity:1">x</tspan></text>
    <text
       xml:space="preserve"
       style="font-style:normal;font-weight:normal;font-size:40px;line-height:125%;font-family:sans-serif;letter-spacing:0px;word-spacing:0px;fill:#000000;fill-opacity:1;stroke:none;stroke-width:1px;stroke-linecap:butt;stroke-linejoin:miter;stroke-opacity:1"
       x="261.75571"
       y="741.86969"
       id="text5414-9"
       sodipodi:linespacing="125%"><tspan
         sodipodi:role="line"
         id="tspan5416-1"
         x="261.75571"
         y="741.86969"
         style="font-style:normal;font-variant:normal;font-weight:normal;font-stretch:normal;font-size:20px;font-family:'Adobe Courier';-inkscape-font-specification:'Adobe Courier';stroke:#0000d8;stroke-opacity:1">y</tspan></text>
    <path
       inkscape:connector-curvature="0"
       id="path5442"
       d="m 258.2608,853.23471 167.72838,0"
       style="fill:none;fill-rule:evenodd;stroke:#000000;stroke-width:2;stroke-linecap:butt;stroke-linejoin:miter;stroke-miterlimit:4;stroke-dasharray:none;stroke-opacity:1;marker-end:url(#marker5444)" />
    <path
       style="color:#000000;font-style:normal;font-variant:normal;font-weight:normal;font-stretch:normal;font-size:medium;line-height:normal;font-family:sans-serif;text-indent:0;text-align:start;text-decoration:none;text-decoration-line:none;text-decoration-style:solid;text-decoration-color:#000000;letter-spacing:normal;word-spacing:normal;text-transform:none;direction:ltr;block-progression:tb;writing-mode:lr-tb;baseline-shift:baseline;text-anchor:start;white-space:normal;clip-rule:nonzero;display:inline;overflow:visible;visibility:visible;opacity:1;isolation:auto;mix-blend-mode:normal;color-interpolation:sRGB;color-interpolation-filters:linearRGB;solid-color:#000000;solid-opacity:1;fill:#0000d8;fill-opacity:1;fill-rule:nonzero;stroke:none;stroke-width:0.99999994;stroke-linecap:butt;stroke-linejoin:miter;stroke-miterlimit:4;stroke-dasharray:none;stroke-dashoffset:0;stroke-opacity:1;color-rendering:auto;image-rendering:auto;shape-rendering:auto;text-rendering:auto;enable-background:accumulate"
       d="m 282.02796,853.15479 c -0.12043,6.71047 -1.93655,13.00402 -5.0332,18.47656 l 0.85937,0.50195 c 3.18518,-5.62109 5.05306,-12.08681 5.17383,-18.97851 l -1,0 z"
       id="path6024"
       inkscape:connector-curvature="0" />
    <text
       xml:space="preserve"
       style="font-style:normal;font-weight:normal;font-size:40px;line-height:125%;font-family:sans-serif;letter-spacing:0px;word-spacing:0px;fill:#000000;fill-opacity:1;stroke:none;stroke-width:1px;stroke-linecap:butt;stroke-linejoin:miter;stroke-opacity:1"
       x="327.22699"
       y="888.88684"
       id="text6045"
       sodipodi:linespacing="125%"><tspan
         sodipodi:role="line"
         id="tspan6047"
         x="327.22699"
         y="888.88684">𝜉</tspan></text>
    <path
       inkscape:connector-curvature="0"
       style="fill:none;fill-opacity:1;stroke:#0000d8;stroke-width:1;stroke-miterlimit:4;stroke-dasharray:none;stroke-dashoffset:0;stroke-opacity:1"
       d="m 572.38206,852.483 c 0.15376,-0.003 0.30753,-0.006 0.46129,-0.01 0.15377,-0.003 0.30753,-0.007 0.4613,-0.0107 0.15376,-0.004 0.30753,-0.008 0.46129,-0.0117 0.15377,-0.004 0.30754,-0.008 0.4613,-0.0128 0.15377,-0.004 0.30753,-0.009 0.4613,-0.0139 0.15376,-0.005 0.30753,-0.01 0.46129,-0.0152 0.15377,-0.005 0.30753,-0.0108 0.4613,-0.0165 0.15376,-0.006 0.30753,-0.0117 0.4613,-0.0179 0.15376,-0.006 0.30753,-0.0127 0.46129,-0.0195 0.15377,-0.007 0.30753,-0.0138 0.4613,-0.0211 0.15376,-0.007 0.30753,-0.015 0.46129,-0.0229 0.15377,-0.008 0.30753,-0.0163 0.4613,-0.0249 0.15377,-0.009 0.30753,-0.0176 0.4613,-0.0269 0.15376,-0.009 0.30753,-0.0191 0.46129,-0.0292 0.15377,-0.0101 0.30753,-0.0206 0.4613,-0.0316 0.15376,-0.0109 0.30753,-0.0223 0.46129,-0.0341 0.15377,-0.0118 0.30754,-0.0241 0.4613,-0.0369 0.15377,-0.0128 0.30753,-0.026 0.4613,-0.0398 0.15376,-0.0138 0.30753,-0.0281 0.46129,-0.043 0.15377,-0.0149 0.30753,-0.0303 0.4613,-0.0463 0.15376,-0.016 0.30753,-0.0327 0.4613,-0.0499 0.15376,-0.0173 0.30753,-0.0352 0.46129,-0.0537 0.15377,-0.0186 0.30753,-0.0378 0.4613,-0.0578 0.15376,-0.02 0.30753,-0.0407 0.46129,-0.0622 0.15377,-0.0215 0.30753,-0.0437 0.4613,-0.0668 0.15377,-0.0231 0.30753,-0.047 0.4613,-0.0717 0.15376,-0.0248 0.30753,-0.0504 0.46129,-0.077 0.15377,-0.0266 0.30753,-0.0541 0.4613,-0.0825 0.15376,-0.0285 0.30753,-0.0579 0.46129,-0.0884 0.15377,-0.0305 0.30753,-0.062 0.4613,-0.0947 0.15377,-0.0326 0.30753,-0.0664 0.4613,-0.1013 0.15376,-0.0349 0.30753,-0.071 0.46129,-0.1083 0.15377,-0.0373 0.30753,-0.0759 0.4613,-0.11572 0.15376,-0.0399 0.30753,-0.081 0.46129,-0.12355 0.15377,-0.0425 0.30754,-0.0865 0.4613,-0.13182 0.15377,-0.0454 0.30753,-0.0922 0.4613,-0.14054 0.15376,-0.0484 0.30753,-0.0982 0.46129,-0.14974 0.15377,-0.0515 0.30753,-0.10461 0.4613,-0.15941 0.15376,-0.0548 0.30753,-0.11132 0.4613,-0.1696 0.15376,-0.0583 0.30753,-0.11836 0.46129,-0.18031 0.15377,-0.0619 0.30753,-0.12576 0.4613,-0.19155 0.15376,-0.0658 0.30753,-0.13353 0.46129,-0.20334 0.15377,-0.0698 0.30753,-0.14169 0.4613,-0.21572 0.15377,-0.074 0.30753,-0.15023 0.4613,-0.22868 0.15376,-0.0784 0.30753,-0.15916 0.46129,-0.24223 0.15377,-0.0831 0.30753,-0.16851 0.4613,-0.25641 0.15376,-0.0879 0.30753,-0.17828 0.46129,-0.27122 0.15377,-0.0929 0.30754,-0.18847 0.4613,-0.28667 0.15377,-0.0982 0.30753,-0.19911 0.4613,-0.30279 0.15376,-0.10369 0.30753,-0.21018 0.46129,-0.31958 0.15377,-0.10939 0.30753,-0.22171 0.4613,-0.33704 0.15376,-0.11533 0.30753,-0.2337 0.4613,-0.3552 0.15376,-0.1215 0.30753,-0.24615 0.46129,-0.37406 0.15377,-0.12791 0.30753,-0.25909 0.4613,-0.39363 0.15376,-0.13455 0.30753,-0.27249 0.46129,-0.41392 0.15377,-0.14143 0.30753,-0.28638 0.4613,-0.43493 0.15377,-0.14855 0.30753,-0.30074 0.4613,-0.45666 0.15376,-0.15592 0.30753,-0.31559 0.46129,-0.47911 0.15377,-0.16353 0.30753,-0.33093 0.4613,-0.5023 0.15376,-0.17137 0.30753,-0.34674 0.46129,-0.52621 0.15377,-0.17946 0.30754,-0.36303 0.4613,-0.55082 0.15377,-0.18779 0.30753,-0.37982 0.4613,-0.57617 0.15376,-0.19635 0.30753,-0.39706 0.46129,-0.60221 0.15377,-0.20515 0.30753,-0.41477 0.4613,-0.62894 0.15376,-0.21418 0.30753,-0.43294 0.4613,-0.65637 0.15376,-0.22343 0.30753,-0.45155 0.46129,-0.68444 0.15377,-0.2329 0.30753,-0.4706 0.4613,-0.71318 0.15376,-0.24258 0.30753,-0.49006 0.46129,-0.74253 0.15377,-0.25247 0.30753,-0.50994 0.4613,-0.77249 0.15377,-0.26255 0.30753,-0.5302 0.4613,-0.80302 0.15376,-0.27282 0.30753,-0.55083 0.46129,-0.8341 0.15377,-0.28326 0.30753,-0.57181 0.4613,-0.86568 0.15376,-0.29388 0.30753,-0.59312 0.46129,-0.89776 0.15377,-0.30465 0.30754,-0.61472 0.4613,-0.93027 0.15377,-0.31555 0.30753,-0.6366 0.4613,-0.96318 0.15376,-0.32657 0.30753,-0.65871 0.46129,-0.99643 0.15377,-0.33772 0.30753,-0.68105 0.4613,-1.03 0.15376,-0.34895 0.30753,-0.70355 0.4613,-1.06381 0.15376,-0.36026 0.30753,-0.72621 0.46129,-1.09784 0.15377,-0.37162 0.30753,-0.74896 0.4613,-1.13199 0.15376,-0.38303 0.30753,-0.77179 0.46129,-1.16624 0.15377,-0.39446 0.30753,-0.79464 0.4613,-1.20051 0.15377,-0.40587 0.30753,-0.81746 0.4613,-1.23472 0.15376,-0.41727 0.30753,-0.84023 0.46129,-1.26883 0.15377,-0.42861 0.30753,-0.86288 0.4613,-1.30275 0.15376,-0.43987 0.30753,-0.88537 0.46129,-1.33641 0.15377,-0.45103 0.30754,-0.90764 0.4613,-1.36972 0.15377,-0.46208 0.30753,-0.92967 0.4613,-1.40264 0.15376,-0.47297 0.30753,-0.95136 0.46129,-1.43504 0.15377,-0.48369 0.30753,-0.97269 0.4613,-1.46688 0.15376,-0.49419 0.30753,-0.99359 0.4613,-1.49805 0.15376,-0.50446 0.30753,-1.014 0.46129,-1.52847 0.15377,-0.51446 0.30753,-1.03387 0.4613,-1.55805 0.15376,-0.52417 0.30753,-1.05314 0.46129,-1.58671 0.15377,-0.53356 0.30753,-1.07175 0.4613,-1.61435 0.15377,-0.5426 0.30753,-1.08964 0.4613,-1.64089 0.15376,-0.55125 0.30753,-1.10674 0.46129,-1.66623 0.15377,-0.55949 0.30753,-1.123 0.4613,-1.69028 0.15376,-0.56729 0.30753,-1.13837 0.46129,-1.71297 0.15377,-0.57461 0.30754,-1.15276 0.4613,-1.73418 0.15377,-0.58142 0.30753,-1.16613 0.4613,-1.75384 0.15376,-0.5877 0.30753,-1.17842 0.46129,-1.77185 0.15377,-0.59343 0.30753,-1.18958 0.4613,-1.78814 0.15376,-0.59856 0.30753,-1.19954 0.4613,-1.80261 0.15376,-0.60307 0.30753,-1.20825 0.46129,-1.81519 0.15377,-0.60694 0.30753,-1.21565 0.4613,-1.82579 0.15376,-0.61013 0.30753,-1.2217 0.46129,-1.83433 0.15377,-0.61264 0.30753,-1.22634 0.4613,-1.84076 0.15377,-0.61441 0.30753,-1.22952 0.4613,-1.84497 0.15376,-0.61544 0.30753,-1.23122 0.46129,-1.84693 0.15377,-0.61571 0.30753,-1.23136 0.4613,-1.84656 0.15376,-0.61519 0.30753,-1.22992 0.46129,-1.8438 0.15377,-0.61387 0.30754,-1.22687 0.4613,-1.8386 0.15377,-0.61172 0.30753,-1.22216 0.4613,-1.83091 0.15376,-0.60874 0.30753,-1.21578 0.46129,-1.82069 0.15377,-0.60491 0.30753,-1.20768 0.4613,-1.8079 0.15376,-0.60021 0.30753,-1.19785 0.4613,-1.7925 0.15376,-0.59465 0.30753,-1.18628 0.46129,-1.77448 0.15377,-0.5882 0.30753,-1.17294 0.4613,-1.7538 0.15376,-0.58087 0.30753,-1.15783 0.46129,-1.73047 0.15377,-0.57264 0.30753,-1.14093 0.4613,-1.70446 0.15377,-0.56352 0.30753,-1.12226 0.4613,-1.67578 0.15376,-0.55352 0.30753,-1.1018 0.46129,-1.64443 0.15377,-0.54263 0.30753,-1.07958 0.4613,-1.61044 0.15376,-0.53086 0.30753,-1.05559 0.46129,-1.57381 0.15377,-0.51821 0.30754,-1.02987 0.4613,-1.53458 0.15377,-0.50471 0.30753,-1.00243 0.4613,-1.49278 0.15376,-0.49035 0.30753,-0.97329 0.46129,-1.44845 0.15377,-0.47516 0.30753,-0.94249 0.4613,-1.40164 0.15376,-0.45915 0.30753,-0.91007 0.4613,-1.35241 0.15376,-0.44234 0.30753,-0.87606 0.46129,-1.30082 0.15377,-0.42476 0.30753,-0.84051 0.4613,-1.24694 0.15376,-0.40643 0.30753,-0.80347 0.46129,-1.19084 0.15377,-0.38737 0.30753,-0.765 0.4613,-1.13261 0.15377,-0.36762 0.30753,-0.72515 0.4613,-1.07235 0.15376,-0.34719 0.30753,-0.68398 0.46129,-1.01012 0.15377,-0.32614 0.30753,-0.64157 0.4613,-0.94606 0.15376,-0.30448 0.30753,-0.59797 0.46129,-0.88025 0.15377,-0.28227 0.30754,-0.55328 0.4613,-0.81282 0.15377,-0.25954 0.30753,-0.50755 0.4613,-0.74387 0.15376,-0.23633 0.30753,-0.46089 0.46129,-0.67355 0.15377,-0.21266 0.30753,-0.41335 0.4613,-0.60195 0.15376,-0.1886 0.30753,-0.36504 0.4613,-0.52923 0.15376,-0.16418 0.30753,-0.31604 0.46129,-0.4555 0.15377,-0.13946 0.30753,-0.26644 0.4613,-0.38091 0.15376,-0.11447 0.30753,-0.21635 0.46129,-0.30561 0.15377,-0.0893 0.30753,-0.16583 0.4613,-0.22971 0.15377,-0.0639 0.30753,-0.115 0.4613,-0.15339 0.15376,-0.0384 0.30753,-0.0639 0.46129,-0.0768 0.15377,-0.0128 0.30753,-0.0128 0.4613,0 0.15376,0.0128 0.30753,0.0384 0.46129,0.0768 0.15377,0.0384 0.30753,0.0895 0.4613,0.15339 0.15377,0.0639 0.30753,0.14048 0.4613,0.22971 0.15376,0.0892 0.30753,0.19117 0.46129,0.30561 0.15377,0.11444 0.30753,0.24148 0.4613,0.38091 0.15376,0.13944 0.30753,0.29134 0.46129,0.4555 0.15377,0.16416 0.30754,0.34065 0.4613,0.52923 0.15377,0.18858 0.30753,0.38931 0.4613,0.60195 0.15376,0.21264 0.30753,0.43725 0.46129,0.67355 0.15377,0.23629 0.30753,0.48435 0.4613,0.74387 0.15376,0.25952 0.30753,0.53057 0.4613,0.81282 0.15376,0.28226 0.30753,0.57579 0.46129,0.88025 0.15377,0.30447 0.30753,0.61994 0.4613,0.94606 0.15376,0.32612 0.30753,0.66295 0.46129,1.01012 0.15377,0.34718 0.30753,0.70475 0.4613,1.07235 0.15377,0.36759 0.30753,0.74526 0.4613,1.13261 0.15376,0.38735 0.30753,0.78443 0.46129,1.19084 0.15377,0.40641 0.30753,0.8222 0.4613,1.24694 0.15376,0.42474 0.30753,0.85849 0.46129,1.30082 0.15377,0.44233 0.30754,0.89328 0.4613,1.35241 0.15377,0.45914 0.30753,0.9265 0.4613,1.40164 0.15376,0.47515 0.30753,0.95812 0.46129,1.44845 0.15377,0.49034 0.30753,0.98809 0.4613,1.49278 0.15376,0.5047 0.30753,1.01638 0.4613,1.53458 0.15376,0.5182 0.30753,1.04296 0.46129,1.57381 0.15377,0.53085 0.30753,1.06782 0.4613,1.61044 0.15376,0.54262 0.30753,1.09092 0.46129,1.64443 0.15377,0.55351 0.30753,1.11226 0.4613,1.67578 0.15377,0.56352 0.30753,1.13183 0.4613,1.70446 0.15376,0.57263 0.30753,1.14961 0.46129,1.73047 0.15377,0.58085 0.30753,1.16561 0.4613,1.7538 0.15376,0.58819 0.30753,1.17984 0.46129,1.77448 0.15377,0.59464 0.30754,1.19229 0.4613,1.7925 0.15377,0.60021 0.30753,1.203 0.4613,1.8079 0.15376,0.60491 0.30753,1.21195 0.46129,1.82069 0.15377,0.60874 0.30753,1.21919 0.4613,1.83091 0.15376,0.61173 0.30753,1.22474 0.4613,1.8386 0.15376,0.61387 0.30753,1.22861 0.46129,1.8438 0.15377,0.6152 0.30753,1.23085 0.4613,1.84656 0.15376,0.61571 0.30753,1.23149 0.46129,1.84693 0.15377,0.61545 0.30753,1.23056 0.4613,1.84497 0.15377,0.61442 0.30753,1.22812 0.4613,1.84076 0.15376,0.61263 0.30753,1.22419 0.46129,1.83433 0.15377,0.61014 0.30753,1.21885 0.4613,1.82579 0.15376,0.60694 0.30753,1.21211 0.46129,1.81519 0.15377,0.60307 0.30754,1.20405 0.4613,1.80261 0.15377,0.59856 0.30753,1.19471 0.4613,1.78814 0.15376,0.59343 0.30753,1.18414 0.46129,1.77185 0.15377,0.58771 0.30753,1.17241 0.4613,1.75384 0.15376,0.58143 0.30753,1.15957 0.4613,1.73418 0.15376,0.57461 0.30753,1.14567 0.46129,1.71297 0.15377,0.56729 0.30753,1.13078 0.4613,1.69028 0.15376,0.5595 0.30753,1.11497 0.46129,1.66623 0.15377,0.55126 0.30753,1.09828 0.4613,1.64089 0.15377,0.54261 0.30753,1.08078 0.4613,1.61435 0.15376,0.53358 0.30753,1.06253 0.46129,1.58671 0.15377,0.52419 0.30753,1.04358 0.4613,1.55805 0.15376,0.51448 0.30753,1.024 0.46129,1.52847 0.15377,0.50447 0.30754,1.00385 0.4613,1.49805 0.15377,0.4942 0.30753,0.98318 0.4613,1.46688 0.15376,0.48369 0.30753,0.96206 0.46129,1.43504 0.15377,0.47298 0.30753,0.94055 0.4613,1.40264 0.15376,0.46209 0.30753,0.91868 0.4613,1.36972 0.15376,0.45105 0.30753,0.89653 0.46129,1.33641 0.15377,0.43988 0.30753,0.87413 0.4613,1.30275 0.15376,0.42861 0.30753,0.85155 0.46129,1.26883 0.15377,0.41727 0.30753,0.82884 0.4613,1.23472 0.15377,0.40588 0.30753,0.80604 0.4613,1.20051 0.15376,0.39446 0.30753,0.78319 0.46129,1.16624 0.15377,0.38304 0.30753,0.76036 0.4613,1.13199 0.15376,0.37164 0.30753,0.73757 0.46129,1.09784 0.15377,0.36027 0.30754,0.71485 0.4613,1.06381 0.15377,0.34897 0.30753,0.69227 0.4613,1.03 0.15376,0.33773 0.30753,0.66985 0.46129,0.99643 0.15377,0.32659 0.30753,0.64762 0.4613,0.96318 0.15376,0.31556 0.30753,0.62561 0.4613,0.93027 0.15376,0.30465 0.30753,0.60387 0.46129,0.89776 0.15377,0.29388 0.30753,0.58241 0.4613,0.86568 0.15376,0.28328 0.30753,0.56127 0.46129,0.8341 0.15377,0.27283 0.30753,0.54046 0.4613,0.80302 0.15377,0.26256 0.30753,0.52001 0.4613,0.77249 0.15376,0.25248 0.30753,0.49994 0.46129,0.74253 0.15377,0.24259 0.30753,0.48027 0.4613,0.71318 0.15376,0.2329 0.30753,0.46101 0.46129,0.68444 0.15377,0.22344 0.30754,0.44218 0.4613,0.65637 0.15377,0.21418 0.30753,0.42378 0.4613,0.62894 0.15376,0.20516 0.30753,0.40585 0.46129,0.60221 0.15377,0.19636 0.30753,0.38837 0.4613,0.57617 0.15376,0.18779 0.30753,0.37136 0.4613,0.55082 0.15376,0.17947 0.30753,0.35483 0.46129,0.52621 0.15377,0.17138 0.30753,0.33876 0.4613,0.5023 0.15376,0.16353 0.30753,0.32318 0.46129,0.47911 0.15377,0.15593 0.30753,0.3081 0.4613,0.45666 0.15377,0.14856 0.30753,0.29349 0.4613,0.43493 0.15376,0.14143 0.30753,0.27936 0.46129,0.41392 0.15377,0.13455 0.30753,0.26572 0.4613,0.39363 0.15376,0.12791 0.30753,0.25255 0.46129,0.37406 0.15377,0.12151 0.30754,0.23986 0.4613,0.3552 0.15377,0.11534 0.30753,0.22764 0.4613,0.33704 0.15376,0.1094 0.30753,0.21588 0.46129,0.31958 0.15377,0.10369 0.30753,0.20458 0.4613,0.30279 0.15376,0.0982 0.30753,0.19372 0.4613,0.28667 0.15376,0.093 0.30753,0.18331 0.46129,0.27122 0.15377,0.0879 0.30753,0.17333 0.4613,0.25641 0.15376,0.0831 0.30753,0.16378 0.46129,0.24223 0.15377,0.0785 0.30753,0.15464 0.4613,0.22868 0.15377,0.074 0.30753,0.1459 0.4613,0.21572 0.15376,0.0698 0.30753,0.13756 0.46129,0.20334 0.15377,0.0658 0.30753,0.12961 0.4613,0.19155 0.15376,0.062 0.30753,0.12202 0.46129,0.18031 0.15377,0.0583 0.30754,0.11479 0.4613,0.1696 0.15377,0.0548 0.30753,0.10791 0.4613,0.15941 0.15376,0.0515 0.30753,0.10138 0.46129,0.14974 0.15377,0.0483 0.30753,0.0952 0.4613,0.14054 0.15376,0.0454 0.30753,0.0893 0.4613,0.13182 0.15376,0.0425 0.30753,0.0837 0.46129,0.12355 0.15377,0.0399 0.30753,0.0784 0.4613,0.11572 0.15376,0.0373 0.30753,0.0734 0.46129,0.1083 0.15377,0.0349 0.30753,0.0687 0.4613,0.1013 0.15377,0.0326 0.30753,0.0642 0.4613,0.0947 0.15376,0.0305 0.30753,0.06 0.46129,0.0884 0.15377,0.0285 0.30753,0.056 0.4613,0.0825 0.15376,0.0266 0.30753,0.0522 0.46129,0.077 0.15377,0.0248 0.30753,0.0487 0.4613,0.0717 0.15377,0.0231 0.30753,0.0453 0.4613,0.0668 0.15376,0.0215 0.30753,0.0422 0.46129,0.0622 0.15377,0.02 0.30753,0.0392 0.4613,0.0578 0.15376,0.0186 0.30753,0.0365 0.46129,0.0537 0.15377,0.0173 0.30754,0.0339 0.4613,0.0499 0.15377,0.016 0.30753,0.0314 0.4613,0.0463 0.15376,0.0149 0.30753,0.0292 0.46129,0.043 0.15377,0.0138 0.30753,0.0271 0.4613,0.0398 0.15376,0.0128 0.30753,0.0251 0.4613,0.0369 0.15376,0.0118 0.30753,0.0232 0.46129,0.0341 0.15377,0.0109 0.30753,0.0215 0.4613,0.0316 0.15376,0.0101 0.30753,0.0198 0.46129,0.0292 0.15377,0.009 0.30753,0.0183 0.4613,0.0269 0.15377,0.009 0.30753,0.0169 0.4613,0.0249 0.15376,0.008 0.30753,0.0156 0.46129,0.0229 0.15377,0.007 0.30753,0.0144 0.4613,0.0211 0.15376,0.007 0.30753,0.0133 0.46129,0.0195 0.15377,0.006 0.30754,0.0122 0.4613,0.0179 0.15377,0.006 0.30753,0.0112 0.4613,0.0165 0.15376,0.005 0.30753,0.0103 0.46129,0.0152 0.15377,0.005 0.30753,0.009 0.4613,0.0139 0.15376,0.004 0.30753,0.009 0.4613,0.0128 0.15376,0.004 0.30753,0.008 0.46129,0.0117 0.15377,0.004 0.30753,0.007 0.4613,0.0107 0.15376,0.003 0.30753,0.007 0.46129,0.01"
       title="t (1/sqrt(2*pi))*exp(-pow(t,2)/2)"
       id="path10060" />
    <path
       inkscape:connector-curvature="0"
       id="path13243"
       d="m 641.34583,862.14691 0,-140"
       style="fill:none;fill-rule:evenodd;stroke:#003dd4;stroke-width:1;stroke-linecap:butt;stroke-linejoin:miter;stroke-miterlimit:4;stroke-dasharray:2, 4;stroke-dashoffset:0;stroke-opacity:1" />
    <path
       inkscape:connector-curvature="0"
       id="path13259"
       d="m 642.70862,801.58724 23.18855,0"
       style="fill:none;fill-rule:evenodd;stroke:#000000;stroke-width:1px;stroke-linecap:butt;stroke-linejoin:miter;stroke-opacity:1" />
    <text
       xml:space="preserve"
       style="font-style:normal;font-weight:normal;font-size:40px;line-height:125%;font-family:sans-serif;letter-spacing:0px;word-spacing:0px;fill:#000000;fill-opacity:1;stroke:none;stroke-width:1px;stroke-linecap:butt;stroke-linejoin:miter;stroke-opacity:1"
       x="672.4585"
       y="789.31848"
       id="text4236"
       sodipodi:linespacing="125%"><tspan
         sodipodi:role="line"
         id="tspan4238"
         x="672.4585"
         y="789.31848"
         style="font-size:35px">𝜆</tspan></text>
  </g>
</svg>
