<?xml version="1.0" encoding="UTF-8" standalone="no"?>
<!-- Created with Inkscape (http://www.inkscape.org/) -->

<svg
   xmlns:dc="http://purl.org/dc/elements/1.1/"
   xmlns:cc="http://creativecommons.org/ns#"
   xmlns:rdf="http://www.w3.org/1999/02/22-rdf-syntax-ns#"
   xmlns:svg="http://www.w3.org/2000/svg"
   xmlns="http://www.w3.org/2000/svg"
   xmlns:sodipodi="http://sodipodi.sourceforge.net/DTD/sodipodi-0.dtd"
   xmlns:inkscape="http://www.inkscape.org/namespaces/inkscape"
   width="1000"
   height="600"
   viewBox="0 0 1000 600"
   id="svg2"
   version="1.1"
   inkscape:version="0.91 r13725"
   sodipodi:docname="interference_para2d_pdf_B.svg"
   inkscape:export-filename="/home/pospelov/development/git/gisas/artwork/website/tutorials/interference/interference_para2d_pdf_B.png"
   inkscape:export-xdpi="90"
   inkscape:export-ydpi="90">
  <defs
     id="defs4">
    <marker
       inkscape:isstock="true"
       style="overflow:visible;"
       id="marker6222"
       refX="0.0"
       refY="0.0"
       orient="auto"
       inkscape:stockid="Arrow1Lend">
      <path
         transform="scale(0.8) rotate(180) translate(12.5,0)"
         style="fill-rule:evenodd;stroke:#000000;stroke-width:1pt;stroke-opacity:1;fill:#000000;fill-opacity:1"
         d="M 0.0,0.0 L 5.0,-5.0 L -12.5,0.0 L 5.0,5.0 L 0.0,0.0 z "
         id="path6224" />
    </marker>
    <marker
       inkscape:stockid="Arrow1Lend"
       orient="auto"
       refY="0.0"
       refX="0.0"
       id="marker6068"
       style="overflow:visible;"
       inkscape:isstock="true">
      <path
         id="path6070"
         d="M 0.0,0.0 L 5.0,-5.0 L -12.5,0.0 L 5.0,5.0 L 0.0,0.0 z "
         style="fill-rule:evenodd;stroke:#000000;stroke-width:1pt;stroke-opacity:1;fill:#000000;fill-opacity:1"
         transform="scale(0.8) rotate(180) translate(12.5,0)" />
    </marker>
    <marker
       inkscape:stockid="Arrow1Lend"
       orient="auto"
       refY="0.0"
       refX="0.0"
       id="marker7567"
       style="overflow:visible;"
       inkscape:isstock="true"
       inkscape:collect="always">
      <path
         id="path7569"
         d="M 0.0,0.0 L 5.0,-5.0 L -12.5,0.0 L 5.0,5.0 L 0.0,0.0 z "
         style="fill-rule:evenodd;stroke:#000000;stroke-width:1pt;stroke-opacity:1;fill:#000000;fill-opacity:1"
         transform="scale(0.8) rotate(180) translate(12.5,0)" />
    </marker>
    <marker
       inkscape:stockid="Arrow1Lend"
       orient="auto"
       refY="0.0"
       refX="0.0"
       id="Arrow1Lend"
       style="overflow:visible;"
       inkscape:isstock="true">
      <path
         id="path7423"
         d="M 0.0,0.0 L 5.0,-5.0 L -12.5,0.0 L 5.0,5.0 L 0.0,0.0 z "
         style="fill-rule:evenodd;stroke:#000000;stroke-width:1.0pt;"
         transform="scale(0.8) rotate(180) translate(12.5,0)" />
    </marker>
    <marker
       inkscape:isstock="true"
       style="overflow:visible;"
       id="marker7048"
       refX="0.0"
       refY="0.0"
       orient="auto"
       inkscape:stockid="Arrow1Lend">
      <path
         transform="scale(0.8) rotate(180) translate(12.5,0)"
         style="fill-rule:evenodd;stroke:#000000;stroke-width:1pt;stroke-opacity:1;fill:#000000;fill-opacity:1"
         d="M 0.0,0.0 L 5.0,-5.0 L -12.5,0.0 L 5.0,5.0 L 0.0,0.0 z "
         id="path7050" />
    </marker>
    <marker
       inkscape:isstock="true"
       style="overflow:visible;"
       id="marker6150"
       refX="0.0"
       refY="0.0"
       orient="auto"
       inkscape:stockid="Arrow1Lend"
       inkscape:collect="always">
      <path
         transform="scale(0.8) rotate(180) translate(12.5,0)"
         style="fill-rule:evenodd;stroke:#000000;stroke-width:1pt;stroke-opacity:1;fill:#000000;fill-opacity:1"
         d="M 0.0,0.0 L 5.0,-5.0 L -12.5,0.0 L 5.0,5.0 L 0.0,0.0 z "
         id="path6152" />
    </marker>
    <marker
       inkscape:isstock="true"
       style="overflow:visible;"
       id="marker5394"
       refX="0.0"
       refY="0.0"
       orient="auto"
       inkscape:stockid="Arrow1Lend">
      <path
         transform="scale(0.8) rotate(180) translate(12.5,0)"
         style="fill-rule:evenodd;stroke:#000000;stroke-width:1pt;stroke-opacity:1;fill:#000000;fill-opacity:1"
         d="M 0.0,0.0 L 5.0,-5.0 L -12.5,0.0 L 5.0,5.0 L 0.0,0.0 z "
         id="path5396" />
    </marker>
    <marker
       inkscape:isstock="true"
       style="overflow:visible;"
       id="marker4547"
       refX="0.0"
       refY="0.0"
       orient="auto"
       inkscape:stockid="Arrow2Mend">
      <path
         transform="scale(0.6) rotate(180) translate(0,0)"
         d="M 8.7185878,4.0337352 L -2.2072895,0.016013256 L 8.7185884,-4.0017078 C 6.9730900,-1.6296469 6.9831476,1.6157441 8.7185878,4.0337352 z "
         style="fill-rule:evenodd;stroke-width:0.625;stroke-linejoin:round;stroke:#000000;stroke-opacity:1;fill:#000000;fill-opacity:1"
         id="path4549" />
    </marker>
    <marker
       inkscape:isstock="true"
       style="overflow:visible;"
       id="marker4421"
       refX="0.0"
       refY="0.0"
       orient="auto"
       inkscape:stockid="Arrow2Mend">
      <path
         transform="scale(0.6) rotate(180) translate(0,0)"
         d="M 8.7185878,4.0337352 L -2.2072895,0.016013256 L 8.7185884,-4.0017078 C 6.9730900,-1.6296469 6.9831476,1.6157441 8.7185878,4.0337352 z "
         style="fill-rule:evenodd;stroke-width:0.625;stroke-linejoin:round;stroke:#000000;stroke-opacity:1;fill:#000000;fill-opacity:1"
         id="path4423" />
    </marker>
    <marker
       inkscape:stockid="Arrow1Lend"
       orient="auto"
       refY="0.0"
       refX="0.0"
       id="marker4319"
       style="overflow:visible;"
       inkscape:isstock="true">
      <path
         id="path4321"
         d="M 0.0,0.0 L 5.0,-5.0 L -12.5,0.0 L 5.0,5.0 L 0.0,0.0 z "
         style="fill-rule:evenodd;stroke:#000000;stroke-width:1pt;stroke-opacity:1;fill:#000000;fill-opacity:1"
         transform="scale(0.8) rotate(180) translate(12.5,0)" />
    </marker>
    <marker
       inkscape:isstock="true"
       style="overflow:visible;"
       id="marker5444"
       refX="0.0"
       refY="0.0"
       orient="auto"
       inkscape:stockid="Arrow2Mend">
      <path
         transform="scale(0.6) rotate(180) translate(0,0)"
         d="M 8.7185878,4.0337352 L -2.2072895,0.016013256 L 8.7185884,-4.0017078 C 6.9730900,-1.6296469 6.9831476,1.6157441 8.7185878,4.0337352 z "
         style="fill-rule:evenodd;stroke-width:0.625;stroke-linejoin:round;stroke:#000000;stroke-opacity:1;fill:#000000;fill-opacity:1"
         id="path5446" />
    </marker>
    <marker
       inkscape:stockid="Arrow1Mend"
       orient="auto"
       refY="0.0"
       refX="0.0"
       id="Arrow1Mend"
       style="overflow:visible;"
       inkscape:isstock="true">
      <path
         id="path4258"
         d="M 0.0,0.0 L 5.0,-5.0 L -12.5,0.0 L 5.0,5.0 L 0.0,0.0 z "
         style="fill-rule:evenodd;stroke:#000000;stroke-width:1pt;stroke-opacity:1;fill:#000000;fill-opacity:1"
         transform="scale(0.4) rotate(180) translate(10,0)" />
    </marker>
    <marker
       inkscape:stockid="Arrow2Mend"
       orient="auto"
       refY="0.0"
       refX="0.0"
       id="marker6350"
       style="overflow:visible;"
       inkscape:isstock="true">
      <path
         id="path6352"
         style="fill-rule:evenodd;stroke-width:0.625;stroke-linejoin:round;stroke:#000000;stroke-opacity:1;fill:#000000;fill-opacity:1"
         d="M 8.7185878,4.0337352 L -2.2072895,0.016013256 L 8.7185884,-4.0017078 C 6.9730900,-1.6296469 6.9831476,1.6157441 8.7185878,4.0337352 z "
         transform="scale(0.6) rotate(180) translate(0,0)" />
    </marker>
    <marker
       inkscape:stockid="Arrow2Lend"
       orient="auto"
       refY="0.0"
       refX="0.0"
       id="marker6304"
       style="overflow:visible;"
       inkscape:isstock="true">
      <path
         id="path6306"
         style="fill-rule:evenodd;stroke-width:0.625;stroke-linejoin:round;stroke:#000000;stroke-opacity:1;fill:#000000;fill-opacity:1"
         d="M 8.7185878,4.0337352 L -2.2072895,0.016013256 L 8.7185884,-4.0017078 C 6.9730900,-1.6296469 6.9831476,1.6157441 8.7185878,4.0337352 z "
         transform="scale(1.1) rotate(180) translate(1,0)" />
    </marker>
    <marker
       inkscape:isstock="true"
       style="overflow:visible;"
       id="marker5734"
       refX="0.0"
       refY="0.0"
       orient="auto"
       inkscape:stockid="Arrow2Mend">
      <path
         transform="scale(0.6) rotate(180) translate(0,0)"
         d="M 8.7185878,4.0337352 L -2.2072895,0.016013256 L 8.7185884,-4.0017078 C 6.9730900,-1.6296469 6.9831476,1.6157441 8.7185878,4.0337352 z "
         style="fill-rule:evenodd;stroke-width:0.625;stroke-linejoin:round;stroke:#000000;stroke-opacity:1;fill:#000000;fill-opacity:1"
         id="path5736" />
    </marker>
    <marker
       inkscape:stockid="Arrow2Mend"
       orient="auto"
       refY="0.0"
       refX="0.0"
       id="Arrow2Mend"
       style="overflow:visible;"
       inkscape:isstock="true"
       inkscape:collect="always">
      <path
         id="path4213"
         style="fill-rule:evenodd;stroke-width:0.625;stroke-linejoin:round;stroke:#000000;stroke-opacity:1;fill:#000000;fill-opacity:1"
         d="M 8.7185878,4.0337352 L -2.2072895,0.016013256 L 8.7185884,-4.0017078 C 6.9730900,-1.6296469 6.9831476,1.6157441 8.7185878,4.0337352 z "
         transform="scale(0.6) rotate(180) translate(0,0)" />
    </marker>
    <marker
       inkscape:stockid="Arrow2Lend"
       orient="auto"
       refY="0.0"
       refX="0.0"
       id="Arrow2Lend"
       style="overflow:visible;"
       inkscape:isstock="true">
      <path
         id="path4207"
         style="fill-rule:evenodd;stroke-width:0.625;stroke-linejoin:round;stroke:#000000;stroke-opacity:1;fill:#000000;fill-opacity:1"
         d="M 8.7185878,4.0337352 L -2.2072895,0.016013256 L 8.7185884,-4.0017078 C 6.9730900,-1.6296469 6.9831476,1.6157441 8.7185878,4.0337352 z "
         transform="scale(1.1) rotate(180) translate(1,0)" />
    </marker>
  </defs>
  <sodipodi:namedview
     id="base"
     pagecolor="#ffffff"
     bordercolor="#666666"
     borderopacity="1.0"
     inkscape:pageopacity="1"
     inkscape:pageshadow="2"
     inkscape:zoom="1.7471636"
     inkscape:cx="447.80725"
     inkscape:cy="222.98995"
     inkscape:document-units="px"
     inkscape:current-layer="layer1"
     showgrid="true"
     inkscape:window-width="2466"
     inkscape:window-height="1365"
     inkscape:window-x="0"
     inkscape:window-y="0"
     inkscape:window-maximized="1"
     inkscape:snap-bbox="true"
     inkscape:snap-global="false"
     objecttolerance="20"
     guidetolerance="10000"
     showguides="true"
     units="px"
     inkscape:snap-bbox-midpoints="true"
     inkscape:bbox-nodes="true"
     inkscape:object-paths="true">
    <inkscape:grid
       type="xygrid"
       id="grid4174"
       units="px"
       spacingx="20"
       spacingy="20" />
  </sodipodi:namedview>
  <metadata
     id="metadata7">
    <rdf:RDF>
      <cc:Work
         rdf:about="">
        <dc:format>image/svg+xml</dc:format>
        <dc:type
           rdf:resource="http://purl.org/dc/dcmitype/StillImage" />
        <dc:title></dc:title>
      </cc:Work>
    </rdf:RDF>
  </metadata>
  <g
     inkscape:label="Layer 1"
     inkscape:groupmode="layer"
     id="layer1"
     transform="translate(0,-452.36219)">
    <circle
       r="14"
       cy="952.36218"
       cx="339.99997"
       id="circle4136"
       style="fill:#6e6e6e;fill-opacity:1;stroke:#646464;stroke-width:2;stroke-miterlimit:4;stroke-dasharray:none;stroke-opacity:1" />
    <circle
       style="fill:#6e6e6e;fill-opacity:1;stroke:#646464;stroke-width:2;stroke-miterlimit:4;stroke-dasharray:none;stroke-opacity:1"
       id="circle4138"
       cx="620"
       cy="952.36218"
       r="14" />
    <circle
       style="fill:#6e6e6e;fill-opacity:1;stroke:#646464;stroke-width:2;stroke-miterlimit:4;stroke-dasharray:none;stroke-opacity:1"
       id="circle4142"
       cx="479.99997"
       cy="732.36218"
       r="14" />
    <circle
       r="14"
       cy="756.5047"
       cx="-57.573456"
       id="circle4144"
       style="fill:#6e6e6e;fill-opacity:1;stroke:#646464;stroke-width:2;stroke-miterlimit:4;stroke-dasharray:none;stroke-opacity:1"
       transform="matrix(0.94195094,-0.33575054,0.33575054,0.94195094,0,0)" />
    <circle
       r="14"
       cy="952.36218"
       cx="900"
       id="circle4150"
       style="fill:#6e6e6e;fill-opacity:1;stroke:#646464;stroke-width:2;stroke-miterlimit:4;stroke-dasharray:none;stroke-opacity:1" />
    <circle
       style="fill:#6e6e6e;fill-opacity:1;stroke:#646464;stroke-width:2;stroke-miterlimit:4;stroke-dasharray:none;stroke-opacity:1"
       id="circle4152"
       cx="59.999985"
       cy="512.36218"
       r="14" />
    <circle
       r="14"
       cy="512.36218"
       cx="339.99997"
       id="circle4154"
       style="fill:#6e6e6e;fill-opacity:1;stroke:#646464;stroke-width:2;stroke-miterlimit:4;stroke-dasharray:none;stroke-opacity:1" />
    <circle
       style="fill:#6e6e6e;fill-opacity:1;stroke:#646464;stroke-width:2;stroke-miterlimit:4;stroke-dasharray:none;stroke-opacity:1"
       id="circle4156"
       cx="620"
       cy="512.36218"
       r="14" />
    <circle
       r="14"
       cy="732.36218"
       cx="760"
       id="circle4167"
       style="fill:#6e6e6e;fill-opacity:1;stroke:#646464;stroke-width:2;stroke-miterlimit:4;stroke-dasharray:none;stroke-opacity:1" />
    <circle
       style="fill:#6e6e6e;fill-opacity:1;stroke:#646464;stroke-width:2;stroke-miterlimit:4;stroke-dasharray:none;stroke-opacity:1"
       id="circle4178"
       cx="900"
       cy="512.36218"
       r="14" />
    <text
       xml:space="preserve"
       style="font-style:normal;font-weight:normal;font-size:40px;line-height:125%;font-family:sans-serif;letter-spacing:0px;word-spacing:0px;fill:#000000;fill-opacity:1;stroke:none;stroke-width:1px;stroke-linecap:butt;stroke-linejoin:miter;stroke-opacity:1"
       x="426.42856"
       y="985.93359"
       id="text6450"
       sodipodi:linespacing="125%"><tspan
         sodipodi:role="line"
         id="tspan6452"
         x="426.42856"
         y="985.93359">a</tspan></text>
    <text
       xml:space="preserve"
       style="font-style:normal;font-weight:normal;font-size:40px;line-height:125%;font-family:sans-serif;letter-spacing:0px;word-spacing:0px;fill:#000000;fill-opacity:1;stroke:none;stroke-width:1px;stroke-linecap:butt;stroke-linejoin:miter;stroke-opacity:1"
       x="254.99998"
       y="893.07648"
       id="text6454"
       sodipodi:linespacing="125%"><tspan
         sodipodi:role="line"
         id="tspan6456"
         x="254.99998"
         y="893.07648">b</tspan></text>
    <path
       style="fill:none;fill-rule:evenodd;stroke:#000000;stroke-width:2;stroke-linecap:butt;stroke-linejoin:miter;stroke-miterlimit:4;stroke-dasharray:none;stroke-opacity:1;marker-end:url(#marker6350)"
       d="M 333.03205,939.74924 201.82115,734.95667"
       id="path6302"
       inkscape:connector-curvature="0" />
    <path
       style="color:#000000;font-style:normal;font-variant:normal;font-weight:normal;font-stretch:normal;font-size:medium;line-height:normal;font-family:sans-serif;text-indent:0;text-align:start;text-decoration:none;text-decoration-line:none;text-decoration-style:solid;text-decoration-color:#000000;letter-spacing:normal;word-spacing:normal;text-transform:none;direction:ltr;block-progression:tb;writing-mode:lr-tb;baseline-shift:baseline;text-anchor:start;white-space:normal;clip-rule:nonzero;display:inline;overflow:visible;visibility:visible;opacity:1;isolation:auto;mix-blend-mode:normal;color-interpolation:sRGB;color-interpolation-filters:linearRGB;solid-color:#000000;solid-opacity:1;fill:#0000dc;fill-opacity:1;fill-rule:nonzero;stroke:none;stroke-width:1;stroke-linecap:butt;stroke-linejoin:miter;stroke-miterlimit:4;stroke-dasharray:none;stroke-dashoffset:0;stroke-opacity:1;color-rendering:auto;image-rendering:auto;shape-rendering:auto;text-rendering:auto;enable-background:accumulate"
       d="m 339.99999,924.13171 c -4.93571,0 -9.57546,1.27022 -13.61328,3.49805 l 0.48437,0.87109 c 3.89354,-2.14565 8.36676,-3.36914 13.12891,-3.36914 15.04582,0 27.23242,12.18465 27.23242,27.23047 l 1,0 c 0,-15.58626 -12.64616,-28.23047 -28.23242,-28.23047 z"
       id="path6620"
       inkscape:export-xdpi="90"
       inkscape:export-ydpi="90"
       inkscape:connector-curvature="0" />
    <path
       style="fill:none;fill-rule:evenodd;stroke:#000000;stroke-width:1.99999988;stroke-linecap:butt;stroke-linejoin:miter;stroke-miterlimit:4;stroke-dasharray:none;stroke-opacity:1;marker-end:url(#Arrow2Mend)"
       d="m 354.28571,952.37503 262.88208,0"
       id="path4180"
       inkscape:connector-curvature="0" />
    <text
       xml:space="preserve"
       style="font-style:normal;font-weight:normal;font-size:40px;line-height:125%;font-family:sans-serif;letter-spacing:0px;word-spacing:0px;fill:#000000;fill-opacity:1;stroke:none;stroke-width:1px;stroke-linecap:butt;stroke-linejoin:miter;stroke-opacity:1"
       x="357.49091"
       y="913.06219"
       id="text5031"
       sodipodi:linespacing="125%"><tspan
         sodipodi:role="line"
         id="tspan5033"
         x="357.49091"
         y="913.06219">𝛼</tspan></text>
    <ellipse
       style="fill:none;fill-opacity:1;stroke:#0000d8;stroke-width:0.99999994;stroke-miterlimit:4;stroke-dasharray:none;stroke-dashoffset:0;stroke-opacity:1"
       id="ellipse6138"
       ry="59.499996"
       rx="96.665764"
       cy="1129.928"
       cx="112.10823"
       transform="matrix(0.88741564,-0.46097016,0.46097016,0.88741564,0,0)" />
    <path
       style="fill:none;fill-rule:evenodd;stroke:#000000;stroke-width:1px;stroke-linecap:butt;stroke-linejoin:miter;stroke-opacity:1;marker-end:url(#marker7567)"
       d="m 620.34975,951.03725 140.0945,-72.7724"
       id="path6140"
       inkscape:connector-curvature="0" />
    <path
       style="fill:none;fill-rule:evenodd;stroke:#000000;stroke-width:0.99999994px;stroke-linecap:butt;stroke-linejoin:miter;stroke-opacity:1;marker-end:url(#marker6150)"
       d="M 620.7692,951.84485 568.03374,850.32355"
       id="path6142"
       inkscape:connector-curvature="0" />
    <text
       sodipodi:linespacing="125%"
       id="text6144"
       y="1152.1296"
       x="254.35426"
       style="font-style:normal;font-weight:normal;font-size:40px;line-height:125%;font-family:sans-serif;letter-spacing:0px;word-spacing:0px;fill:#000000;fill-opacity:1;stroke:none;stroke-width:1px;stroke-linecap:butt;stroke-linejoin:miter;stroke-opacity:1"
       xml:space="preserve"
       transform="matrix(0.88741564,-0.46097016,0.46097016,0.88741564,0,0)"><tspan
         style="font-size:22.5px"
         y="1152.1296"
         x="254.35426"
         id="tspan6146"
         sodipodi:role="line">x<tspan
   id="tspan6148"
   style="font-size:12.5px;baseline-shift:sub">d</tspan></tspan></text>
    <text
       xml:space="preserve"
       style="font-style:normal;font-weight:normal;font-size:22.5px;line-height:125%;font-family:sans-serif;letter-spacing:0px;word-spacing:0px;baseline-shift:baseline;fill:#000000;fill-opacity:1;stroke:none;stroke-width:1px;stroke-linecap:butt;stroke-linejoin:miter;stroke-opacity:1"
       x="306.82162"
       y="308.49203"
       id="text6836"
       sodipodi:linespacing="125%"><tspan
         sodipodi:role="line"
         id="tspan6838"
         x="0"
         y="0"
         style="font-size:22.5px"><tspan
           style="font-size:22.5px"
           id="tspan6840" /></tspan></text>
    <text
       xml:space="preserve"
       style="font-style:normal;font-weight:normal;font-size:40px;line-height:125%;font-family:sans-serif;letter-spacing:0px;word-spacing:0px;fill:#000000;fill-opacity:1;stroke:none;stroke-width:1px;stroke-linecap:butt;stroke-linejoin:miter;stroke-opacity:1"
       x="83.070877"
       y="1029.4646"
       id="text6842"
       sodipodi:linespacing="125%"
       transform="matrix(0.88741564,-0.46097016,0.46097016,0.88741564,0,0)"><tspan
         sodipodi:role="line"
         id="tspan6844"
         x="83.070877"
         y="1029.4646"
         style="font-size:22.5px">y<tspan
   style="font-size:64.99999762%;baseline-shift:sub"
   id="tspan6846">d</tspan></tspan></text>
    <ellipse
       style="fill:#0000c3;fill-opacity:1;stroke:#0000d8;stroke-width:0.99999994;stroke-miterlimit:4;stroke-dasharray:none;stroke-dashoffset:0;stroke-opacity:1"
       id="path6862"
       cx="208.58366"
       cy="1129.9635"
       rx="1.5"
       ry="1.5000001"
       transform="matrix(0.88741564,-0.46097016,0.46097016,0.88741564,0,0)" />
    <ellipse
       ry="1.5000001"
       rx="1.5"
       cy="1070.7246"
       cx="112.14164"
       id="ellipse6864"
       style="fill:#0000c3;fill-opacity:1;stroke:#0000d8;stroke-width:0.99999994;stroke-miterlimit:4;stroke-dasharray:none;stroke-dashoffset:0;stroke-opacity:1"
       transform="matrix(0.88741564,-0.46097016,0.46097016,0.88741564,0,0)" />
    <path
       style="fill:none;fill-rule:evenodd;stroke:#000000;stroke-width:0.99999994;stroke-linecap:butt;stroke-linejoin:miter;stroke-miterlimit:4;stroke-dasharray:3.99999996, 7.99999993;stroke-dashoffset:0;stroke-opacity:1"
       d="m 620.3275,951.54763 277.70566,0"
       id="path7691"
       inkscape:connector-curvature="0" />
    <path
       style="color:#000000;font-style:normal;font-variant:normal;font-weight:normal;font-stretch:normal;font-size:medium;line-height:normal;font-family:sans-serif;text-indent:0;text-align:start;text-decoration:none;text-decoration-line:none;text-decoration-style:solid;text-decoration-color:#000000;letter-spacing:normal;word-spacing:normal;text-transform:none;direction:ltr;block-progression:tb;writing-mode:lr-tb;baseline-shift:baseline;text-anchor:start;white-space:normal;clip-rule:nonzero;display:inline;overflow:visible;visibility:visible;opacity:1;isolation:auto;mix-blend-mode:normal;color-interpolation:sRGB;color-interpolation-filters:linearRGB;solid-color:#000000;solid-opacity:1;fill:#0000d8;fill-opacity:1;fill-rule:nonzero;stroke:none;stroke-width:1;stroke-linecap:butt;stroke-linejoin:miter;stroke-miterlimit:4;stroke-dasharray:1, 1;stroke-dashoffset:0;stroke-opacity:1;color-rendering:auto;image-rendering:auto;shape-rendering:auto;text-rendering:auto;enable-background:accumulate"
       d="m 665.04234,928.07895 -0.89062,0.457 0.45704,0.8906 0.88867,-0.457 -0.45508,-0.8906 z m 0.91211,1.8086 -0.91211,0.4121 0.41211,0.9101 0.91016,-0.4121 -0.41016,-0.9101 z m 0.82227,1.8222 -0.91016,0.4122 0.0664,0.1464 0.01,0.022 0.28908,0.7364 0.92967,-0.3672 -0.29881,-0.7578 -0.004,-0.012 -0.006,-0.012 -0.0762,-0.168 z m 0.75195,1.879 -0.92969,0.3671 0.22852,0.5821 0.11133,0.332 0.94726,-0.3203 -0.11914,-0.3555 -0.004,-0.012 -0.004,-0.012 -0.23047,-0.582 z m 0.67969,1.9082 -0.94727,0.3203 0.32033,0.9472 0.94726,-0.3203 -0.32031,-0.9472 z m 0.60352,1.9316 -0.96094,0.2734 0.27344,0.961 0.96093,-0.2735 -0.27343,-0.9609 z m 0.53125,1.9531 -0.9746,0.2246 0.2246,0.9746 0.97461,-0.2246 -0.22461,-0.9746 z m 0.44921,1.9512 -0.9746,0.2226 0.006,0.027 0.16602,0.9316 0.98437,-0.1757 -0.16992,-0.9571 -0.002,-0.012 -0.004,-0.012 -0.006,-0.025 z m 0.35744,1.9902 -0.98438,0.1758 0.0898,0.4961 0.002,0.012 0.002,0.014 0.0547,0.4414 0.99219,-0.125 -0.0586,-0.4668 -0.002,-0.014 -0.002,-0.012 -0.0937,-0.5215 z m 0.28319,2.0059 -0.99219,0.125 0.12695,0.9922 0.99024,-0.125 -0.125,-0.9922 z m 0.20704,2.0137 -0.99806,0.076 0.0762,0.9961 0.99805,-0.076 -0.0762,-0.9961 z m 0.1328,2.0195 -1,0.025 0.0254,1 1,-0.025 -0.0254,-1 z m 0.0508,2 -1,0.025 0.002,0.096 1,0 -0.002,-0.1211 z"
       id="path7693"
       inkscape:connector-curvature="0" />
    <text
       xml:space="preserve"
       style="font-style:normal;font-weight:normal;font-size:40px;line-height:125%;font-family:sans-serif;letter-spacing:0px;word-spacing:0px;fill:#000000;fill-opacity:1;stroke:none;stroke-width:1px;stroke-linecap:butt;stroke-linejoin:miter;stroke-opacity:1"
       x="681.63507"
       y="937.72327"
       id="text4350"
       sodipodi:linespacing="125%"><tspan
         sodipodi:role="line"
         id="tspan4352"
         x="681.63507"
         y="937.72327"
         style="font-size:22.5px">𝛾</tspan></text>
    <ellipse
       transform="matrix(-0.88330729,-0.46879445,0.46879445,-0.88330729,0,0)"
       cx="-519.57465"
       cy="-552.862"
       rx="96.665764"
       ry="59.499996"
       id="ellipse5952"
       style="fill:none;fill-opacity:1;stroke:#0000d8;stroke-width:0.99999994;stroke-miterlimit:4;stroke-dasharray:none;stroke-dashoffset:0;stroke-opacity:1" />
    <path
       inkscape:connector-curvature="0"
       id="path5954"
       d="M 199.76559,731.92053 60.319659,657.91291"
       style="fill:none;fill-rule:evenodd;stroke:#000000;stroke-width:1px;stroke-linecap:butt;stroke-linejoin:miter;stroke-opacity:1;marker-end:url(#marker6222)" />
    <path
       inkscape:connector-curvature="0"
       id="path5956"
       d="m 199.55441,732.60443 -52.99376,99.57585"
       style="fill:none;fill-rule:evenodd;stroke:#000000;stroke-width:0.99999994px;stroke-linecap:butt;stroke-linejoin:miter;stroke-opacity:1;marker-end:url(#marker6068)" />
    <text
       transform="matrix(0.99992857,-0.01195227,0.01195227,0.99992857,0,0)"
       xml:space="preserve"
       style="font-style:normal;font-weight:normal;font-size:40px;line-height:125%;font-family:sans-serif;letter-spacing:0px;word-spacing:0px;fill:#000000;fill-opacity:1;stroke:none;stroke-width:1px;stroke-linecap:butt;stroke-linejoin:miter;stroke-opacity:1"
       x="42.83762"
       y="696.69012"
       id="text5958"
       sodipodi:linespacing="125%"><tspan
         sodipodi:role="line"
         id="tspan5960"
         x="42.83762"
         y="696.69012"
         style="font-size:22.5px">x<tspan
   style="font-size:12.5px;baseline-shift:sub"
   id="tspan5962">d</tspan></tspan></text>
    <text
       transform="matrix(0.99995897,-0.00905868,0.00905868,0.99995897,0,0)"
       sodipodi:linespacing="125%"
       id="text5964"
       y="837.75073"
       x="154.50616"
       style="font-style:normal;font-weight:normal;font-size:40px;line-height:125%;font-family:sans-serif;letter-spacing:0px;word-spacing:0px;fill:#000000;fill-opacity:1;stroke:none;stroke-width:1px;stroke-linecap:butt;stroke-linejoin:miter;stroke-opacity:1"
       xml:space="preserve"><tspan
         style="font-size:22.5px"
         y="837.75073"
         x="154.50616"
         id="tspan5966"
         sodipodi:role="line">y<tspan
   id="tspan5968"
   style="font-size:64.99999762%;baseline-shift:sub">d</tspan></tspan></text>
    <ellipse
       transform="matrix(-0.88330729,-0.46879445,0.46879445,-0.88330729,0,0)"
       ry="1.5000001"
       rx="1.5"
       cy="-552.82648"
       cx="-423.09924"
       id="ellipse5976"
       style="fill:#0000c3;fill-opacity:1;stroke:#0000d8;stroke-width:0.99999994;stroke-miterlimit:4;stroke-dasharray:none;stroke-dashoffset:0;stroke-opacity:1" />
    <ellipse
       transform="matrix(-0.88330729,-0.46879445,0.46879445,-0.88330729,0,0)"
       style="fill:#0000c3;fill-opacity:1;stroke:#0000d8;stroke-width:0.99999994;stroke-miterlimit:4;stroke-dasharray:none;stroke-dashoffset:0;stroke-opacity:1"
       id="ellipse5978"
       cx="-519.5412"
       cy="-612.06537"
       rx="1.5"
       ry="1.5000001" />
    <text
       sodipodi:linespacing="125%"
       id="text5990"
       y="691.64484"
       x="173.33722"
       style="font-style:normal;font-weight:normal;font-size:40px;line-height:125%;font-family:sans-serif;letter-spacing:0px;word-spacing:0px;fill:#000000;fill-opacity:1;stroke:none;stroke-width:1px;stroke-linecap:butt;stroke-linejoin:miter;stroke-opacity:1"
       xml:space="preserve"
       transform="matrix(0.99992086,-0.01258043,0.01258043,0.99992086,0,0)"><tspan
         style="font-size:22.5px"
         y="691.64484"
         x="173.33722"
         id="tspan5992"
         sodipodi:role="line">𝛾</tspan></text>
    <path
       style="fill:none;fill-rule:evenodd;stroke:#000000;stroke-width:0.99999994;stroke-linecap:butt;stroke-linejoin:miter;stroke-miterlimit:4;stroke-dasharray:2, 6;stroke-dashoffset:0;stroke-opacity:1"
       d="M 199.57821,732.09397 60.409144,512.6435"
       id="path5994"
       inkscape:connector-curvature="0" />
    <text
       xml:space="preserve"
       style="font-style:normal;font-weight:normal;font-size:40px;line-height:125%;font-family:sans-serif;letter-spacing:0px;word-spacing:0px;fill:#000000;fill-opacity:1;stroke:none;stroke-width:1px;stroke-linecap:butt;stroke-linejoin:miter;stroke-opacity:1"
       x="678.65906"
       y="1018.6299"
       id="text6490"
       sodipodi:linespacing="125%"><tspan
         sodipodi:role="line"
         id="tspan6492"
         x="678.65906"
         y="1018.6299"
         style="font-size:22.5px">pdf1</tspan></text>
    <text
       xml:space="preserve"
       style="font-style:normal;font-weight:normal;font-size:40px;line-height:125%;font-family:sans-serif;letter-spacing:0px;word-spacing:0px;fill:#000000;fill-opacity:1;stroke:none;stroke-width:1px;stroke-linecap:butt;stroke-linejoin:miter;stroke-opacity:1"
       x="36.758423"
       y="778.62988"
       id="text6494"
       sodipodi:linespacing="125%"><tspan
         sodipodi:role="line"
         id="tspan6496"
         x="36.758423"
         y="778.62988"
         style="font-size:22.5px">pdf2</tspan></text>
    <text
       xml:space="preserve"
       style="font-style:normal;font-weight:normal;font-size:40px;line-height:125%;font-family:sans-serif;letter-spacing:0px;word-spacing:0px;fill:#000000;fill-opacity:1;stroke:none;stroke-width:1px;stroke-linecap:butt;stroke-linejoin:miter;stroke-opacity:1"
       x="705.35583"
       y="886.41681"
       id="text6498"
       sodipodi:linespacing="125%"><tspan
         sodipodi:role="line"
         id="tspan6500"
         x="705.35583"
         y="886.41681"
         style="font-size:22.5px">𝜔<tspan
   style="font-size:64.99999762%;baseline-shift:sub"
   id="tspan6502">x</tspan></tspan></text>
    <text
       sodipodi:linespacing="125%"
       id="text6504"
       y="667.06018"
       x="98.280342"
       style="font-style:normal;font-weight:normal;font-size:40px;line-height:125%;font-family:sans-serif;letter-spacing:0px;word-spacing:0px;fill:#000000;fill-opacity:1;stroke:none;stroke-width:1px;stroke-linecap:butt;stroke-linejoin:miter;stroke-opacity:1"
       xml:space="preserve"><tspan
         style="font-size:22.5px"
         y="667.06018"
         x="98.280342"
         id="tspan6506"
         sodipodi:role="line">𝜔<tspan
   id="tspan6508"
   style="font-size:64.99999762%;baseline-shift:sub">x</tspan></tspan></text>
    <text
       xml:space="preserve"
       style="font-style:normal;font-weight:normal;font-size:40px;line-height:125%;font-family:sans-serif;letter-spacing:0px;word-spacing:0px;fill:#000000;fill-opacity:1;stroke:none;stroke-width:1px;stroke-linecap:butt;stroke-linejoin:miter;stroke-opacity:1"
       x="590.88684"
       y="879.14331"
       id="text6510"
       sodipodi:linespacing="125%"><tspan
         sodipodi:role="line"
         id="tspan6512"
         x="590.88684"
         y="879.14331"
         style="font-size:22.5px">𝜔<tspan
   style="font-size:64.99999762%;baseline-shift:sub"
   id="tspan6514">y</tspan></tspan></text>
    <text
       sodipodi:linespacing="125%"
       id="text6516"
       y="795.77161"
       x="131.12834"
       style="font-style:normal;font-weight:normal;font-size:40px;line-height:125%;font-family:sans-serif;letter-spacing:0px;word-spacing:0px;fill:#000000;fill-opacity:1;stroke:none;stroke-width:1px;stroke-linecap:butt;stroke-linejoin:miter;stroke-opacity:1"
       xml:space="preserve"><tspan
         style="font-size:22.5px"
         y="795.77161"
         x="131.12834"
         id="tspan6518"
         sodipodi:role="line">𝜔<tspan
   id="tspan6520"
   style="font-size:64.99999762%;baseline-shift:sub">y</tspan></tspan></text>
    <path
       style="fill:none;fill-rule:evenodd;stroke:#000000;stroke-width:1;stroke-linecap:butt;stroke-linejoin:miter;stroke-opacity:1;stroke-miterlimit:4;stroke-dasharray:1,6;stroke-dashoffset:0"
       d="m 200,732.36219 280,0"
       id="path4338"
       inkscape:connector-curvature="0" />
    <path
       style="color:#000000;font-style:normal;font-variant:normal;font-weight:normal;font-stretch:normal;font-size:medium;line-height:normal;font-family:sans-serif;text-indent:0;text-align:start;text-decoration:none;text-decoration-line:none;text-decoration-style:solid;text-decoration-color:#000000;letter-spacing:normal;word-spacing:normal;text-transform:none;direction:ltr;block-progression:tb;writing-mode:lr-tb;baseline-shift:baseline;text-anchor:start;white-space:normal;clip-rule:nonzero;display:inline;overflow:visible;visibility:visible;opacity:1;isolation:auto;mix-blend-mode:normal;color-interpolation:sRGB;color-interpolation-filters:linearRGB;solid-color:#000000;solid-opacity:1;fill:#0000ae;fill-opacity:1;fill-rule:nonzero;stroke:none;stroke-width:1;stroke-linecap:butt;stroke-linejoin:miter;stroke-miterlimit:4;stroke-dasharray:2, 1;stroke-dashoffset:0;stroke-opacity:1;color-rendering:auto;image-rendering:auto;shape-rendering:auto;text-rendering:auto;enable-background:accumulate"
       d="M 200 242.5 L 199.98828 242.50195 L 199.62305 242.50977 L 199.64648 243.50977 L 199.98828 243.5 L 200 243.5 L 200.01172 243.5 L 201.62109 243.54297 L 201.64648 242.54297 L 200.01172 242.50195 L 200 242.5 z M 198.62305 242.53516 L 198.08398 242.54883 L 198.07031 242.54883 L 198.05859 242.55078 L 196.60156 242.66211 L 196.67773 243.6582 L 198.10938 243.54883 L 198.64844 243.53516 L 198.62305 242.53516 z M 202.66992 242.60547 L 202.59375 243.60352 L 203.74609 243.69141 L 204.55859 243.79492 L 204.68555 242.80273 L 203.8457 242.69531 L 203.83398 242.69336 L 203.82031 242.69336 L 202.66992 242.60547 z M 195.58203 242.76758 L 194.30273 242.93164 L 194.28906 242.93359 L 194.27734 242.93555 L 193.57812 243.06055 L 193.75391 244.04492 L 194.42773 243.92383 L 194.43945 243.92188 L 194.45312 243.91992 L 195.70898 243.75977 L 195.58203 242.76758 z M 205.67773 242.92578 L 205.56055 243.8418 L 205.54688 243.91992 L 205.55078 243.91992 L 205.57227 243.92383 L 207.34375 244.24023 L 207.46875 244.26953 L 207.69336 243.29492 L 207.56836 243.26562 L 207.55664 243.26172 L 207.54492 243.25977 L 205.72266 242.93555 L 205.71094 242.93359 L 205.69727 242.92969 L 205.67773 242.92578 z M 192.59375 243.23633 L 192.45508 243.25977 L 192.44336 243.26172 L 192.43164 243.26562 L 190.64062 243.67773 L 190.62891 243.68164 L 190.61719 243.68555 L 190.5957 243.69141 L 190.84961 244.58203 L 190.86523 244.65234 L 190.86914 244.65234 L 190.89062 244.64648 L 192.65625 244.24023 L 192.76953 244.2207 L 192.59375 243.23633 z M 208.66797 243.51758 L 208.44336 244.49414 L 209.10938 244.64648 L 210.35156 245 L 210.625 244.03711 L 209.38281 243.68555 L 209.37109 243.68164 L 209.35938 243.67578 L 208.66797 243.51758 z M 189.63281 243.96289 L 188.86133 244.18359 L 188.84961 244.1875 L 188.83789 244.19141 L 187.70312 244.57422 L 188.02344 245.52148 L 189.1582 245.13867 L 189.90625 244.92578 L 189.63281 243.96289 z M 211.60352 244.33789 L 211.2832 245.28711 L 212.53906 245.71094 L 213.14453 245.94922 L 213.51172 245.01953 L 212.9043 244.78125 L 212.89453 244.77344 L 212.88281 244.76953 L 211.60352 244.33789 z M 186.74023 244.91992 L 185.41406 245.44336 L 185.40234 245.44727 L 185.39258 245.45312 L 184.86719 245.68945 L 185.2793 246.60156 L 185.78125 246.37305 L 185.79492 246.36719 L 185.80469 246.36328 L 187.10742 245.85156 L 186.74023 244.91992 z M 214.44141 245.38672 L 214.07422 246.31641 L 214.19531 246.36328 L 214.20508 246.36719 L 214.21875 246.37305 L 215.8125 247.09375 L 215.82812 247.10156 L 215.83594 247.10547 L 215.85352 247.11523 L 216.31055 246.22461 L 216.26953 246.20508 L 216.25781 246.19922 L 216.24609 246.19336 L 214.60742 245.45312 L 214.59766 245.44727 L 214.58594 245.44336 L 214.44141 245.38672 z M 183.95703 246.10156 L 183.75391 246.19336 L 183.74219 246.19922 L 183.73047 246.20508 L 182.15039 247.01367 L 182.60547 247.9043 L 184.16406 247.10547 L 184.16797 247.10352 L 184.1875 247.09375 L 184.36914 247.01367 L 183.95703 246.10156 z M 217.19922 246.68164 L 216.74414 247.57227 L 217.38672 247.90039 L 217.39844 247.90625 L 217.4082 247.91211 L 218.47461 248.52539 L 218.97266 247.6582 L 217.88477 247.0332 L 217.875 247.02734 L 217.86523 247.02148 L 217.19922 246.68164 z M 181.26172 247.52344 L 180.56445 247.92383 L 180.55469 247.92969 L 180.54492 247.9375 L 179.53711 248.58203 L 180.07617 249.42383 L 181.08398 248.7793 L 181.75977 248.39062 L 181.26172 247.52344 z M 219.84766 248.18555 L 219.30859 249.0293 L 220.39648 249.72656 L 220.41797 249.74023 L 220.95312 250.12305 L 221.5332 249.30859 L 220.97656 248.91211 L 220.9668 248.90625 L 220.95703 248.89648 L 219.84766 248.18555 z M 178.68555 249.15234 L 177.57227 249.94336 L 177.5625 249.95117 L 177.55273 249.95898 L 177.05469 250.34961 L 177.67383 251.13672 L 178.15234 250.75977 L 179.26562 249.9668 L 178.68555 249.15234 z M 222.34766 249.88672 L 221.76953 250.70312 L 221.82812 250.74414 L 221.84766 250.75977 L 223.22656 251.84375 L 223.30273 251.91016 L 223.95703 251.1543 L 223.86328 251.07227 L 223.85352 251.0625 L 223.84375 251.05469 L 222.44727 249.95703 L 222.4375 249.94922 L 222.42773 249.94141 L 222.34766 249.88672 z M 176.26953 250.9668 L 176.15625 251.05664 L 176.14648 251.06445 L 176.13672 251.07227 L 174.79492 252.23438 L 174.78516 252.24219 L 174.77734 252.25 L 174.71875 252.30664 L 175.41016 253.0293 L 175.44922 252.99023 L 175.46289 252.97852 L 175.4668 252.97461 L 176.77344 251.84375 L 176.79102 251.82812 L 176.88672 251.75391 L 176.26953 250.9668 z M 224.71289 251.80664 L 224.05859 252.56445 L 224.5332 252.97461 L 224.53711 252.97852 L 224.55078 252.99023 L 225.50977 253.90625 L 226.19922 253.18164 L 225.22266 252.25 L 225.21484 252.24219 L 225.20508 252.23242 L 224.71289 251.80664 z M 173.99609 252.99609 L 173.49219 253.47656 L 173.48242 253.48438 L 173.47461 253.49219 L 172.57422 254.4375 L 173.29883 255.12695 L 174.19922 254.18359 L 174.68555 253.7207 L 173.99609 252.99609 z M 226.91992 253.90625 L 226.19727 254.59766 L 227.00977 255.45117 L 227.02148 255.46484 L 227.02539 255.46875 L 227.5332 256.05469 L 228.28906 255.39844 L 227.76562 254.79492 L 227.75781 254.78711 L 227.75 254.77539 L 226.91992 253.90625 z M 171.88672 255.19531 L 171.07031 256.13867 L 171.0625 256.14648 L 171.05664 256.15625 L 170.58984 256.74805 L 171.37695 257.36719 L 171.82617 256.79297 L 171.83008 256.78906 L 171.8418 256.77344 L 172.64258 255.84961 L 171.88672 255.19531 z M 228.95703 256.17188 L 228.17188 256.79102 L 229.24219 258.15234 L 229.25586 258.17188 L 229.38281 258.35156 L 230.19922 257.77344 L 230.05664 257.57422 L 230.05078 257.5625 L 230.04297 257.55273 L 228.95703 256.17188 z M 169.97266 257.53516 L 169.95703 257.55469 L 169.94922 257.56445 L 169.94336 257.57422 L 168.91211 259.02344 L 168.9043 259.0332 L 168.89844 259.04492 L 168.79297 259.20898 L 169.63477 259.74805 L 169.72656 259.60352 L 169.73828 259.58789 L 169.74023 259.58398 L 170.74414 258.17188 L 170.75977 258.15234 L 170.75781 258.15234 L 169.97266 257.53516 z M 230.77734 258.58594 L 229.96289 259.16797 L 230.25977 259.58398 L 230.26172 259.58789 L 230.27344 259.60352 L 231.05078 260.81641 L 231.89258 260.27734 L 231.10156 259.04492 L 231.0957 259.0332 L 231.08789 259.02148 L 230.77734 258.58594 z M 168.25391 260.05078 L 167.93555 260.54492 L 167.92969 260.55469 L 167.92383 260.56641 L 167.21875 261.78906 L 168.08594 262.28906 L 168.79102 261.06445 L 169.0957 260.58984 L 168.25391 260.05078 z M 232.41602 261.15625 L 231.54883 261.6543 L 232.08984 262.5918 L 232.0957 262.60156 L 232.10156 262.61328 L 232.49609 263.38867 L 233.38672 262.93164 L 232.97852 262.13672 L 232.97461 262.125 L 232.9668 262.11523 L 232.41602 261.15625 z M 233.84961 263.8457 L 232.9375 264.25781 L 233.62695 265.78125 L 233.63281 265.79492 L 233.63672 265.80469 L 233.73828 266.06445 L 234.66797 265.69727 L 234.55664 265.41602 L 234.55273 265.4043 L 234.54883 265.39258 L 233.84961 263.8457 z M 235.03516 266.62695 L 234.10547 266.99414 L 234.28906 267.46289 L 234.76172 268.85742 L 235.70898 268.53711 L 235.22852 267.11914 L 235.22461 267.10742 L 235.2207 267.0957 L 235.03516 266.62695 z M 236.00391 269.51758 L 235.04102 269.79102 L 235.34766 270.86719 L 235.35156 270.88281 L 235.35352 270.89062 L 235.54102 271.70117 L 236.51562 271.47656 L 236.32227 270.64062 L 236.32031 270.62891 L 236.31641 270.61719 L 236.00391 269.51758 z M 236.74414 272.47461 L 235.75977 272.65039 L 236.07812 274.42969 L 236.07812 274.43555 L 236.08203 274.45312 L 236.09961 274.5957 L 237.0918 274.4707 L 237.07031 274.30273 L 237.06836 274.29102 L 237.06641 274.27734 L 236.74414 272.47461 z M 237.2168 275.46289 L 236.22461 275.58789 L 236.3125 276.28125 L 236.4082 277.55469 L 237.40625 277.47852 L 237.30664 276.17969 L 237.30664 276.16797 L 237.30469 276.1543 L 237.2168 275.46289 z M 237.46289 278.50195 L 236.46289 278.52734 L 236.5 279.98828 L 236.5 280 L 237.07227 280 L 237.5 279.98828 L 237.46289 278.50195 z "
       transform="translate(0,452.36219)"
       id="path4340" />
  </g>
</svg>
