<?xml version="1.0" encoding="UTF-8" standalone="no"?>
<!-- Created with Inkscape (http://www.inkscape.org/) -->

<svg
   xmlns:dc="http://purl.org/dc/elements/1.1/"
   xmlns:cc="http://creativecommons.org/ns#"
   xmlns:rdf="http://www.w3.org/1999/02/22-rdf-syntax-ns#"
   xmlns:svg="http://www.w3.org/2000/svg"
   xmlns="http://www.w3.org/2000/svg"
   xmlns:sodipodi="http://sodipodi.sourceforge.net/DTD/sodipodi-0.dtd"
   xmlns:inkscape="http://www.inkscape.org/namespaces/inkscape"
   width="900"
   height="350"
   viewBox="0 0 900 350"
   id="svg2"
   version="1.1"
   inkscape:version="0.91 r13725"
   sodipodi:docname="interference_para1d.svg"
   inkscape:export-filename="/home/pospelov/development/git/gisas/artwork/website/tutorials/interference/interference_para1d_b.png"
   inkscape:export-xdpi="90"
   inkscape:export-ydpi="90">
  <sodipodi:namedview
     id="base"
     pagecolor="#ffffff"
     bordercolor="#666666"
     borderopacity="1.0"
     inkscape:pageopacity="1"
     inkscape:pageshadow="2"
     inkscape:zoom="1.7471636"
     inkscape:cx="177.8752"
     inkscape:cy="183.35763"
     inkscape:document-units="px"
     inkscape:current-layer="layer1"
     showgrid="true"
     inkscape:window-width="2466"
     inkscape:window-height="1365"
     inkscape:window-x="0"
     inkscape:window-y="0"
     inkscape:window-maximized="1"
     inkscape:snap-bbox="true"
     inkscape:snap-global="true"
     objecttolerance="20"
     guidetolerance="10000"
     showguides="true"
     units="px"
     inkscape:snap-bbox-midpoints="true"
     inkscape:bbox-nodes="false"
     inkscape:object-paths="true">
    <inkscape:grid
       type="xygrid"
       id="grid4174"
       units="px"
       spacingx="20"
       spacingy="20" />
  </sodipodi:namedview>
  <defs
     id="defs4">
    <marker
       inkscape:stockid="Arrow2Mend"
       orient="auto"
       refY="0"
       refX="0"
       id="marker4555"
       style="overflow:visible"
       inkscape:isstock="true">
      <path
         inkscape:connector-curvature="0"
         id="path4557"
         style="fill:#000000;fill-opacity:1;fill-rule:evenodd;stroke:#000000;stroke-width:0.625;stroke-linejoin:round;stroke-opacity:1"
         d="M 8.7185878,4.0337352 -2.2072895,0.01601326 8.7185884,-4.0017078 c -1.7454984,2.3720609 -1.7354408,5.6174519 -6e-7,8.035443 z"
         transform="scale(-0.6,-0.6)" />
    </marker>
    <marker
       inkscape:stockid="Arrow1Lend"
       orient="auto"
       refY="0"
       refX="0"
       id="marker14069"
       style="overflow:visible"
       inkscape:isstock="true">
      <path
         id="path14071"
         d="M 0,0 5,-5 -12.5,0 5,5 0,0 Z"
         style="fill:#000000;fill-opacity:1;fill-rule:evenodd;stroke:#000000;stroke-width:1pt;stroke-opacity:1"
         transform="matrix(-0.8,0,0,-0.8,-10,0)"
         inkscape:connector-curvature="0" />
    </marker>
    <marker
       inkscape:isstock="true"
       style="overflow:visible"
       id="marker14005"
       refX="0"
       refY="0"
       orient="auto"
       inkscape:stockid="Arrow1Lend">
      <path
         transform="matrix(-0.8,0,0,-0.8,-10,0)"
         style="fill:#000000;fill-opacity:1;fill-rule:evenodd;stroke:#000000;stroke-width:1pt;stroke-opacity:1"
         d="M 0,0 5,-5 -12.5,0 5,5 0,0 Z"
         id="path14007"
         inkscape:connector-curvature="0" />
    </marker>
    <marker
       inkscape:isstock="true"
       style="overflow:visible"
       id="marker13937"
       refX="0"
       refY="0"
       orient="auto"
       inkscape:stockid="Arrow1Lend">
      <path
         transform="matrix(-0.8,0,0,-0.8,-10,0)"
         style="fill:#000000;fill-opacity:1;fill-rule:evenodd;stroke:#000000;stroke-width:1pt;stroke-opacity:1"
         d="M 0,0 5,-5 -12.5,0 5,5 0,0 Z"
         id="path13939"
         inkscape:connector-curvature="0" />
    </marker>
    <marker
       inkscape:isstock="true"
       style="overflow:visible"
       id="marker13261"
       refX="0"
       refY="0"
       orient="auto"
       inkscape:stockid="Arrow1Mstart">
      <path
         transform="matrix(0.4,0,0,0.4,4,0)"
         style="fill:#000000;fill-opacity:1;fill-rule:evenodd;stroke:#000000;stroke-width:1pt;stroke-opacity:1"
         d="M 0,0 5,-5 -12.5,0 5,5 0,0 Z"
         id="path13263"
         inkscape:connector-curvature="0" />
    </marker>
    <marker
       inkscape:isstock="true"
       style="overflow:visible"
       id="Arrow1Lstart"
       refX="0"
       refY="0"
       orient="auto"
       inkscape:stockid="Arrow1Lstart">
      <path
         transform="matrix(0.8,0,0,0.8,10,0)"
         style="fill:#000000;fill-opacity:1;fill-rule:evenodd;stroke:#000000;stroke-width:1pt;stroke-opacity:1"
         d="M 0,0 5,-5 -12.5,0 5,5 0,0 Z"
         id="path12534"
         inkscape:connector-curvature="0" />
    </marker>
    <marker
       inkscape:isstock="true"
       style="overflow:visible"
       id="marker13129"
       refX="0"
       refY="0"
       orient="auto"
       inkscape:stockid="Arrow1Mend">
      <path
         transform="matrix(-0.4,0,0,-0.4,-4,0)"
         style="fill:#0000ae;fill-opacity:1;fill-rule:evenodd;stroke:#0000ae;stroke-width:1pt;stroke-opacity:1"
         d="M 0,0 5,-5 -12.5,0 5,5 0,0 Z"
         id="path13131"
         inkscape:connector-curvature="0" />
    </marker>
    <marker
       inkscape:isstock="true"
       style="overflow:visible"
       id="Arrow1Mstart"
       refX="0"
       refY="0"
       orient="auto"
       inkscape:stockid="Arrow1Mstart">
      <path
         transform="matrix(0.4,0,0,0.4,4,0)"
         style="fill:#000000;fill-opacity:1;fill-rule:evenodd;stroke:#000000;stroke-width:1pt;stroke-opacity:1"
         d="M 0,0 5,-5 -12.5,0 5,5 0,0 Z"
         id="path12540"
         inkscape:connector-curvature="0" />
    </marker>
    <marker
       inkscape:isstock="true"
       style="overflow:visible"
       id="marker12790"
       refX="0"
       refY="0"
       orient="auto"
       inkscape:stockid="Arrow1Lend">
      <path
         transform="matrix(-0.8,0,0,-0.8,-10,0)"
         style="fill:#000000;fill-opacity:1;fill-rule:evenodd;stroke:#000000;stroke-width:1pt;stroke-opacity:1"
         d="M 0,0 5,-5 -12.5,0 5,5 0,0 Z"
         id="path12537"
         inkscape:connector-curvature="0" />
    </marker>
    <marker
       inkscape:stockid="Arrow1Lend"
       orient="auto"
       refY="0"
       refX="0"
       id="Arrow1Lend"
       style="overflow:visible"
       inkscape:isstock="true">
      <path
         id="path7423"
         d="M 0,0 5,-5 -12.5,0 5,5 0,0 Z"
         style="fill-rule:evenodd;stroke:#000000;stroke-width:1pt"
         transform="matrix(-0.8,0,0,-0.8,-10,0)"
         inkscape:connector-curvature="0" />
    </marker>
    <marker
       inkscape:isstock="true"
       style="overflow:visible"
       id="marker7048"
       refX="0"
       refY="0"
       orient="auto"
       inkscape:stockid="Arrow1Lend">
      <path
         transform="matrix(-0.8,0,0,-0.8,-10,0)"
         style="fill:#000000;fill-opacity:1;fill-rule:evenodd;stroke:#000000;stroke-width:1pt;stroke-opacity:1"
         d="M 0,0 5,-5 -12.5,0 5,5 0,0 Z"
         id="path7050"
         inkscape:connector-curvature="0" />
    </marker>
    <marker
       inkscape:isstock="true"
       style="overflow:visible"
       id="marker5394"
       refX="0"
       refY="0"
       orient="auto"
       inkscape:stockid="Arrow1Lend">
      <path
         transform="matrix(-0.8,0,0,-0.8,-10,0)"
         style="fill:#000000;fill-opacity:1;fill-rule:evenodd;stroke:#000000;stroke-width:1pt;stroke-opacity:1"
         d="M 0,0 5,-5 -12.5,0 5,5 0,0 Z"
         id="path5396"
         inkscape:connector-curvature="0" />
    </marker>
    <marker
       inkscape:isstock="true"
       style="overflow:visible"
       id="marker4547"
       refX="0"
       refY="0"
       orient="auto"
       inkscape:stockid="Arrow2Mend">
      <path
         transform="scale(-0.6,-0.6)"
         d="M 8.7185878,4.0337352 -2.2072895,0.01601326 8.7185884,-4.0017078 c -1.7454984,2.3720609 -1.7354408,5.6174519 -6e-7,8.035443 z"
         style="fill:#000000;fill-opacity:1;fill-rule:evenodd;stroke:#000000;stroke-width:0.625;stroke-linejoin:round;stroke-opacity:1"
         id="path4549"
         inkscape:connector-curvature="0" />
    </marker>
    <marker
       inkscape:isstock="true"
       style="overflow:visible"
       id="marker4421"
       refX="0"
       refY="0"
       orient="auto"
       inkscape:stockid="Arrow2Mend"
       inkscape:collect="always">
      <path
         transform="scale(-0.6,-0.6)"
         d="M 8.7185878,4.0337352 -2.2072895,0.01601326 8.7185884,-4.0017078 c -1.7454984,2.3720609 -1.7354408,5.6174519 -6e-7,8.035443 z"
         style="fill:#000000;fill-opacity:1;fill-rule:evenodd;stroke:#000000;stroke-width:0.625;stroke-linejoin:round;stroke-opacity:1"
         id="path4423"
         inkscape:connector-curvature="0" />
    </marker>
    <marker
       inkscape:stockid="Arrow1Lend"
       orient="auto"
       refY="0"
       refX="0"
       id="marker4319"
       style="overflow:visible"
       inkscape:isstock="true">
      <path
         id="path4321"
         d="M 0,0 5,-5 -12.5,0 5,5 0,0 Z"
         style="fill:#000000;fill-opacity:1;fill-rule:evenodd;stroke:#000000;stroke-width:1pt;stroke-opacity:1"
         transform="matrix(-0.8,0,0,-0.8,-10,0)"
         inkscape:connector-curvature="0" />
    </marker>
    <marker
       inkscape:isstock="true"
       style="overflow:visible"
       id="marker5444"
       refX="0"
       refY="0"
       orient="auto"
       inkscape:stockid="Arrow2Mend">
      <path
         transform="scale(-0.6,-0.6)"
         d="M 8.7185878,4.0337352 -2.2072895,0.01601326 8.7185884,-4.0017078 c -1.7454984,2.3720609 -1.7354408,5.6174519 -6e-7,8.035443 z"
         style="fill:#000000;fill-opacity:1;fill-rule:evenodd;stroke:#000000;stroke-width:0.625;stroke-linejoin:round;stroke-opacity:1"
         id="path5446"
         inkscape:connector-curvature="0" />
    </marker>
    <marker
       inkscape:collect="always"
       inkscape:stockid="Arrow1Mend"
       orient="auto"
       refY="0"
       refX="0"
       id="Arrow1Mend"
       style="overflow:visible"
       inkscape:isstock="true">
      <path
         id="path4258"
         d="M 0,0 5,-5 -12.5,0 5,5 0,0 Z"
         style="fill:#000000;fill-opacity:1;fill-rule:evenodd;stroke:#000000;stroke-width:1pt;stroke-opacity:1"
         transform="matrix(-0.4,0,0,-0.4,-4,0)"
         inkscape:connector-curvature="0" />
    </marker>
    <marker
       inkscape:stockid="Arrow2Mend"
       orient="auto"
       refY="0"
       refX="0"
       id="marker6350"
       style="overflow:visible"
       inkscape:isstock="true">
      <path
         id="path6352"
         style="fill:#000000;fill-opacity:1;fill-rule:evenodd;stroke:#000000;stroke-width:0.625;stroke-linejoin:round;stroke-opacity:1"
         d="M 8.7185878,4.0337352 -2.2072895,0.01601326 8.7185884,-4.0017078 c -1.7454984,2.3720609 -1.7354408,5.6174519 -6e-7,8.035443 z"
         transform="scale(-0.6,-0.6)"
         inkscape:connector-curvature="0" />
    </marker>
    <marker
       inkscape:stockid="Arrow2Lend"
       orient="auto"
       refY="0"
       refX="0"
       id="marker6304"
       style="overflow:visible"
       inkscape:isstock="true">
      <path
         id="path6306"
         style="fill:#000000;fill-opacity:1;fill-rule:evenodd;stroke:#000000;stroke-width:0.625;stroke-linejoin:round;stroke-opacity:1"
         d="M 8.7185878,4.0337352 -2.2072895,0.01601326 8.7185884,-4.0017078 c -1.7454984,2.3720609 -1.7354408,5.6174519 -6e-7,8.035443 z"
         transform="matrix(-1.1,0,0,-1.1,-1.1,0)"
         inkscape:connector-curvature="0" />
    </marker>
    <marker
       inkscape:isstock="true"
       style="overflow:visible"
       id="marker5734"
       refX="0"
       refY="0"
       orient="auto"
       inkscape:stockid="Arrow2Mend">
      <path
         transform="scale(-0.6,-0.6)"
         d="M 8.7185878,4.0337352 -2.2072895,0.01601326 8.7185884,-4.0017078 c -1.7454984,2.3720609 -1.7354408,5.6174519 -6e-7,8.035443 z"
         style="fill:#000000;fill-opacity:1;fill-rule:evenodd;stroke:#000000;stroke-width:0.625;stroke-linejoin:round;stroke-opacity:1"
         id="path5736"
         inkscape:connector-curvature="0" />
    </marker>
    <marker
       inkscape:stockid="Arrow2Lend"
       orient="auto"
       refY="0"
       refX="0"
       id="Arrow2Lend"
       style="overflow:visible"
       inkscape:isstock="true">
      <path
         id="path4207"
         style="fill:#000000;fill-opacity:1;fill-rule:evenodd;stroke:#000000;stroke-width:0.625;stroke-linejoin:round;stroke-opacity:1"
         d="M 8.7185878,4.0337352 -2.2072895,0.01601326 8.7185884,-4.0017078 c -1.7454984,2.3720609 -1.7354408,5.6174519 -6e-7,8.035443 z"
         transform="matrix(-1.1,0,0,-1.1,-1.1,0)"
         inkscape:connector-curvature="0" />
    </marker>
  </defs>
  <metadata
     id="metadata7">
    <rdf:RDF>
      <cc:Work
         rdf:about="">
        <dc:format>image/svg+xml</dc:format>
        <dc:type
           rdf:resource="http://purl.org/dc/dcmitype/StillImage" />
        <dc:title />
      </cc:Work>
    </rdf:RDF>
  </metadata>
  <g
     inkscape:label="Layer 1"
     inkscape:groupmode="layer"
     id="layer1"
     transform="translate(0,-702.36219)">
    <path
       style="fill:none;fill-rule:evenodd;stroke:#000000;stroke-width:1.99999976;stroke-linecap:butt;stroke-linejoin:miter;stroke-miterlimit:4;stroke-dasharray:none;stroke-opacity:1"
       d="m 60.932849,952.39951 558.134301,0"
       id="path4180"
       inkscape:connector-curvature="0" />
    <text
       xml:space="preserve"
       style="font-style:normal;font-weight:normal;font-size:22.5px;line-height:125%;font-family:sans-serif;letter-spacing:0px;word-spacing:0px;baseline-shift:baseline;fill:#000000;fill-opacity:1;stroke:none;stroke-width:1px;stroke-linecap:butt;stroke-linejoin:miter;stroke-opacity:1"
       x="306.82162"
       y="308.49203"
       id="text6836"
       sodipodi:linespacing="125%"><tspan
         sodipodi:role="line"
         id="tspan6838"
         x="0"
         y="0"
         style="font-size:22.5px"><tspan
           style="font-size:22.5px"
           id="tspan6840" /></tspan></text>
    <path
       inkscape:connector-curvature="0"
       style="fill:none;fill-opacity:1;stroke:#0000d8;stroke-width:1;stroke-miterlimit:4;stroke-dasharray:none;stroke-dashoffset:0;stroke-opacity:1"
       d="m 231.03623,952.69828 c 0.15376,-0.003 0.30753,-0.006 0.46129,-0.01 0.15377,-0.003 0.30753,-0.007 0.4613,-0.0107 0.15376,-0.004 0.30753,-0.008 0.46129,-0.0117 0.15377,-0.004 0.30754,-0.008 0.4613,-0.0128 0.15377,-0.004 0.30753,-0.009 0.4613,-0.0139 0.15376,-0.005 0.30753,-0.01 0.46129,-0.0152 0.15377,-0.005 0.30753,-0.0108 0.4613,-0.0165 0.15376,-0.006 0.30753,-0.0117 0.4613,-0.0179 0.15376,-0.006 0.30753,-0.0127 0.46129,-0.0195 0.15377,-0.007 0.30753,-0.0138 0.4613,-0.0211 0.15376,-0.007 0.30753,-0.015 0.46129,-0.0229 0.15377,-0.008 0.30753,-0.0163 0.4613,-0.0249 0.15377,-0.009 0.30753,-0.0176 0.4613,-0.0269 0.15376,-0.009 0.30753,-0.0191 0.46129,-0.0292 0.15377,-0.0101 0.30753,-0.0206 0.4613,-0.0316 0.15376,-0.0109 0.30753,-0.0223 0.46129,-0.0341 0.15377,-0.0118 0.30754,-0.0241 0.4613,-0.0369 0.15377,-0.0128 0.30753,-0.026 0.4613,-0.0398 0.15376,-0.0138 0.30753,-0.0281 0.46129,-0.043 0.15377,-0.0149 0.30753,-0.0303 0.4613,-0.0463 0.15376,-0.016 0.30753,-0.0327 0.4613,-0.0499 0.15376,-0.0173 0.30753,-0.0352 0.46129,-0.0537 0.15377,-0.0186 0.30753,-0.0378 0.4613,-0.0578 0.15376,-0.02 0.30753,-0.0407 0.46129,-0.0622 0.15377,-0.0215 0.30753,-0.0437 0.4613,-0.0668 0.15377,-0.0231 0.30753,-0.047 0.4613,-0.0717 0.15376,-0.0248 0.30753,-0.0504 0.46129,-0.077 0.15377,-0.0266 0.30753,-0.0541 0.4613,-0.0825 0.15376,-0.0285 0.30753,-0.0579 0.46129,-0.0884 0.15377,-0.0305 0.30753,-0.062 0.4613,-0.0947 0.15377,-0.0326 0.30753,-0.0664 0.4613,-0.1013 0.15376,-0.0349 0.30753,-0.071 0.46129,-0.1083 0.15377,-0.0373 0.30753,-0.0759 0.4613,-0.11572 0.15376,-0.0399 0.30753,-0.081 0.46129,-0.12355 0.15377,-0.0425 0.30754,-0.0865 0.4613,-0.13182 0.15377,-0.0454 0.30753,-0.0922 0.4613,-0.14054 0.15376,-0.0484 0.30753,-0.0982 0.46129,-0.14974 0.15377,-0.0515 0.30753,-0.10461 0.4613,-0.15941 0.15376,-0.0548 0.30753,-0.11132 0.4613,-0.1696 0.15376,-0.0583 0.30753,-0.11836 0.46129,-0.18031 0.15377,-0.0619 0.30753,-0.12576 0.4613,-0.19155 0.15376,-0.0658 0.30753,-0.13353 0.46129,-0.20334 0.15377,-0.0698 0.30753,-0.14169 0.4613,-0.21572 0.15377,-0.074 0.30753,-0.15023 0.4613,-0.22868 0.15376,-0.0784 0.30753,-0.15916 0.46129,-0.24223 0.15377,-0.0831 0.30753,-0.16851 0.4613,-0.25641 0.15376,-0.0879 0.30753,-0.17828 0.46129,-0.27122 0.15377,-0.0929 0.30754,-0.18847 0.4613,-0.28667 0.15377,-0.0982 0.30753,-0.19911 0.4613,-0.30279 0.15376,-0.10369 0.30753,-0.21018 0.46129,-0.31958 0.15377,-0.10939 0.30753,-0.22171 0.4613,-0.33704 0.15376,-0.11533 0.30753,-0.2337 0.4613,-0.3552 0.15376,-0.1215 0.30753,-0.24615 0.46129,-0.37406 0.15377,-0.12791 0.30753,-0.25909 0.4613,-0.39363 0.15376,-0.13455 0.30753,-0.27249 0.46129,-0.41392 0.15377,-0.14143 0.30753,-0.28638 0.4613,-0.43493 0.15377,-0.14855 0.30753,-0.30074 0.4613,-0.45666 0.15376,-0.15592 0.30753,-0.31559 0.46129,-0.47911 0.15377,-0.16353 0.30753,-0.33093 0.4613,-0.5023 0.15376,-0.17137 0.30753,-0.34674 0.46129,-0.52621 0.15377,-0.17946 0.30754,-0.36303 0.4613,-0.55082 0.15377,-0.18779 0.30753,-0.37982 0.4613,-0.57617 0.15376,-0.19635 0.30753,-0.39706 0.46129,-0.60221 0.15377,-0.20515 0.30753,-0.41477 0.4613,-0.62894 0.15376,-0.21418 0.30753,-0.43294 0.4613,-0.65637 0.15376,-0.22343 0.30753,-0.45155 0.46129,-0.68444 0.15377,-0.2329 0.30753,-0.4706 0.4613,-0.71318 0.15376,-0.24258 0.30753,-0.49006 0.46129,-0.74253 0.15377,-0.25247 0.30753,-0.50994 0.4613,-0.77249 0.15377,-0.26255 0.30753,-0.5302 0.4613,-0.80302 0.15376,-0.27282 0.30753,-0.55083 0.46129,-0.8341 0.15377,-0.28326 0.30753,-0.57181 0.4613,-0.86568 0.15376,-0.29388 0.30753,-0.59312 0.46129,-0.89776 0.15377,-0.30465 0.30754,-0.61472 0.4613,-0.93027 0.15377,-0.31555 0.30753,-0.6366 0.4613,-0.96318 0.15376,-0.32657 0.30753,-0.65871 0.46129,-0.99643 0.15377,-0.33772 0.30753,-0.68105 0.4613,-1.03 0.15376,-0.34895 0.30753,-0.70355 0.4613,-1.06381 0.15376,-0.36026 0.30753,-0.72621 0.46129,-1.09784 0.15377,-0.37162 0.30753,-0.74896 0.4613,-1.13199 0.15376,-0.38303 0.30753,-0.77179 0.46129,-1.16624 0.15377,-0.39446 0.30753,-0.79464 0.4613,-1.20051 0.15377,-0.40587 0.30753,-0.81746 0.4613,-1.23472 0.15376,-0.41727 0.30753,-0.84023 0.46129,-1.26883 0.15377,-0.42861 0.30753,-0.86288 0.4613,-1.30275 0.15376,-0.43987 0.30753,-0.88537 0.46129,-1.33641 0.15377,-0.45103 0.30754,-0.90764 0.4613,-1.36972 0.15377,-0.46208 0.30753,-0.92967 0.4613,-1.40264 0.15376,-0.47297 0.30753,-0.95136 0.46129,-1.43504 0.15377,-0.48369 0.30753,-0.97269 0.4613,-1.46688 0.15376,-0.49419 0.30753,-0.99359 0.4613,-1.49805 0.15376,-0.50446 0.30753,-1.014 0.46129,-1.52847 0.15377,-0.51446 0.30753,-1.03387 0.4613,-1.55805 0.15376,-0.52417 0.30753,-1.05314 0.46129,-1.58671 0.15377,-0.53356 0.30753,-1.07175 0.4613,-1.61435 0.15377,-0.5426 0.30753,-1.08964 0.4613,-1.64089 0.15376,-0.55125 0.30753,-1.10674 0.46129,-1.66623 0.15377,-0.55949 0.30753,-1.123 0.4613,-1.69028 0.15376,-0.56729 0.30753,-1.13837 0.46129,-1.71297 0.15377,-0.57461 0.30754,-1.15276 0.4613,-1.73418 0.15377,-0.58142 0.30753,-1.16613 0.4613,-1.75384 0.15376,-0.5877 0.30753,-1.17842 0.46129,-1.77185 0.15377,-0.59343 0.30753,-1.18958 0.4613,-1.78814 0.15376,-0.59856 0.30753,-1.19954 0.4613,-1.80261 0.15376,-0.60307 0.30753,-1.20825 0.46129,-1.81519 0.15377,-0.60694 0.30753,-1.21565 0.4613,-1.82579 0.15376,-0.61013 0.30753,-1.2217 0.46129,-1.83433 0.15377,-0.61264 0.30753,-1.22634 0.4613,-1.84076 0.15377,-0.61441 0.30753,-1.22952 0.4613,-1.84497 0.15376,-0.61544 0.30753,-1.23122 0.46129,-1.84693 0.15377,-0.61571 0.30753,-1.23136 0.4613,-1.84656 0.15376,-0.61519 0.30753,-1.22992 0.46129,-1.8438 0.15377,-0.61387 0.30754,-1.22687 0.4613,-1.8386 0.15377,-0.61172 0.30753,-1.22216 0.4613,-1.83091 0.15376,-0.60874 0.30753,-1.21578 0.46129,-1.82069 0.15377,-0.60491 0.30753,-1.20768 0.4613,-1.8079 0.15376,-0.60021 0.30753,-1.19785 0.4613,-1.7925 0.15376,-0.59465 0.30753,-1.18628 0.46129,-1.77448 0.15377,-0.5882 0.30753,-1.17294 0.4613,-1.7538 0.15376,-0.58087 0.30753,-1.15783 0.46129,-1.73047 0.15377,-0.57264 0.30753,-1.14093 0.4613,-1.70446 0.15377,-0.56352 0.30753,-1.12226 0.4613,-1.67578 0.15376,-0.55352 0.30753,-1.1018 0.46129,-1.64443 0.15377,-0.54263 0.30753,-1.07958 0.4613,-1.61044 0.15376,-0.53086 0.30753,-1.05559 0.46129,-1.57381 0.15377,-0.51821 0.30754,-1.02987 0.4613,-1.53458 0.15377,-0.50471 0.30753,-1.00243 0.4613,-1.49278 0.15376,-0.49035 0.30753,-0.97329 0.46129,-1.44845 0.15377,-0.47516 0.30753,-0.94249 0.4613,-1.40164 0.15376,-0.45915 0.30753,-0.91007 0.4613,-1.35241 0.15376,-0.44234 0.30753,-0.87606 0.46129,-1.30082 0.15377,-0.42476 0.30753,-0.84051 0.4613,-1.24694 0.15376,-0.40643 0.30753,-0.80347 0.46129,-1.19084 0.15377,-0.38737 0.30753,-0.765 0.4613,-1.13261 0.15377,-0.36762 0.30753,-0.72515 0.4613,-1.07235 0.15376,-0.34719 0.30753,-0.68398 0.46129,-1.01012 0.15377,-0.32614 0.30753,-0.64157 0.4613,-0.94606 0.15376,-0.30448 0.30753,-0.59797 0.46129,-0.88025 0.15377,-0.28227 0.30754,-0.55328 0.4613,-0.81282 0.15377,-0.25954 0.30753,-0.50755 0.4613,-0.74387 0.15376,-0.23633 0.30753,-0.46089 0.46129,-0.67355 0.15377,-0.21266 0.30753,-0.41335 0.4613,-0.60195 0.15376,-0.1886 0.30753,-0.36504 0.4613,-0.52923 0.15376,-0.16418 0.30753,-0.31604 0.46129,-0.4555 0.15377,-0.13946 0.30753,-0.26644 0.4613,-0.38091 0.15376,-0.11447 0.30753,-0.21635 0.46129,-0.30561 0.15377,-0.0893 0.30753,-0.16583 0.4613,-0.22971 0.15377,-0.0639 0.30753,-0.115 0.4613,-0.15339 0.15376,-0.0384 0.30753,-0.0639 0.46129,-0.0768 0.15377,-0.0128 0.30753,-0.0128 0.4613,0 0.15376,0.0128 0.30753,0.0384 0.46129,0.0768 0.15377,0.0384 0.30753,0.0895 0.4613,0.15339 0.15377,0.0639 0.30753,0.14048 0.4613,0.22971 0.15376,0.0892 0.30753,0.19117 0.46129,0.30561 0.15377,0.11444 0.30753,0.24148 0.4613,0.38091 0.15376,0.13944 0.30753,0.29134 0.46129,0.4555 0.15377,0.16416 0.30754,0.34065 0.4613,0.52923 0.15377,0.18858 0.30753,0.38931 0.4613,0.60195 0.15376,0.21264 0.30753,0.43725 0.46129,0.67355 0.15377,0.23629 0.30753,0.48435 0.4613,0.74387 0.15376,0.25952 0.30753,0.53057 0.4613,0.81282 0.15376,0.28226 0.30753,0.57579 0.46129,0.88025 0.15377,0.30447 0.30753,0.61994 0.4613,0.94606 0.15376,0.32612 0.30753,0.66295 0.46129,1.01012 0.15377,0.34718 0.30753,0.70475 0.4613,1.07235 0.15377,0.36759 0.30753,0.74526 0.4613,1.13261 0.15376,0.38735 0.30753,0.78443 0.46129,1.19084 0.15377,0.40641 0.30753,0.8222 0.4613,1.24694 0.15376,0.42474 0.30753,0.85849 0.46129,1.30082 0.15377,0.44233 0.30754,0.89328 0.4613,1.35241 0.15377,0.45914 0.30753,0.9265 0.4613,1.40164 0.15376,0.47515 0.30753,0.95812 0.46129,1.44845 0.15377,0.49034 0.30753,0.98809 0.4613,1.49278 0.15376,0.5047 0.30753,1.01638 0.4613,1.53458 0.15376,0.5182 0.30753,1.04296 0.46129,1.57381 0.15377,0.53085 0.30753,1.06782 0.4613,1.61044 0.15376,0.54262 0.30753,1.09092 0.46129,1.64443 0.15377,0.55351 0.30753,1.11226 0.4613,1.67578 0.15377,0.56352 0.30753,1.13183 0.4613,1.70446 0.15376,0.57263 0.30753,1.14961 0.46129,1.73047 0.15377,0.58085 0.30753,1.16561 0.4613,1.7538 0.15376,0.58819 0.30753,1.17984 0.46129,1.77448 0.15377,0.59464 0.30754,1.19229 0.4613,1.7925 0.15377,0.60021 0.30753,1.203 0.4613,1.8079 0.15376,0.60491 0.30753,1.21195 0.46129,1.82069 0.15377,0.60874 0.30753,1.21919 0.4613,1.83091 0.15376,0.61173 0.30753,1.22474 0.4613,1.8386 0.15376,0.61387 0.30753,1.22861 0.46129,1.8438 0.15377,0.6152 0.30753,1.23085 0.4613,1.84656 0.15376,0.61571 0.30753,1.23149 0.46129,1.84693 0.15377,0.61545 0.30753,1.23056 0.4613,1.84497 0.15377,0.61442 0.30753,1.22812 0.4613,1.84076 0.15376,0.61263 0.30753,1.22419 0.46129,1.83433 0.15377,0.61014 0.30753,1.21885 0.4613,1.82579 0.15376,0.60694 0.30753,1.21211 0.46129,1.81519 0.15377,0.60307 0.30754,1.20405 0.4613,1.80261 0.15377,0.59856 0.30753,1.19471 0.4613,1.78814 0.15376,0.59343 0.30753,1.18414 0.46129,1.77185 0.15377,0.58771 0.30753,1.17241 0.4613,1.75384 0.15376,0.58143 0.30753,1.15957 0.4613,1.73418 0.15376,0.57461 0.30753,1.14567 0.46129,1.71297 0.15377,0.56729 0.30753,1.13078 0.4613,1.69028 0.15376,0.5595 0.30753,1.11497 0.46129,1.66623 0.15377,0.55126 0.30753,1.09828 0.4613,1.64089 0.15377,0.54261 0.30753,1.08078 0.4613,1.61435 0.15376,0.53358 0.30753,1.06253 0.46129,1.58671 0.15377,0.52419 0.30753,1.04358 0.4613,1.55805 0.15376,0.51448 0.30753,1.024 0.46129,1.52847 0.15377,0.50447 0.30754,1.00385 0.4613,1.49805 0.15377,0.4942 0.30753,0.98318 0.4613,1.46688 0.15376,0.48369 0.30753,0.96206 0.46129,1.43504 0.15377,0.47298 0.30753,0.94055 0.4613,1.40264 0.15376,0.46209 0.30753,0.91868 0.4613,1.36972 0.15376,0.45105 0.30753,0.89653 0.46129,1.33641 0.15377,0.43988 0.30753,0.87413 0.4613,1.30275 0.15376,0.42861 0.30753,0.85155 0.46129,1.26883 0.15377,0.41727 0.30753,0.82884 0.4613,1.23472 0.15377,0.40588 0.30753,0.80604 0.4613,1.20051 0.15376,0.39446 0.30753,0.78319 0.46129,1.16624 0.15377,0.38304 0.30753,0.76036 0.4613,1.13199 0.15376,0.37164 0.30753,0.73757 0.46129,1.09784 0.15377,0.36027 0.30754,0.71485 0.4613,1.06381 0.15377,0.34897 0.30753,0.69227 0.4613,1.03 0.15376,0.33773 0.30753,0.66985 0.46129,0.99643 0.15377,0.32659 0.30753,0.64762 0.4613,0.96318 0.15376,0.31556 0.30753,0.62561 0.4613,0.93027 0.15376,0.30465 0.30753,0.60387 0.46129,0.89776 0.15377,0.29388 0.30753,0.58241 0.4613,0.86568 0.15376,0.28328 0.30753,0.56127 0.46129,0.8341 0.15377,0.27283 0.30753,0.54046 0.4613,0.80302 0.15377,0.26256 0.30753,0.52001 0.4613,0.77249 0.15376,0.25248 0.30753,0.49994 0.46129,0.74253 0.15377,0.24259 0.30753,0.48027 0.4613,0.71318 0.15376,0.2329 0.30753,0.46101 0.46129,0.68444 0.15377,0.22344 0.30754,0.44218 0.4613,0.65637 0.15377,0.21418 0.30753,0.42378 0.4613,0.62894 0.15376,0.20516 0.30753,0.40585 0.46129,0.60221 0.15377,0.19636 0.30753,0.38837 0.4613,0.57617 0.15376,0.18779 0.30753,0.37136 0.4613,0.55082 0.15376,0.17947 0.30753,0.35483 0.46129,0.52621 0.15377,0.17138 0.30753,0.33876 0.4613,0.5023 0.15376,0.16353 0.30753,0.32318 0.46129,0.47911 0.15377,0.15593 0.30753,0.3081 0.4613,0.45666 0.15377,0.14856 0.30753,0.29349 0.4613,0.43493 0.15376,0.14143 0.30753,0.27936 0.46129,0.41392 0.15377,0.13455 0.30753,0.26572 0.4613,0.39363 0.15376,0.12791 0.30753,0.25255 0.46129,0.37406 0.15377,0.12151 0.30754,0.23986 0.4613,0.3552 0.15377,0.11534 0.30753,0.22764 0.4613,0.33704 0.15376,0.1094 0.30753,0.21588 0.46129,0.31958 0.15377,0.10369 0.30753,0.20458 0.4613,0.30279 0.15376,0.0982 0.30753,0.19372 0.4613,0.28667 0.15376,0.093 0.30753,0.18331 0.46129,0.27122 0.15377,0.0879 0.30753,0.17333 0.4613,0.25641 0.15376,0.0831 0.30753,0.16378 0.46129,0.24223 0.15377,0.0785 0.30753,0.15464 0.4613,0.22868 0.15377,0.074 0.30753,0.1459 0.4613,0.21572 0.15376,0.0698 0.30753,0.13756 0.46129,0.20334 0.15377,0.0658 0.30753,0.12961 0.4613,0.19155 0.15376,0.062 0.30753,0.12202 0.46129,0.18031 0.15377,0.0583 0.30754,0.11479 0.4613,0.1696 0.15377,0.0548 0.30753,0.10791 0.4613,0.15941 0.15376,0.0515 0.30753,0.10138 0.46129,0.14974 0.15377,0.0483 0.30753,0.0952 0.4613,0.14054 0.15376,0.0454 0.30753,0.0893 0.4613,0.13182 0.15376,0.0425 0.30753,0.0837 0.46129,0.12355 0.15377,0.0399 0.30753,0.0784 0.4613,0.11572 0.15376,0.0373 0.30753,0.0734 0.46129,0.1083 0.15377,0.0349 0.30753,0.0687 0.4613,0.1013 0.15377,0.0326 0.30753,0.0642 0.4613,0.0947 0.15376,0.0305 0.30753,0.06 0.46129,0.0884 0.15377,0.0285 0.30753,0.056 0.4613,0.0825 0.15376,0.0266 0.30753,0.0522 0.46129,0.077 0.15377,0.0248 0.30753,0.0487 0.4613,0.0717 0.15377,0.0231 0.30753,0.0453 0.4613,0.0668 0.15376,0.0215 0.30753,0.0422 0.46129,0.0622 0.15377,0.02 0.30753,0.0392 0.4613,0.0578 0.15376,0.0186 0.30753,0.0365 0.46129,0.0537 0.15377,0.0173 0.30754,0.0339 0.4613,0.0499 0.15377,0.016 0.30753,0.0314 0.4613,0.0463 0.15376,0.0149 0.30753,0.0292 0.46129,0.043 0.15377,0.0138 0.30753,0.0271 0.4613,0.0398 0.15376,0.0128 0.30753,0.0251 0.4613,0.0369 0.15376,0.0118 0.30753,0.0232 0.46129,0.0341 0.15377,0.0109 0.30753,0.0215 0.4613,0.0316 0.15376,0.0101 0.30753,0.0198 0.46129,0.0292 0.15377,0.009 0.30753,0.0183 0.4613,0.0269 0.15377,0.009 0.30753,0.0169 0.4613,0.0249 0.15376,0.008 0.30753,0.0156 0.46129,0.0229 0.15377,0.007 0.30753,0.0144 0.4613,0.0211 0.15376,0.007 0.30753,0.0133 0.46129,0.0195 0.15377,0.006 0.30754,0.0122 0.4613,0.0179 0.15377,0.006 0.30753,0.0112 0.4613,0.0165 0.15376,0.005 0.30753,0.0103 0.46129,0.0152 0.15377,0.005 0.30753,0.009 0.4613,0.0139 0.15376,0.004 0.30753,0.009 0.4613,0.0128 0.15376,0.004 0.30753,0.008 0.46129,0.0117 0.15377,0.004 0.30753,0.007 0.4613,0.0107 0.15376,0.003 0.30753,0.007 0.46129,0.01"
       title="t (1/sqrt(2*pi))*exp(-pow(t,2)/2)"
       id="path10060" />
    <path
       inkscape:connector-curvature="0"
       id="path12516"
       d="m 100,970.97918 0,-218.26806"
       style="fill:none;fill-rule:evenodd;stroke:#000000;stroke-width:2;stroke-linecap:butt;stroke-linejoin:miter;stroke-miterlimit:4;stroke-dasharray:none;stroke-opacity:1;marker-end:url(#Arrow1Mend)" />
    <path
       id="path13059"
       title="t (1/sqrt(2*pi))*exp(-pow(t,2)/2)"
       d="m 431.02155,952.83985 c 0.19839,-0.002 0.39678,-0.004 0.59517,-0.007 0.19839,-0.002 0.39678,-0.005 0.59518,-0.007 0.19838,-0.003 0.39678,-0.005 0.59516,-0.008 0.1984,-0.003 0.3968,-0.005 0.59518,-0.009 0.1984,-0.003 0.39678,-0.006 0.59518,-0.009 0.19838,-0.003 0.39678,-0.007 0.59516,-0.0102 0.1984,-0.003 0.39678,-0.007 0.59518,-0.0111 0.19839,-0.004 0.39678,-0.008 0.59518,-0.012 0.19838,-0.004 0.39678,-0.009 0.59517,-0.0131 0.19839,-0.005 0.39678,-0.009 0.59517,-0.0141 0.19839,-0.005 0.39679,-0.0101 0.59517,-0.0154 0.1984,-0.005 0.39678,-0.0109 0.59518,-0.0167 0.1984,-0.006 0.39678,-0.0118 0.59518,-0.0181 0.19838,-0.006 0.39678,-0.0128 0.59516,-0.0196 0.1984,-0.007 0.39678,-0.0138 0.59518,-0.0212 0.19838,-0.007 0.39678,-0.015 0.59517,-0.0229 0.19839,-0.008 0.39679,-0.0162 0.59517,-0.0248 0.1984,-0.009 0.39679,-0.0174 0.59518,-0.0267 0.19839,-0.009 0.39678,-0.0188 0.59517,-0.0288 0.1984,-0.01 0.39678,-0.0203 0.59518,-0.0311 0.19838,-0.0107 0.39678,-0.0219 0.59518,-0.0335 0.19838,-0.0116 0.39678,-0.0236 0.59516,-0.036 0.1984,-0.0125 0.39678,-0.0254 0.59518,-0.0388 0.19838,-0.0134 0.39678,-0.0273 0.59517,-0.0417 0.19839,-0.0144 0.39678,-0.0293 0.59517,-0.0448 0.1984,-0.0155 0.39678,-0.0315 0.59518,-0.0481 0.19839,-0.0166 0.39678,-0.0338 0.59517,-0.0517 0.19839,-0.0178 0.39678,-0.0363 0.59518,-0.0553 0.19838,-0.0191 0.39678,-0.0389 0.59516,-0.0593 0.1984,-0.0205 0.39678,-0.0416 0.59518,-0.0635 0.1984,-0.0219 0.39678,-0.0446 0.59518,-0.068 0.19838,-0.0234 0.39678,-0.0476 0.59516,-0.0727 0.1984,-0.025 0.39679,-0.0509 0.59518,-0.0776 0.19839,-0.0268 0.39678,-0.0543 0.59517,-0.0829 0.1984,-0.0285 0.39679,-0.058 0.59518,-0.0884 0.19839,-0.0305 0.39678,-0.0618 0.59517,-0.0943 0.19839,-0.0325 0.39679,-0.0659 0.59517,-0.10046 0.1984,-0.0345 0.39678,-0.0702 0.59518,-0.10694 0.19838,-0.0368 0.39678,-0.0747 0.59518,-0.11378 0.19838,-0.0391 0.39678,-0.0794 0.59516,-0.12096 0.1984,-0.0415 0.39678,-0.0844 0.59518,-0.12851 0.19839,-0.0441 0.39678,-0.0896 0.59517,-0.13641 0.19839,-0.0468 0.39678,-0.0951 0.59518,-0.14472 0.19839,-0.0496 0.39678,-0.10079 0.59517,-0.15342 0.19839,-0.0526 0.39678,-0.10677 0.59517,-0.1625 0.1984,-0.0557 0.39678,-0.11305 0.59518,-0.17202 0.19838,-0.059 0.39678,-0.1196 0.59516,-0.18195 0.1984,-0.0623 0.3968,-0.12644 0.59518,-0.19232 0.1984,-0.0659 0.39678,-0.13358 0.59518,-0.20314 0.19838,-0.0696 0.39678,-0.141 0.59517,-0.21439 0.19839,-0.0734 0.39678,-0.14874 0.59517,-0.22611 0.19839,-0.0774 0.39679,-0.15678 0.59518,-0.23829 0.19839,-0.0815 0.39678,-0.16514 0.59517,-0.25095 0.1984,-0.0858 0.39678,-0.17382 0.59518,-0.26407 0.19838,-0.0903 0.39678,-0.18281 0.59516,-0.27769 0.1984,-0.0949 0.39678,-0.19212 0.59518,-0.29178 0.1984,-0.0997 0.39678,-0.20176 0.59518,-0.30636 0.19838,-0.1046 0.39678,-0.21172 0.59516,-0.32142 0.1984,-0.10971 0.39679,-0.22201 0.59518,-0.33698 0.19839,-0.11497 0.39678,-0.23262 0.59517,-0.35302 0.1984,-0.12039 0.39679,-0.24354 0.59518,-0.36953 0.19839,-0.12598 0.39678,-0.25481 0.59518,-0.38653 0.19838,-0.13173 0.39678,-0.26638 0.59516,-0.404 0.1984,-0.13763 0.39678,-0.27826 0.59518,-0.42194 0.19838,-0.14369 0.39678,-0.29045 0.59518,-0.44034 0.19838,-0.14989 0.39678,-0.30293 0.59516,-0.45917 0.1984,-0.15625 0.39678,-0.31571 0.59518,-0.47845 0.19839,-0.16274 0.39678,-0.32877 0.59517,-0.49814 0.19839,-0.16938 0.39678,-0.3421 0.59518,-0.51824 0.19839,-0.17614 0.39678,-0.3557 0.59517,-0.53872 0.19839,-0.18303 0.39679,-0.36954 0.59517,-0.55958 0.1984,-0.19003 0.39678,-0.38361 0.59518,-0.58075 0.19838,-0.19716 0.39678,-0.39791 0.59516,-0.60228 0.1984,-0.20438 0.3968,-0.4124 0.59518,-0.62409 0.1984,-0.2117 0.39678,-0.42708 0.59518,-0.64617 0.19838,-0.21909 0.39678,-0.44191 0.59517,-0.66848 0.19839,-0.22656 0.39678,-0.45689 0.59517,-0.69099 0.19839,-0.2341 0.39679,-0.47199 0.59518,-0.71368 0.19839,-0.24169 0.39678,-0.48719 0.59517,-0.73651 0.1984,-0.2493 0.39678,-0.50245 0.59518,-0.75941 0.19838,-0.25697 0.39678,-0.51777 0.59516,-0.7824 0.1984,-0.26463 0.39678,-0.5331 0.59518,-0.80538 0.1984,-0.27229 0.39678,-0.54841 0.59518,-0.82834 0.19838,-0.27993 0.39678,-0.56368 0.59516,-0.85122 0.1984,-0.28754 0.39679,-0.57888 0.59518,-0.87397 0.19839,-0.2951 0.39678,-0.59397 0.59517,-0.89656 0.1984,-0.30258 0.39679,-0.60891 0.59518,-0.9189 0.19839,-0.31 0.39678,-0.62369 0.59518,-0.94099 0.19838,-0.3173 0.39678,-0.63824 0.59516,-0.96273 0.1984,-0.32449 0.39678,-0.65255 0.59518,-0.98408 0.19838,-0.33154 0.39678,-0.66657 0.59518,-1.005 0.19838,-0.33843 0.39678,-0.68026 0.59516,-1.0254 0.1984,-0.34514 0.39678,-0.69359 0.59518,-1.04525 0.19839,-0.35165 0.39678,-0.70652 0.59517,-1.06448 0.19839,-0.35795 0.39678,-0.719 0.59518,-1.08301 0.19839,-0.36402 0.39678,-0.73101 0.59517,-1.10083 0.19839,-0.36981 0.39679,-0.74248 0.59517,-1.11782 0.1984,-0.37535 0.39678,-0.75339 0.59518,-1.13396 0.19838,-0.38058 0.39678,-0.7637 0.59516,-1.14918 0.1984,-0.38549 0.3968,-0.77335 0.59518,-1.16341 0.1984,-0.39005 0.39678,-0.78232 0.59518,-1.17659 0.19839,-0.39427 0.39678,-0.79057 0.59517,-1.18868 0.19839,-0.39812 0.39678,-0.79806 0.59517,-1.19961 0.19839,-0.40156 0.39679,-0.80474 0.59518,-1.20932 0.19839,-0.40458 0.39678,-0.81058 0.59517,-1.21775 0.1984,-0.40718 0.39678,-0.81555 0.59518,-1.22487 0.19838,-0.40932 0.39678,-0.8196 0.59516,-1.2306 0.1984,-0.411 0.39678,-0.82271 0.59518,-1.23491 0.1984,-0.41218 0.39678,-0.82484 0.59518,-1.23773 0.19838,-0.41288 0.39678,-0.82599 0.59517,-1.23905 0.19839,-0.41306 0.39678,-0.82608 0.59517,-1.2388 0.19839,-0.41271 0.39678,-0.82512 0.59517,-1.23695 0.1984,-0.41183 0.39679,-0.82307 0.59518,-1.23346 0.19839,-0.41038 0.39678,-0.81991 0.59518,-1.2283 0.19838,-0.40839 0.39678,-0.81563 0.59516,-1.22145 0.1984,-0.40581 0.39678,-0.81019 0.59518,-1.21286 0.19838,-0.40266 0.39678,-0.8036 0.59518,-1.20254 0.19838,-0.39893 0.39678,-0.79583 0.59516,-1.19044 0.1984,-0.39461 0.39679,-0.78689 0.59518,-1.17657 0.19839,-0.38969 0.39678,-0.77675 0.59517,-1.16092 0.1984,-0.38417 0.39678,-0.76542 0.59518,-1.14347 0.19839,-0.37805 0.39678,-0.75289 0.59517,-1.12423 0.19839,-0.37134 0.39679,-0.73916 0.59517,-1.1032 0.1984,-0.36403 0.39678,-0.72426 0.59518,-1.08039 0.19838,-0.35614 0.39678,-0.70817 0.59516,-1.05582 0.1984,-0.34766 0.3968,-0.69091 0.59518,-1.02951 0.1984,-0.33859 0.39678,-0.6725 0.59518,-1.00146 0.19839,-0.32896 0.39678,-0.65295 0.59517,-0.97172 0.19839,-0.31877 0.39678,-0.63229 0.59518,-0.94032 0.19838,-0.30803 0.39678,-0.61053 0.59517,-0.90729 0.19839,-0.29675 0.39678,-0.58772 0.59517,-0.87268 0.1984,-0.28496 0.39678,-0.56387 0.59518,-0.83653 0.19838,-0.27266 0.39678,-0.53902 0.59516,-0.7989 0.1984,-0.25987 0.39678,-0.51321 0.59518,-0.75983 0.1984,-0.24663 0.39678,-0.48648 0.59518,-0.71941 0.19838,-0.23292 0.39678,-0.45886 0.59517,-0.67766 0.19839,-0.2188 0.39678,-0.43041 0.59517,-0.63468 0.19839,-0.20427 0.39679,-0.40116 0.59517,-0.59053 0.1984,-0.18937 0.39679,-0.37118 0.59518,-0.5453 0.1984,-0.17412 0.39678,-0.3405 0.59518,-0.49904 0.19838,-0.15855 0.39678,-0.3092 0.59516,-0.45186 0.1984,-0.14267 0.39678,-0.27731 0.59518,-0.40383 0.19838,-0.12653 0.39678,-0.2449 0.59518,-0.35505 0.19838,-0.11014 0.39678,-0.21202 0.59516,-0.30558 0.1984,-0.0936 0.39679,-0.17875 0.59518,-0.25554 0.19839,-0.0768 0.39678,-0.14514 0.59517,-0.20502 0.1984,-0.0599 0.39678,-0.11125 0.59518,-0.15411 0.19839,-0.0429 0.39678,-0.0772 0.59518,-0.1029 0.19838,-0.0258 0.39678,-0.0429 0.59516,-0.0515 0.1984,-0.009 0.39678,-0.009 0.59518,0 0.19838,0.009 0.39678,0.0258 0.59516,0.0515 0.1984,0.0258 0.39679,0.06 0.59518,0.1029 0.1984,0.0429 0.39678,0.0942 0.59518,0.15411 0.19839,0.0598 0.39678,0.12825 0.59517,0.20502 0.19839,0.0768 0.39678,0.162 0.59518,0.25554 0.19838,0.0936 0.39678,0.19545 0.59516,0.30558 0.1984,0.11013 0.3968,0.22853 0.59518,0.35505 0.1984,0.12651 0.39678,0.26117 0.59518,0.40383 0.19838,0.14265 0.39678,0.29333 0.59516,0.45186 0.1984,0.15852 0.39678,0.32494 0.59518,0.49904 0.19839,0.1741 0.39678,0.35594 0.59518,0.5453 0.19838,0.18936 0.39678,0.38628 0.59517,0.59053 0.19839,0.20426 0.39678,0.4159 0.59517,0.63468 0.19839,0.21879 0.39679,0.44475 0.59517,0.67766 0.1984,0.23291 0.39678,0.4728 0.59518,0.71941 0.1984,0.2466 0.39678,0.49997 0.59518,0.75983 0.19838,0.25986 0.39678,0.52625 0.59516,0.7989 0.1984,0.27265 0.39678,0.55159 0.59518,0.83653 0.19839,0.28495 0.39678,0.57594 0.59517,0.87268 0.19839,0.29675 0.39679,0.59928 0.59517,0.90729 0.1984,0.30803 0.39679,0.62156 0.59518,0.94032 0.19839,0.31877 0.39678,0.64278 0.59517,0.97172 0.1984,0.32896 0.39678,0.66288 0.59518,1.00146 0.19838,0.33859 0.39678,0.68186 0.59518,1.02951 0.19838,0.34764 0.39678,0.69969 0.59516,1.05582 0.1984,0.35613 0.39678,0.71636 0.59518,1.08039 0.19838,0.36403 0.39678,0.73187 0.59517,1.1032 0.19839,0.37133 0.39678,0.74618 0.59517,1.12423 0.1984,0.37805 0.39678,0.75931 0.59518,1.14347 0.19839,0.38416 0.39678,0.77124 0.59517,1.16092 0.19839,0.38967 0.39678,0.78197 0.59518,1.17657 0.19838,0.3946 0.39678,0.79152 0.59516,1.19044 0.1984,0.39893 0.3968,0.79988 0.59518,1.20254 0.1984,0.40266 0.39678,0.80705 0.59518,1.21286 0.19838,0.40582 0.39678,0.81306 0.59516,1.22145 0.1984,0.40838 0.39679,0.81792 0.59518,1.2283 0.19839,0.41039 0.39678,0.82164 0.59518,1.23346 0.19839,0.41183 0.39678,0.82424 0.59517,1.23695 0.19839,0.41272 0.39678,0.82574 0.59517,1.2388 0.19839,0.41306 0.39679,0.82617 0.59517,1.23905 0.1984,0.41289 0.39678,0.82555 0.59518,1.23773 0.1984,0.4122 0.39678,0.82391 0.59518,1.23491 0.19838,0.411 0.39678,0.82128 0.59516,1.2306 0.1984,0.40932 0.39678,0.81769 0.59518,1.22487 0.19839,0.40717 0.39678,0.81316 0.59517,1.21775 0.19839,0.40458 0.39679,0.80776 0.59518,1.20932 0.19839,0.40155 0.39678,0.80149 0.59517,1.19961 0.19839,0.39811 0.39678,0.7944 0.59517,1.18868 0.1984,0.39427 0.39678,0.78653 0.59518,1.17659 0.19838,0.39007 0.39678,0.77792 0.59518,1.16341 0.19838,0.38549 0.39678,0.7686 0.59516,1.14918 0.1984,0.38058 0.39678,0.75861 0.59518,1.13396 0.19838,0.37535 0.39678,0.748 0.59517,1.11782 0.19839,0.36983 0.39678,0.73681 0.59517,1.10083 0.1984,0.36402 0.39679,0.72506 0.59518,1.08301 0.19839,0.35797 0.39678,0.71282 0.59517,1.06448 0.1984,0.35166 0.39678,0.70011 0.59518,1.04525 0.19838,0.34515 0.39678,0.68697 0.59516,1.0254 0.1984,0.33843 0.3968,0.67345 0.59518,1.005 0.1984,0.33154 0.39678,0.65958 0.59518,0.98408 0.19838,0.3245 0.39678,0.64542 0.59516,0.96273 0.1984,0.3173 0.39679,0.63098 0.59518,0.94099 0.19839,0.31 0.39678,0.61631 0.59518,0.9189 0.19839,0.30259 0.39678,0.60145 0.59517,0.89656 0.19839,0.2951 0.39678,0.58642 0.59518,0.87397 0.19838,0.28754 0.39678,0.57128 0.59516,0.85122 0.1984,0.27993 0.39678,0.55604 0.59518,0.82834 0.1984,0.27229 0.39678,0.54074 0.59518,0.80538 0.19838,0.26463 0.39678,0.52542 0.59516,0.7824 0.1984,0.25697 0.39678,0.5101 0.59518,0.75941 0.19839,0.24933 0.39678,0.49482 0.59517,0.73651 0.19839,0.2417 0.39679,0.47957 0.59518,0.71368 0.19839,0.23411 0.39678,0.46442 0.59517,0.69099 0.19839,0.22658 0.39679,0.44939 0.59517,0.66848 0.1984,0.2191 0.39678,0.43447 0.59518,0.64617 0.19838,0.2117 0.39678,0.4197 0.59518,0.62409 0.19838,0.20438 0.39678,0.40511 0.59516,0.60228 0.1984,0.19715 0.39678,0.39072 0.59518,0.58075 0.19838,0.19005 0.39678,0.37654 0.59517,0.55958 0.19839,0.18303 0.39678,0.36258 0.59517,0.53872 0.1984,0.17614 0.39679,0.34886 0.59518,0.51824 0.19839,0.16938 0.39678,0.33539 0.59517,0.49814 0.1984,0.16275 0.39678,0.3222 0.59518,0.47845 0.19838,0.15625 0.39678,0.30928 0.59516,0.45917 0.1984,0.1499 0.3968,0.29665 0.59518,0.44034 0.1984,0.14369 0.39678,0.2843 0.59518,0.42194 0.19838,0.13763 0.39678,0.27227 0.59516,0.404 0.1984,0.13173 0.39679,0.26055 0.59518,0.38653 0.19839,0.12599 0.39678,0.24914 0.59518,0.36953 0.19839,0.1204 0.39678,0.23805 0.59517,0.35302 0.19839,0.11497 0.39678,0.22726 0.59518,0.33698 0.19838,0.10971 0.39678,0.21681 0.59516,0.32142 0.1984,0.10461 0.39678,0.20669 0.59518,0.30636 0.1984,0.0997 0.39678,0.19689 0.59518,0.29178 0.19838,0.0949 0.39678,0.18741 0.59516,0.27769 0.1984,0.0903 0.39678,0.17826 0.59518,0.26407 0.19839,0.0858 0.39678,0.16943 0.59517,0.25095 0.19839,0.0815 0.39679,0.16091 0.59518,0.23829 0.19839,0.0774 0.39678,0.15272 0.59517,0.22611 0.19839,0.0734 0.39679,0.14483 0.59517,0.21439 0.1984,0.0696 0.39678,0.13725 0.59518,0.20314 0.19838,0.0659 0.39678,0.12996 0.59518,0.19232 0.19838,0.0624 0.39678,0.12297 0.59516,0.18195 0.1984,0.059 0.39678,0.11628 0.59518,0.17202 0.19839,0.0557 0.39678,0.10987 0.59517,0.1625 0.19839,0.0527 0.39678,0.10374 0.59517,0.15342 0.1984,0.0496 0.39679,0.0979 0.59518,0.14472 0.19839,0.0468 0.39678,0.0923 0.59517,0.13641 0.1984,0.0441 0.39678,0.0869 0.59518,0.12851 0.19838,0.0416 0.39678,0.0819 0.59516,0.12096 0.1984,0.0391 0.3968,0.077 0.59518,0.11378 0.1984,0.0368 0.39678,0.0724 0.59518,0.10694 0.19838,0.0346 0.39678,0.068 0.59517,0.10046 0.19839,0.0324 0.39678,0.0639 0.59517,0.0943 0.19839,0.0305 0.39678,0.0599 0.59518,0.0884 0.19839,0.0285 0.39678,0.0562 0.59517,0.0829 0.19839,0.0268 0.39678,0.0526 0.59518,0.0776 0.19838,0.025 0.39678,0.0492 0.59516,0.0727 0.1984,0.0234 0.39678,0.0461 0.59518,0.068 0.1984,0.0219 0.39678,0.0431 0.59518,0.0635 0.19838,0.0205 0.39678,0.0403 0.59516,0.0593 0.1984,0.0191 0.39679,0.0376 0.59518,0.0553 0.19839,0.0178 0.39678,0.035 0.59517,0.0517 0.1984,0.0166 0.39678,0.0327 0.59518,0.0481 0.19839,0.0155 0.39678,0.0304 0.59517,0.0448 0.19839,0.0144 0.39679,0.0283 0.59517,0.0417 0.1984,0.0134 0.39678,0.0263 0.59518,0.0388 0.19838,0.0125 0.39678,0.0245 0.59516,0.036 0.1984,0.0116 0.3968,0.0228 0.59518,0.0335 0.1984,0.0107 0.39678,0.0211 0.59518,0.0311 0.19839,0.01 0.39678,0.0196 0.59517,0.0288 0.19839,0.009 0.39678,0.0182 0.59518,0.0267 0.19838,0.009 0.39678,0.0168 0.59517,0.0248 0.19839,0.008 0.39679,0.0156 0.59517,0.0229 0.1984,0.007 0.39678,0.0144 0.59518,0.0212 0.19838,0.007 0.39678,0.0133 0.59516,0.0196 0.1984,0.006 0.39678,0.0123 0.59518,0.0181 0.1984,0.006 0.39678,0.0113 0.59518,0.0167 0.19838,0.005 0.39678,0.0105 0.59517,0.0154 0.19839,0.005 0.39678,0.01 0.59517,0.0141 0.19839,0.005 0.39679,0.009 0.59517,0.0131 0.1984,0.004 0.39679,0.008 0.59518,0.012 0.1984,0.004 0.39678,0.008 0.59518,0.0111 0.19838,0.003 0.39678,0.007 0.59516,0.0102 0.1984,0.003 0.39678,0.006 0.59518,0.009 0.19838,0.003 0.39678,0.006 0.59518,0.009 0.19838,0.003 0.39678,0.005 0.59516,0.008 0.1984,0.003 0.39679,0.005 0.59518,0.007 0.19839,0.002 0.39678,0.005 0.59517,0.007"
       style="fill:none;fill-opacity:1;stroke:#0000d8;stroke-width:0.99999994;stroke-miterlimit:4;stroke-dasharray:none;stroke-dashoffset:0;stroke-opacity:1"
       inkscape:connector-curvature="0" />
    <text
       sodipodi:linespacing="125%"
       id="text13067"
       y="989.36353"
       x="779.23932"
       style="font-style:normal;font-weight:normal;font-size:40px;line-height:125%;font-family:sans-serif;letter-spacing:0px;word-spacing:0px;fill:#000000;fill-opacity:1;stroke:none;stroke-width:1px;stroke-linecap:butt;stroke-linejoin:miter;stroke-opacity:1"
       xml:space="preserve"><tspan
         y="989.36353"
         x="779.23932"
         id="tspan13069"
         sodipodi:role="line">r</tspan></text>
    <path
       inkscape:connector-curvature="0"
       id="path13071"
       d="m 100,992.36219 200,0"
       style="fill:none;fill-rule:evenodd;stroke:#000000;stroke-width:1px;stroke-linecap:butt;stroke-linejoin:miter;stroke-opacity:1;marker-start:url(#Arrow1Lstart);marker-end:url(#marker5394)" />
    <path
       inkscape:connector-curvature="0"
       id="path13243"
       d="m 300,962.36219 0,-140"
       style="fill:none;fill-rule:evenodd;stroke:#003dd4;stroke-width:1;stroke-linecap:butt;stroke-linejoin:miter;stroke-miterlimit:4;stroke-dasharray:2, 4;stroke-dashoffset:0;stroke-opacity:1" />
    <path
       style="fill:none;fill-rule:evenodd;stroke:#003dd4;stroke-width:1;stroke-linecap:butt;stroke-linejoin:miter;stroke-miterlimit:4;stroke-dasharray:2, 4;stroke-dashoffset:0;stroke-opacity:1"
       d="m 520,962.36219 0,-140"
       id="path13245"
       inkscape:connector-curvature="0" />
    <text
       sodipodi:linespacing="125%"
       id="text13251"
       y="1018.3658"
       x="133.55661"
       style="font-style:normal;font-weight:normal;font-size:40px;line-height:125%;font-family:sans-serif;letter-spacing:0px;word-spacing:0px;fill:#000000;fill-opacity:1;stroke:none;stroke-width:1px;stroke-linecap:butt;stroke-linejoin:miter;stroke-opacity:1"
       xml:space="preserve"><tspan
         style="font-size:20px"
         y="1018.3658"
         x="133.55661"
         id="tspan13253"
         sodipodi:role="line">Peak Distance</tspan></text>
    <text
       sodipodi:linespacing="125%"
       id="text13255"
       y="884.80933"
       x="333.48679"
       style="font-style:normal;font-weight:normal;font-size:40px;line-height:125%;font-family:sans-serif;letter-spacing:0px;word-spacing:0px;fill:#000000;fill-opacity:1;stroke:none;stroke-width:1px;stroke-linecap:butt;stroke-linejoin:miter;stroke-opacity:1"
       xml:space="preserve"><tspan
         y="884.80933"
         x="333.48679"
         id="tspan13257"
         sodipodi:role="line">𝜔</tspan></text>
    <path
       inkscape:connector-curvature="0"
       id="path13259"
       d="m 301.36279,901.80252 23.18855,0"
       style="fill:none;fill-rule:evenodd;stroke:#000000;stroke-width:1px;stroke-linecap:butt;stroke-linejoin:miter;stroke-opacity:1;marker-start:url(#marker13261);marker-end:url(#marker4421)" />
    <path
       inkscape:connector-curvature="0"
       id="path13341"
       d="m 100,792.36228 674.71244,0"
       style="fill:none;fill-rule:evenodd;stroke:#000000;stroke-width:1;stroke-linecap:butt;stroke-linejoin:miter;stroke-miterlimit:4;stroke-dasharray:1.00000008, 4.00000029;stroke-dashoffset:0;stroke-opacity:1;marker-end:url(#marker7048)" />
    <path
       inkscape:connector-curvature="0"
       id="path13469"
       d="m 779.4934,772.36219 0,40"
       style="fill:none;fill-rule:evenodd;stroke:#000000;stroke-width:1px;stroke-linecap:butt;stroke-linejoin:miter;stroke-opacity:1" />
    <path
       inkscape:connector-curvature="0"
       id="path13927"
       d="m 609.99999,952.36218 60.00002,0"
       style="fill:none;fill-rule:evenodd;stroke:#000000;stroke-width:2;stroke-linecap:butt;stroke-linejoin:miter;stroke-miterlimit:4;stroke-dasharray:1.99999999, 5.99999996;stroke-dashoffset:0;stroke-opacity:1" />
    <path
       style="fill:none;fill-rule:evenodd;stroke:#000000;stroke-width:2;stroke-linecap:butt;stroke-linejoin:miter;stroke-miterlimit:4;stroke-dasharray:none;stroke-opacity:1;marker-end:url(#marker4547)"
       d="m 670,952.36219 140,0"
       id="path13929"
       inkscape:connector-curvature="0" />
    <text
       sodipodi:linespacing="125%"
       id="text13251-3"
       y="780.50977"
       x="601.37036"
       style="font-style:normal;font-weight:normal;font-size:40px;line-height:125%;font-family:sans-serif;letter-spacing:0px;word-spacing:0px;fill:#000000;fill-opacity:1;stroke:none;stroke-width:1px;stroke-linecap:butt;stroke-linejoin:miter;stroke-opacity:1"
       xml:space="preserve"><tspan
         style="font-size:20px"
         y="780.50977"
         x="601.37036"
         id="tspan13253-6"
         sodipodi:role="line">Damping Length</tspan></text>
    <path
       id="path14453"
       title="t (1/sqrt(2*pi))*exp(-pow(t,2)/2)"
       d="m 666.53077,952.32153 c 0.14813,-1.7e-4 0.29626,-2.4e-4 0.44422,-4.8e-4 0.14813,-1.8e-4 0.29627,-4.8e-4 0.44423,-4.8e-4 0.14813,-2e-4 0.29626,-4.8e-4 0.44422,-7.2e-4 0.14813,-2.2e-4 0.29627,-4.8e-4 0.44423,-7.2e-4 0.14813,-2.4e-4 0.29626,-4.8e-4 0.44422,-7.2e-4 0.14813,-2.4e-4 0.29627,-4.9e-4 0.44422,-7.3e-4 0.14814,-2.4e-4 0.29627,-4.8e-4 0.44423,-9.6e-4 0.14813,-2.4e-4 0.29627,-7.2e-4 0.44422,-9.6e-4 0.14814,-2.4e-4 0.29627,-7.2e-4 0.44423,-9.6e-4 0.14813,-4.8e-4 0.29626,-7.2e-4 0.44422,-10e-4 0.14814,-4.8e-4 0.29627,-7.2e-4 0.44423,-10e-4 0.14813,-4.8e-4 0.29626,-9.7e-4 0.44422,-0.001 0.14813,-4.8e-4 0.29627,-9.6e-4 0.44423,-10e-4 0.14813,-4.8e-4 0.29626,-9.6e-4 0.44422,-10e-4 0.14813,-4.8e-4 0.29627,-10e-4 0.44422,-0.002 0.14814,-4.8e-4 0.29627,-0.001 0.44423,-0.002 0.14813,-7.2e-4 0.29627,-10e-4 0.44426,-0.002 0.14813,-7.2e-4 0.29627,-10e-4 0.44422,-0.002 0.14814,-7.2e-4 0.29627,-10e-4 0.44423,-0.002 0.14813,-7.2e-4 0.29626,-0.002 0.44422,-0.002 0.14814,-9.6e-4 0.29627,-0.002 0.44423,-0.003 0.14813,-9.6e-4 0.29626,-0.002 0.44422,-0.003 0.14813,-9.6e-4 0.29627,-0.002 0.44423,-0.003 0.14813,-9.6e-4 0.29626,-0.002 0.44422,-0.003 0.14813,-10e-4 0.29627,-0.002 0.44422,-0.004 0.14814,-10e-4 0.29627,-0.002 0.44423,-0.004 0.14813,-10e-4 0.29627,-0.003 0.44422,-0.004 0.14814,-0.001 0.29627,-0.003 0.44423,-0.004 0.14813,-10e-4 0.29626,-0.003 0.44422,-0.005 0.14814,-0.002 0.29627,-0.003 0.44423,-0.005 0.14813,-0.002 0.29626,-0.004 0.44422,-0.005 0.14813,-0.002 0.29627,-0.004 0.44423,-0.006 0.14813,-0.002 0.29626,-0.004 0.44422,-0.006 0.14813,-0.002 0.29627,-0.004 0.44422,-0.007 0.14814,-0.002 0.29627,-0.005 0.44423,-0.007 0.14813,-0.002 0.29627,-0.005 0.44422,-0.008 0.14814,-0.003 0.29627,-0.005 0.44423,-0.008 0.14813,-0.003 0.29626,-0.006 0.44422,-0.009 0.14814,-0.003 0.29627,-0.006 0.44423,-0.009 0.14813,-0.003 0.29626,-0.006 0.44422,-0.01 0.14813,-0.003 0.29627,-0.007 0.44423,-0.0102 0.14813,-0.004 0.29626,-0.007 0.44422,-0.0108 0.14813,-0.004 0.29627,-0.008 0.44422,-0.0115 0.14814,-0.004 0.29627,-0.008 0.44423,-0.0122 0.14813,-0.004 0.29627,-0.008 0.44422,-0.0129 0.14814,-0.004 0.29627,-0.009 0.44423,-0.0137 0.14813,-0.005 0.29626,-0.01 0.44422,-0.0145 0.14814,-0.005 0.29627,-0.01 0.44423,-0.0153 0.14813,-0.005 0.29626,-0.0106 0.44422,-0.0162 0.14814,-0.006 0.29627,-0.0112 0.44423,-0.017 0.14813,-0.006 0.29626,-0.0118 0.44422,-0.018 0.14813,-0.006 0.29627,-0.0125 0.44423,-0.0189 0.14813,-0.006 0.29626,-0.0131 0.44422,-0.02 0.14813,-0.007 0.29627,-0.0138 0.44422,-0.021 0.14814,-0.007 0.29627,-0.0145 0.44426,-0.0221 0.14814,-0.008 0.29627,-0.0153 0.44423,-0.0232 0.14813,-0.008 0.29626,-0.016 0.44422,-0.0244 0.14814,-0.008 0.29627,-0.0168 0.44423,-0.0256 0.14813,-0.009 0.29626,-0.0177 0.44422,-0.0268 0.14813,-0.009 0.29627,-0.0185 0.44423,-0.0281 0.14813,-0.01 0.29626,-0.0194 0.44422,-0.0294 0.14813,-0.01 0.29627,-0.0203 0.44423,-0.0307 0.14813,-0.0105 0.29626,-0.0212 0.44422,-0.0321 0.14813,-0.0109 0.29627,-0.0221 0.44422,-0.0335 0.14814,-0.0114 0.29627,-0.0231 0.44423,-0.035 0.14813,-0.0119 0.29627,-0.0241 0.44422,-0.0365 0.14814,-0.0124 0.29627,-0.0251 0.44423,-0.038 0.14813,-0.0129 0.29626,-0.0261 0.44422,-0.0396 0.14814,-0.0135 0.29627,-0.0272 0.44423,-0.0412 0.14813,-0.014 0.29626,-0.0283 0.44422,-0.0428 0.14813,-0.0146 0.29627,-0.0294 0.44423,-0.0445 0.14813,-0.0151 0.29626,-0.0305 0.44422,-0.0462 0.14813,-0.0157 0.29627,-0.0316 0.44422,-0.0479 0.14814,-0.0163 0.29627,-0.0328 0.44423,-0.0496 0.14813,-0.0168 0.29627,-0.034 0.44422,-0.0514 0.14814,-0.0174 0.29627,-0.0351 0.44423,-0.0532 0.14813,-0.018 0.29626,-0.0363 0.44422,-0.0549 0.14814,-0.0186 0.29627,-0.0375 0.44423,-0.0568 0.14813,-0.0192 0.29626,-0.0387 0.44422,-0.0586 0.14813,-0.0198 0.29627,-0.04 0.44423,-0.0604 0.14813,-0.0204 0.29626,-0.0412 0.44422,-0.0622 0.14813,-0.021 0.29627,-0.0424 0.44422,-0.064 0.14814,-0.0217 0.29627,-0.0436 0.44423,-0.0659 0.14813,-0.0223 0.29627,-0.0448 0.44422,-0.0677 0.14814,-0.0229 0.29627,-0.046 0.44423,-0.0695 0.14813,-0.0235 0.29626,-0.0472 0.44422,-0.0713 0.14814,-0.0241 0.29627,-0.0484 0.44423,-0.0731 0.14813,-0.0246 0.29626,-0.0496 0.44422,-0.0748 0.14813,-0.0252 0.29627,-0.0508 0.44423,-0.0766 0.14813,-0.0258 0.29626,-0.0519 0.44422,-0.0783 0.14813,-0.0264 0.29627,-0.053 0.44422,-0.0799 0.14814,-0.0269 0.29627,-0.0541 0.44423,-0.0815 0.14813,-0.0275 0.29627,-0.0552 0.44426,-0.0831 0.14813,-0.028 0.29627,-0.0562 0.44422,-0.0847 0.14814,-0.0285 0.29627,-0.0572 0.44423,-0.0861 0.14813,-0.029 0.29626,-0.0581 0.44422,-0.0875 0.14814,-0.0294 0.29627,-0.059 0.44423,-0.0889 0.14813,-0.0298 0.29626,-0.0599 0.44422,-0.0902 0.14813,-0.0303 0.29627,-0.0607 0.44423,-0.0914 0.14813,-0.0307 0.29626,-0.0615 0.44422,-0.0925 0.14813,-0.031 0.29627,-0.0622 0.44422,-0.0936 0.14814,-0.0314 0.29627,-0.0629 0.44423,-0.0945 0.14813,-0.0317 0.29627,-0.0635 0.44422,-0.0954 0.14814,-0.0319 0.29627,-0.064 0.44423,-0.0962 0.14813,-0.0322 0.29626,-0.0644 0.44422,-0.0968 0.14814,-0.0324 0.29627,-0.0648 0.44423,-0.0974 0.14813,-0.0325 0.29626,-0.0652 0.44422,-0.0979 0.14814,-0.0327 0.29627,-0.0654 0.44423,-0.0982 0.14813,-0.0328 0.29626,-0.0656 0.44422,-0.0984 0.14813,-0.0328 0.29627,-0.0657 0.44423,-0.0985 0.14813,-0.0328 0.29626,-0.0657 0.44422,-0.0985 0.14813,-0.0328 0.29627,-0.0656 0.44422,-0.0984 0.14814,-0.0327 0.29627,-0.0654 0.44423,-0.0981 0.14813,-0.0326 0.29627,-0.0652 0.44422,-0.0977 0.14814,-0.0325 0.29627,-0.0649 0.44423,-0.0971 0.14813,-0.0323 0.29626,-0.0644 0.44422,-0.0965 0.14814,-0.032 0.29627,-0.0639 0.44423,-0.0956 0.14813,-0.0317 0.29626,-0.0633 0.44422,-0.0947 0.14813,-0.0314 0.29627,-0.0626 0.44423,-0.0936 0.14813,-0.031 0.29626,-0.0618 0.44422,-0.0923 0.14813,-0.0305 0.29627,-0.0609 0.44422,-0.0909 0.14814,-0.0301 0.29627,-0.0599 0.44423,-0.0894 0.14813,-0.0295 0.29627,-0.0588 0.44422,-0.0877 0.14814,-0.029 0.29627,-0.0576 0.44423,-0.0859 0.14813,-0.0283 0.29626,-0.0563 0.44422,-0.0839 0.14814,-0.0276 0.29627,-0.0549 0.44423,-0.0819 0.14813,-0.0269 0.29626,-0.0535 0.44422,-0.0796 0.14813,-0.0262 0.29627,-0.0519 0.44423,-0.0773 0.14813,-0.0253 0.29626,-0.0503 0.44422,-0.0748 0.14813,-0.0245 0.29627,-0.0485 0.44422,-0.0721 0.14814,-0.0236 0.29627,-0.0467 0.44426,-0.0694 0.14814,-0.0227 0.29627,-0.0448 0.44423,-0.0665 0.14813,-0.0217 0.29627,-0.0429 0.44422,-0.0635 0.14814,-0.0207 0.29627,-0.0408 0.44423,-0.0604 0.14813,-0.0196 0.29626,-0.0387 0.44422,-0.0572 0.14814,-0.0185 0.29627,-0.0365 0.44423,-0.0539 0.14813,-0.0174 0.29626,-0.0342 0.44422,-0.0505 0.14813,-0.0162 0.29627,-0.0319 0.44423,-0.047 0.14813,-0.015 0.29626,-0.0295 0.44422,-0.0434 0.14813,-0.0138 0.29627,-0.0271 0.44422,-0.0397 0.14814,-0.0126 0.29627,-0.0246 0.44423,-0.0359 0.14813,-0.0113 0.29627,-0.0221 0.44422,-0.0321 0.14814,-0.01 0.29627,-0.0195 0.44423,-0.0282 0.14813,-0.009 0.29626,-0.0168 0.44422,-0.0243 0.14814,-0.007 0.29627,-0.0142 0.44423,-0.0203 0.14813,-0.006 0.29626,-0.0115 0.44422,-0.0163 0.14813,-0.005 0.29627,-0.009 0.44423,-0.0123 0.14813,-0.003 0.29626,-0.006 0.44422,-0.008 0.14813,-0.002 0.29627,-0.003 0.44422,-0.004 0.14814,-7.2e-4 0.29627,-7.2e-4 0.44423,0 0.14813,7.3e-4 0.29627,0.002 0.44422,0.004 0.14814,0.002 0.29627,0.005 0.44423,0.008 0.14813,0.003 0.29627,0.007 0.44422,0.0123 0.14814,0.005 0.29627,0.0102 0.44423,0.0163 0.14813,0.006 0.29626,0.0129 0.44422,0.0203 0.14814,0.007 0.29627,0.0156 0.44423,0.0243 0.14813,0.009 0.29626,0.0182 0.44422,0.0282 0.14813,0.0101 0.29627,0.0208 0.44423,0.0321 0.14813,0.0113 0.29626,0.0233 0.44422,0.0359 0.14813,0.0126 0.29627,0.0258 0.44422,0.0397 0.14814,0.0139 0.29627,0.0283 0.44423,0.0434 0.14813,0.015 0.29627,0.0307 0.44422,0.047 0.14814,0.0163 0.29627,0.0331 0.44423,0.0505 0.14813,0.0174 0.29626,0.0354 0.44422,0.0539 0.14814,0.0185 0.29627,0.0376 0.44423,0.0572 0.14813,0.0196 0.29626,0.0398 0.44422,0.0604 0.14813,0.0207 0.29627,0.0418 0.44423,0.0635 0.14813,0.0217 0.29626,0.0439 0.44422,0.0665 0.14813,0.0227 0.29627,0.0458 0.44426,0.0694 0.14813,0.0236 0.29627,0.0477 0.44422,0.0721 0.14814,0.0245 0.29627,0.0494 0.44423,0.0748 0.14813,0.0254 0.29627,0.0511 0.44422,0.0773 0.14814,0.0262 0.29627,0.0527 0.44423,0.0796 0.14813,0.0269 0.29626,0.0542 0.44422,0.0819 0.14814,0.0276 0.29627,0.0556 0.44423,0.0839 0.14813,0.0283 0.29626,0.057 0.44422,0.0859 0.14813,0.0289 0.29627,0.0582 0.44423,0.0877 0.14813,0.0295 0.29626,0.0593 0.44422,0.0894 0.14813,0.0301 0.29627,0.0604 0.44422,0.0909 0.14814,0.0306 0.29627,0.0613 0.44423,0.0923 0.14813,0.031 0.29627,0.0622 0.44422,0.0936 0.14814,0.0314 0.29627,0.0629 0.44423,0.0947 0.14813,0.0317 0.29626,0.0636 0.44422,0.0956 0.14814,0.032 0.29627,0.0642 0.44423,0.0965 0.14813,0.0323 0.29626,0.0647 0.44422,0.0971 0.14813,0.0325 0.29627,0.065 0.44423,0.0977 0.14813,0.0326 0.29626,0.0653 0.44422,0.0981 0.14813,0.0328 0.29627,0.0655 0.44422,0.0984 0.14814,0.0328 0.29627,0.0657 0.44423,0.0985 0.14813,0.0329 0.29627,0.0657 0.44422,0.0985 0.14814,0.0328 0.29627,0.0657 0.44423,0.0984 0.14813,0.0328 0.29626,0.0655 0.44422,0.0982 0.14814,0.0327 0.29627,0.0653 0.44423,0.0979 0.14813,0.0326 0.29626,0.065 0.44422,0.0974 0.14813,0.0324 0.29627,0.0647 0.44423,0.0968 0.14813,0.0322 0.29626,0.0642 0.44422,0.0962 0.14813,0.0319 0.29627,0.0637 0.44422,0.0954 0.14814,0.0317 0.29627,0.0632 0.44423,0.0945 0.14813,0.0314 0.29627,0.0625 0.44422,0.0936 0.14814,0.031 0.29627,0.0619 0.44423,0.0925 0.14813,0.0307 0.29627,0.0611 0.44422,0.0914 0.14814,0.0303 0.29627,0.0603 0.44423,0.0902 0.14813,0.0299 0.29626,0.0595 0.44422,0.0889 0.14814,0.0294 0.29627,0.0586 0.44423,0.0875 0.14813,0.029 0.29626,0.0577 0.44422,0.0861 0.14813,0.0285 0.29627,0.0567 0.44423,0.0847 0.14813,0.028 0.29626,0.0557 0.44425,0.0831 0.14814,0.0274 0.29627,0.0546 0.44423,0.0815 0.14813,0.0269 0.29627,0.0535 0.44422,0.0799 0.14814,0.0264 0.29627,0.0525 0.44423,0.0783 0.14813,0.0258 0.29626,0.0513 0.44422,0.0766 0.14814,0.0252 0.29627,0.0502 0.44423,0.0748 0.14813,0.0247 0.29626,0.049 0.44422,0.0731 0.14814,0.0241 0.29627,0.0478 0.44423,0.0713 0.14813,0.0235 0.29626,0.0466 0.44422,0.0695 0.14813,0.0229 0.29627,0.0454 0.44423,0.0677 0.14813,0.0223 0.29626,0.0442 0.44422,0.0659 0.14813,0.0217 0.29627,0.043 0.44422,0.064 0.14814,0.021 0.29627,0.0418 0.44423,0.0622 0.14813,0.0204 0.29627,0.0406 0.44422,0.0604 0.14814,0.0198 0.29627,0.0394 0.44423,0.0586 0.14813,0.0192 0.29626,0.0381 0.44422,0.0568 0.14814,0.0186 0.29627,0.0369 0.44423,0.0549 0.14813,0.018 0.29626,0.0357 0.44422,0.0532 0.14813,0.0174 0.29627,0.0345 0.44423,0.0514 0.14813,0.0168 0.29626,0.0334 0.44422,0.0496 0.14813,0.0163 0.29627,0.0322 0.44422,0.0479 0.14814,0.0157 0.29627,0.0311 0.44423,0.0462 0.14813,0.0151 0.29627,0.0299 0.44422,0.0445 0.14814,0.0145 0.29627,0.0288 0.44423,0.0428 0.14813,0.014 0.29626,0.0277 0.44422,0.0412 0.14814,0.0135 0.29627,0.0267 0.44423,0.0396 0.14813,0.0129 0.29626,0.0256 0.44422,0.038 0.14813,0.0124 0.29627,0.0246 0.44423,0.0365 0.14813,0.0119 0.29626,0.0236 0.44422,0.035 0.14813,0.0114 0.29627,0.0226 0.44422,0.0335 0.14814,0.0109 0.29627,0.0217 0.44423,0.0321 0.14813,0.0105 0.29627,0.0207 0.44422,0.0307 0.14814,0.01 0.29627,0.0198 0.44423,0.0294 0.14813,0.01 0.29626,0.0189 0.44422,0.0281 0.14814,0.009 0.29627,0.0181 0.44423,0.0268 0.14813,0.009 0.29626,0.0172 0.44422,0.0256 0.14813,0.008 0.29627,0.0164 0.44423,0.0244 0.14813,0.008 0.29626,0.0157 0.44422,0.0232 0.14813,0.008 0.29627,0.0149 0.44426,0.0221 0.14813,0.007 0.29627,0.0142 0.44422,0.021 0.14814,0.007 0.29627,0.0135 0.44423,0.02 0.14813,0.006 0.29627,0.0128 0.44422,0.0189 0.14814,0.006 0.29627,0.0121 0.44423,0.018 0.14813,0.006 0.29626,0.0115 0.44422,0.017 0.14814,0.006 0.29627,0.0109 0.44423,0.0162 0.14813,0.005 0.29626,0.0103 0.44422,0.0153 0.14813,0.005 0.29627,0.01 0.44423,0.0145 0.14813,0.005 0.29626,0.009 0.44422,0.0137 0.14813,0.004 0.29627,0.009 0.44422,0.0129 0.14814,0.004 0.29627,0.008 0.44423,0.0122 0.14813,0.004 0.29627,0.008 0.44422,0.0115 0.14814,0.004 0.29627,0.007 0.44423,0.0108 0.14813,0.004 0.29627,0.007 0.44422,0.0102 0.14814,0.003 0.29627,0.007 0.44423,0.01 0.14813,0.003 0.29626,0.006 0.44422,0.009 0.14814,0.003 0.29627,0.006 0.44423,0.009 0.14813,0.003 0.29626,0.005 0.44422,0.008 0.14813,0.003 0.29627,0.005 0.44423,0.008 0.14813,0.002 0.29626,0.005 0.44422,0.007 0.14813,0.002 0.29627,0.004 0.44422,0.007 0.14814,0.002 0.29627,0.004 0.44423,0.006 0.14813,0.002 0.29627,0.004 0.44422,0.006 0.14814,0.002 0.29627,0.004 0.44423,0.005 0.14813,0.002 0.29626,0.003 0.44422,0.005 0.14814,0.002 0.29627,0.003 0.44423,0.005 0.14813,10e-4 0.29626,0.003 0.44422,0.004 0.14813,10e-4 0.29627,0.003 0.44423,0.004 0.14813,0.001 0.29626,0.003 0.44422,0.004 0.14813,10e-4 0.29627,0.002 0.44422,0.004 0.14814,10e-4 0.29627,0.002 0.44423,0.003 0.14813,9.6e-4 0.29627,0.002 0.44422,0.003 0.14814,9.6e-4 0.29627,0.002 0.44423,0.003 0.14813,9.6e-4 0.29626,0.002 0.44422,0.003 0.14814,9.6e-4 0.29627,0.002 0.44423,0.002 0.14813,7.2e-4 0.29626,10e-4 0.44422,0.002 0.14813,7.2e-4 0.29627,0.001 0.44423,0.002 0.14813,7.2e-4 0.29626,10e-4 0.44426,0.002 0.14813,7.2e-4 0.29626,10e-4 0.44422,0.002 0.14813,4.8e-4 0.29627,10e-4 0.44422,0.002 0.14814,4.8e-4 0.29627,9.6e-4 0.44423,10e-4 0.14813,4.8e-4 0.29627,9.6e-4 0.44422,10e-4 0.14814,4.8e-4 0.29627,9.7e-4 0.44423,0.001 0.14813,4.8e-4 0.29626,7.2e-4 0.44422,10e-4 0.14814,4.8e-4 0.29627,7.2e-4 0.44423,10e-4 0.14813,2.4e-4 0.29626,7.2e-4 0.44422,9.6e-4 0.14813,2.4e-4 0.29627,7.2e-4 0.44423,9.6e-4 0.14813,2.4e-4 0.29626,4.8e-4 0.44422,9.6e-4 0.14813,2.4e-4 0.29627,4.9e-4 0.44422,7.3e-4 0.14814,2.4e-4 0.29627,4.8e-4 0.44423,7.2e-4 0.14813,2.3e-4 0.29627,4.8e-4 0.44422,7.2e-4 0.14814,2.2e-4 0.29627,4.8e-4 0.44423,7.2e-4 0.14813,2e-4 0.29626,4.8e-4 0.44422,4.8e-4 0.14814,1.8e-4 0.29627,2.4e-4 0.44423,4.8e-4"
       style="fill:none;fill-opacity:1;stroke:#003dd4;stroke-width:1;stroke-miterlimit:4;stroke-dasharray:none;stroke-dashoffset:0;stroke-opacity:1"
       inkscape:connector-curvature="0" />
    <path
       style="fill:none;fill-rule:evenodd;stroke:#0000ae;stroke-width:4;stroke-linecap:butt;stroke-linejoin:miter;stroke-miterlimit:4;stroke-dasharray:none;stroke-opacity:1;marker-end:url(#marker13129)"
       d="m 100,952.36219 0,-152.70813"
       id="path4523"
       inkscape:connector-curvature="0" />
  </g>
</svg>
