<?xml version="1.0" encoding="UTF-8" standalone="no"?>
<!-- Created with Inkscape (http://www.inkscape.org/) -->

<svg
   xmlns:dc="http://purl.org/dc/elements/1.1/"
   xmlns:cc="http://creativecommons.org/ns#"
   xmlns:rdf="http://www.w3.org/1999/02/22-rdf-syntax-ns#"
   xmlns:svg="http://www.w3.org/2000/svg"
   xmlns="http://www.w3.org/2000/svg"
   xmlns:sodipodi="http://sodipodi.sourceforge.net/DTD/sodipodi-0.dtd"
   xmlns:inkscape="http://www.inkscape.org/namespaces/inkscape"
   width="1052.3622"
   height="744.09448"
   id="svg2"
   version="1.1"
   inkscape:version="0.48.5 r10040"
   sodipodi:docname="setup_RectangularGrating.svg"
   inkscape:export-filename="/home/pospelov/development/git/gisas/artwork/website/python_examples/gratings.png"
   inkscape:export-xdpi="542.77588"
   inkscape:export-ydpi="542.77588">
  <sodipodi:namedview
     id="base"
     pagecolor="#ffffff"
     bordercolor="#666666"
     borderopacity="1.0"
     inkscape:pageopacity="1"
     inkscape:pageshadow="2"
     inkscape:zoom="3.959798"
     inkscape:cx="160.57083"
     inkscape:cy="330.3034"
     inkscape:document-units="px"
     inkscape:current-layer="layer1"
     showgrid="true"
     inkscape:window-width="1862"
     inkscape:window-height="1130"
     inkscape:window-x="-2"
     inkscape:window-y="-3"
     inkscape:window-maximized="1"
     inkscape:snap-global="false">
    <inkscape:grid
       snapvisiblegridlinesonly="true"
       enabled="true"
       visible="true"
       empspacing="5"
       id="grid2985"
       type="xygrid" />
  </sodipodi:namedview>
  <defs
     id="defs4">
    <marker
       style="overflow:visible"
       id="Arrow2Mstart"
       refX="0.0"
       refY="0.0"
       orient="auto"
       inkscape:stockid="Arrow2Mstart">
      <path
         transform="scale(0.6) translate(0,0)"
         d="M 8.7185878,4.0337352 L -2.2072895,0.016013256 L 8.7185884,-4.0017078 C 6.9730900,-1.6296469 6.9831476,1.6157441 8.7185878,4.0337352 z "
         style="fill-rule:evenodd;stroke-width:0.62500000;stroke-linejoin:round"
         id="path3785" />
    </marker>
    <marker
       inkscape:stockid="DistanceStart"
       orient="auto"
       refY="0.0"
       refX="0.0"
       id="DistanceStart"
       style="overflow:visible">
      <g
         id="g2300">
        <path
           id="path2306"
           d="M 0,0 L 2,0"
           style="fill:none;stroke:#ffffff;stroke-width:1.15;stroke-linecap:square" />
        <path
           id="path2302"
           d="M 0,0 L 13,4 L 9,0 13,-4 L 0,0 z "
           style="fill:#000000;fill-rule:evenodd;stroke:none" />
        <path
           id="path2304"
           d="M 0,-4 L 0,40"
           style="fill:none;stroke:#000000;stroke-width:1;stroke-linecap:square" />
      </g>
    </marker>
    <marker
       style="overflow:visible;"
       id="Arrow2Mend"
       refX="0.0"
       refY="0.0"
       orient="auto"
       inkscape:stockid="Arrow2Mend">
      <path
         transform="scale(0.6) rotate(180) translate(0,0)"
         d="M 8.7185878,4.0337352 L -2.2072895,0.016013256 L 8.7185884,-4.0017078 C 6.9730900,-1.6296469 6.9831476,1.6157441 8.7185878,4.0337352 z "
         style="fill-rule:evenodd;stroke-width:0.62500000;stroke-linejoin:round;"
         id="path3788" />
    </marker>
    <marker
       style="overflow:visible;"
       id="Arrow1Lend"
       refX="0.0"
       refY="0.0"
       orient="auto"
       inkscape:stockid="Arrow1Lend">
      <path
         transform="scale(0.8) rotate(180) translate(12.5,0)"
         style="fill-rule:evenodd;stroke:#000000;stroke-width:1.0pt;"
         d="M 0.0,0.0 L 5.0,-5.0 L -12.5,0.0 L 5.0,5.0 L 0.0,0.0 z "
         id="path3764" />
    </marker>
    <marker
       style="overflow:visible;"
       id="Arrow2Lend"
       refX="0.0"
       refY="0.0"
       orient="auto"
       inkscape:stockid="Arrow2Lend">
      <path
         transform="scale(1.1) rotate(180) translate(1,0)"
         d="M 8.7185878,4.0337352 L -2.2072895,0.016013256 L 8.7185884,-4.0017078 C 6.9730900,-1.6296469 6.9831476,1.6157441 8.7185878,4.0337352 z "
         style="fill-rule:evenodd;stroke-width:0.62500000;stroke-linejoin:round;"
         id="path3782" />
    </marker>
    <marker
       style="overflow:visible"
       id="Arrow2Mstart-7"
       refX="0"
       refY="0"
       orient="auto"
       inkscape:stockid="Arrow2Mstart">
      <path
         transform="scale(0.6,0.6)"
         d="M 8.7185878,4.0337352 -2.2072895,0.01601326 8.7185884,-4.0017078 c -1.7454984,2.3720609 -1.7354408,5.6174519 -6e-7,8.035443 z"
         style="fill-rule:evenodd;stroke-width:0.625;stroke-linejoin:round"
         id="path3785-4"
         inkscape:connector-curvature="0" />
    </marker>
    <marker
       style="overflow:visible"
       id="Arrow2Mend-0"
       refX="0"
       refY="0"
       orient="auto"
       inkscape:stockid="Arrow2Mend">
      <path
         transform="scale(-0.6,-0.6)"
         d="M 8.7185878,4.0337352 -2.2072895,0.01601326 8.7185884,-4.0017078 c -1.7454984,2.3720609 -1.7354408,5.6174519 -6e-7,8.035443 z"
         style="fill-rule:evenodd;stroke-width:0.625;stroke-linejoin:round"
         id="path3788-3"
         inkscape:connector-curvature="0" />
    </marker>
    <marker
       style="overflow:visible;"
       id="Arrow2Mendr"
       refX="0.0"
       refY="0.0"
       orient="auto"
       inkscape:stockid="Arrow2Mendr">
      <path
         transform="scale(0.6) rotate(180) translate(0,0)"
         d="M 8.7185878,4.0337352 L -2.2072895,0.016013256 L 8.7185884,-4.0017078 C 6.9730900,-1.6296469 6.9831476,1.6157441 8.7185878,4.0337352 z "
         style="stroke-linejoin:round;stroke:#0000be;stroke-width:0.62500000;fill:#0000be;fill-rule:evenodd"
         id="path6606" />
    </marker>
    <marker
       style="overflow:visible;"
       id="Arrow2Mendz"
       refX="0.0"
       refY="0.0"
       orient="auto"
       inkscape:stockid="Arrow2Mendz">
      <path
         transform="scale(0.6) rotate(180) translate(0,0)"
         d="M 8.7185878,4.0337352 L -2.2072895,0.016013256 L 8.7185884,-4.0017078 C 6.9730900,-1.6296469 6.9831476,1.6157441 8.7185878,4.0337352 z "
         style="stroke-linejoin:round;stroke:#0000c8;stroke-width:0.62500000;fill:#0000c8;fill-rule:evenodd"
         id="path6725" />
    </marker>
    <marker
       style="overflow:visible"
       id="Arrow2Mendz-3"
       refX="0"
       refY="0"
       orient="auto"
       inkscape:stockid="Arrow2Mendz">
      <path
         transform="scale(-0.6,-0.6)"
         d="M 8.7185878,4.0337352 -2.2072895,0.01601326 8.7185884,-4.0017078 c -1.7454984,2.3720609 -1.7354408,5.6174519 -6e-7,8.035443 z"
         style="fill:#0000c8;fill-rule:evenodd;stroke:#0000c8;stroke-width:0.625;stroke-linejoin:round"
         id="path6725-4"
         inkscape:connector-curvature="0" />
    </marker>
    <marker
       style="overflow:visible"
       id="Arrow2Mstart-7-9"
       refX="0"
       refY="0"
       orient="auto"
       inkscape:stockid="Arrow2Mstart">
      <path
         transform="scale(0.6,0.6)"
         d="M 8.7185878,4.0337352 -2.2072895,0.01601326 8.7185884,-4.0017078 c -1.7454984,2.3720609 -1.7354408,5.6174519 -6e-7,8.035443 z"
         style="fill-rule:evenodd;stroke-width:0.625;stroke-linejoin:round"
         id="path3785-4-4"
         inkscape:connector-curvature="0" />
    </marker>
    <marker
       style="overflow:visible"
       id="Arrow2Mend-0-6"
       refX="0"
       refY="0"
       orient="auto"
       inkscape:stockid="Arrow2Mend">
      <path
         transform="scale(-0.6,-0.6)"
         d="M 8.7185878,4.0337352 -2.2072895,0.01601326 8.7185884,-4.0017078 c -1.7454984,2.3720609 -1.7354408,5.6174519 -6e-7,8.035443 z"
         style="fill-rule:evenodd;stroke-width:0.625;stroke-linejoin:round"
         id="path3788-3-1"
         inkscape:connector-curvature="0" />
    </marker>
    <marker
       style="overflow:visible"
       id="Arrow2Mstart-5"
       refX="0"
       refY="0"
       orient="auto"
       inkscape:stockid="Arrow2Mstart">
      <path
         transform="scale(0.6,0.6)"
         d="M 8.7185878,4.0337352 -2.2072895,0.01601326 8.7185884,-4.0017078 c -1.7454984,2.3720609 -1.7354408,5.6174519 -6e-7,8.035443 z"
         style="fill-rule:evenodd;stroke-width:0.625;stroke-linejoin:round"
         id="path3785-0"
         inkscape:connector-curvature="0" />
    </marker>
    <marker
       style="overflow:visible"
       id="Arrow2Mend-02"
       refX="0"
       refY="0"
       orient="auto"
       inkscape:stockid="Arrow2Mend">
      <path
         transform="scale(-0.6,-0.6)"
         d="M 8.7185878,4.0337352 -2.2072895,0.01601326 8.7185884,-4.0017078 c -1.7454984,2.3720609 -1.7354408,5.6174519 -6e-7,8.035443 z"
         style="fill-rule:evenodd;stroke-width:0.625;stroke-linejoin:round"
         id="path3788-6"
         inkscape:connector-curvature="0" />
    </marker>
    <marker
       style="overflow:visible"
       id="marker7020"
       refX="0"
       refY="0"
       orient="auto"
       inkscape:stockid="Arrow2Mstart">
      <path
         transform="scale(0.6,0.6)"
         d="M 8.7185878,4.0337352 -2.2072895,0.01601326 8.7185884,-4.0017078 c -1.7454984,2.3720609 -1.7354408,5.6174519 -6e-7,8.035443 z"
         style="fill-rule:evenodd;stroke-width:0.625;stroke-linejoin:round"
         id="path7022"
         inkscape:connector-curvature="0" />
    </marker>
    <marker
       style="overflow:visible"
       id="marker7024"
       refX="0"
       refY="0"
       orient="auto"
       inkscape:stockid="Arrow2Mend">
      <path
         transform="scale(-0.6,-0.6)"
         d="M 8.7185878,4.0337352 -2.2072895,0.01601326 8.7185884,-4.0017078 c -1.7454984,2.3720609 -1.7354408,5.6174519 -6e-7,8.035443 z"
         style="fill-rule:evenodd;stroke-width:0.625;stroke-linejoin:round"
         id="path7026"
         inkscape:connector-curvature="0" />
    </marker>
    <marker
       style="overflow:visible"
       id="Arrow2Mendr-7"
       refX="0"
       refY="0"
       orient="auto"
       inkscape:stockid="Arrow2Mendr">
      <path
         transform="scale(-0.6,-0.6)"
         d="M 8.7185878,4.0337352 -2.2072895,0.01601326 8.7185884,-4.0017078 c -1.7454984,2.3720609 -1.7354408,5.6174519 -6e-7,8.035443 z"
         style="fill:#0000be;fill-rule:evenodd;stroke:#0000be;stroke-width:0.625;stroke-linejoin:round"
         id="path6606-0"
         inkscape:connector-curvature="0" />
    </marker>
    <marker
       style="overflow:visible"
       id="Arrow2Mendz-7"
       refX="0"
       refY="0"
       orient="auto"
       inkscape:stockid="Arrow2Mendz">
      <path
         transform="scale(-0.6,-0.6)"
         d="M 8.7185878,4.0337352 -2.2072895,0.01601326 8.7185884,-4.0017078 c -1.7454984,2.3720609 -1.7354408,5.6174519 -6e-7,8.035443 z"
         style="fill:#0000c8;fill-rule:evenodd;stroke:#0000c8;stroke-width:0.625;stroke-linejoin:round"
         id="path6725-7"
         inkscape:connector-curvature="0" />
    </marker>
    <marker
       style="overflow:visible"
       id="Arrow2Mendz-2"
       refX="0"
       refY="0"
       orient="auto"
       inkscape:stockid="Arrow2Mendz">
      <path
         transform="scale(-0.6,-0.6)"
         d="M 8.7185878,4.0337352 -2.2072895,0.01601326 8.7185884,-4.0017078 c -1.7454984,2.3720609 -1.7354408,5.6174519 -6e-7,8.035443 z"
         style="fill:#0000c8;fill-rule:evenodd;stroke:#0000c8;stroke-width:0.625;stroke-linejoin:round"
         id="path6725-0"
         inkscape:connector-curvature="0" />
    </marker>
    <marker
       style="overflow:visible"
       id="Arrow2Mendr-3"
       refX="0"
       refY="0"
       orient="auto"
       inkscape:stockid="Arrow2Mendr">
      <path
         transform="scale(-0.6,-0.6)"
         d="M 8.7185878,4.0337352 -2.2072895,0.01601326 8.7185884,-4.0017078 c -1.7454984,2.3720609 -1.7354408,5.6174519 -6e-7,8.035443 z"
         style="fill:#0000be;fill-rule:evenodd;stroke:#0000be;stroke-width:0.625;stroke-linejoin:round"
         id="path6606-3"
         inkscape:connector-curvature="0" />
    </marker>
    <marker
       style="overflow:visible"
       id="marker70241"
       refX="0"
       refY="0"
       orient="auto"
       inkscape:stockid="marker70241">
      <path
         transform="scale(-0.6,-0.6)"
         d="M 8.7185878,4.0337352 -2.2072895,0.01601326 8.7185884,-4.0017078 c -1.7454984,2.3720609 -1.7354408,5.6174519 -6e-7,8.035443 z"
         style="stroke-linejoin:round;stroke:#d50000;stroke-width:0.625;fill:#d50000;fill-rule:evenodd"
         id="path7748"
         inkscape:connector-curvature="0" />
    </marker>
    <marker
       style="overflow:visible"
       id="marker70241-6"
       refX="0"
       refY="0"
       orient="auto"
       inkscape:stockid="marker70241">
      <path
         transform="scale(-0.6,-0.6)"
         d="M 8.7185878,4.0337352 -2.2072895,0.01601326 8.7185884,-4.0017078 c -1.7454984,2.3720609 -1.7354408,5.6174519 -6e-7,8.035443 z"
         style="fill:#d50000;fill-rule:evenodd;stroke:#d50000;stroke-width:0.625;stroke-linejoin:round"
         id="path7748-3"
         inkscape:connector-curvature="0" />
    </marker>
  </defs>
  <metadata
     id="metadata7">
    <rdf:RDF>
      <cc:Work
         rdf:about="">
        <dc:format>image/svg+xml</dc:format>
        <dc:type
           rdf:resource="http://purl.org/dc/dcmitype/StillImage" />
        <dc:title></dc:title>
      </cc:Work>
    </rdf:RDF>
  </metadata>
  <g
     transform="translate(0,-308.2677)"
     id="layer1"
     inkscape:groupmode="layer"
     inkscape:label="Layer 1">
    <rect
       style="fill:none;fill-opacity:1;stroke:none;stroke-width:0.50000000000000000;stroke-miterlimit:4;stroke-opacity:1;stroke-dasharray:0.50000001000000005, 0.50000001000000005;stroke-dashoffset:0"
       id="rect8185"
       width="230.31479"
       height="215.16249"
       x="30.304579"
       y="622.03717"
       ry="0.069836721"
       inkscape:export-xdpi="542.77588"
       inkscape:export-ydpi="542.77588" />
    <path
       inkscape:connector-curvature="0"
       id="path2987"
       d="m 90.367656,682.41873 154.064224,0"
       style="fill:none;stroke:#0000c8;stroke-width:0.49999997;stroke-linecap:butt;stroke-linejoin:miter;stroke-miterlimit:4;stroke-opacity:1;stroke-dasharray:none;marker-end:url(#Arrow2Mendz)" />
    <path
       inkscape:connector-curvature="0"
       id="path4761"
       d="m 90,682.36218 0,-54.20426"
       style="fill:none;stroke:#0000be;stroke-width:0.5;stroke-linecap:butt;stroke-linejoin:miter;stroke-miterlimit:4;stroke-opacity:1;stroke-dasharray:none;marker-end:url(#Arrow2Mendr)" />
    <text
       sodipodi:linespacing="125%"
       id="text4968"
       y="690.59058"
       x="236.76649"
       style="font-size:8px;font-style:normal;font-variant:normal;font-weight:normal;font-stretch:normal;text-align:start;line-height:125%;letter-spacing:0px;word-spacing:0px;writing-mode:lr-tb;text-anchor:start;fill:#0000c8;fill-opacity:1;stroke:none;font-family:Sans;-inkscape-font-specification:Sans"
       xml:space="preserve"><tspan
         style="font-size:8px;font-style:normal;font-variant:normal;font-weight:normal;font-stretch:normal;text-align:start;line-height:125%;writing-mode:lr-tb;text-anchor:start;fill:#0000c8;fill-opacity:1;font-family:Sans;-inkscape-font-specification:Sans"
         y="690.59058"
         x="236.76649"
         id="tspan4970"
         sodipodi:role="line">x</tspan></text>
    <rect
       ry="0.069836721"
       y="647.36218"
       x="85"
       height="70"
       width="10"
       id="rect4978"
       style="fill:#00a0ec;fill-opacity:0.63106791;stroke:none" />
    <rect
       style="fill:#00a0ec;fill-opacity:0.63106791;stroke:none"
       id="rect4980"
       width="10"
       height="70"
       x="110"
       y="647.36218"
       ry="0.069836721" />
    <rect
       ry="0.069836721"
       y="647.36218"
       x="135"
       height="70"
       width="10"
       id="rect4982"
       style="fill:#00a0ec;fill-opacity:0.63106791;stroke:none" />
    <path
       transform="matrix(0.04444444,0,0,0.04444444,108.84028,669.31811)"
       d="m 185,294.09448 c 0,24.85282 -20.14719,45 -45,45 -24.85281,0 -45,-20.14718 -45,-45 0,-24.85281 20.14719,-45 45,-45 24.85281,0 45,20.14719 45,45 z"
       sodipodi:ry="45"
       sodipodi:rx="45"
       sodipodi:cy="294.09448"
       sodipodi:cx="140"
       id="path4974-8"
       style="fill:#000000;fill-opacity:1;stroke:none"
       sodipodi:type="arc" />
    <path
       transform="matrix(0.04444444,0,0,0.04444444,133.75099,669.36275)"
       d="m 185,294.09448 c 0,24.85282 -20.14719,45 -45,45 -24.85281,0 -45,-20.14718 -45,-45 0,-24.85281 20.14719,-45 45,-45 24.85281,0 45,20.14719 45,45 z"
       sodipodi:ry="45"
       sodipodi:rx="45"
       sodipodi:cy="294.09448"
       sodipodi:cx="140"
       id="path4974-8-8"
       style="fill:#000000;fill-opacity:1;stroke:none"
       sodipodi:type="arc" />
    <path
       transform="matrix(0.04444444,0,0,0.04444444,158.75099,669.27346)"
       d="m 185,294.09448 c 0,24.85282 -20.14719,45 -45,45 -24.85281,0 -45,-20.14718 -45,-45 0,-24.85281 20.14719,-45 45,-45 24.85281,0 45,20.14719 45,45 z"
       sodipodi:ry="45"
       sodipodi:rx="45"
       sodipodi:cy="294.09448"
       sodipodi:cx="140"
       id="path4974-8-7"
       style="fill:#000000;fill-opacity:1;stroke:none"
       sodipodi:type="arc" />
    <path
       transform="matrix(0.04444444,0,0,0.04444444,183.66171,669.31811)"
       d="m 185,294.09448 c 0,24.85282 -20.14719,45 -45,45 -24.85281,0 -45,-20.14718 -45,-45 0,-24.85281 20.14719,-45 45,-45 24.85281,0 45,20.14719 45,45 z"
       sodipodi:ry="45"
       sodipodi:rx="45"
       sodipodi:cy="294.09448"
       sodipodi:cx="140"
       id="path4974-8-85"
       style="fill:#000000;fill-opacity:1;stroke:none"
       sodipodi:type="arc" />
    <path
       transform="matrix(0.04444444,0,0,0.04444444,208.84028,669.31811)"
       d="m 185,294.09448 c 0,24.85282 -20.14719,45 -45,45 -24.85281,0 -45,-20.14718 -45,-45 0,-24.85281 20.14719,-45 45,-45 24.85281,0 45,20.14719 45,45 z"
       sodipodi:ry="45"
       sodipodi:rx="45"
       sodipodi:cy="294.09448"
       sodipodi:cx="140"
       id="path4974-8-4"
       style="fill:#000000;fill-opacity:1;stroke:none"
       sodipodi:type="arc" />
    <path
       transform="translate(0,308.2677)"
       inkscape:connector-curvature="0"
       id="path5052"
       d="m 215,384.09448 25,0"
       style="fill:none;stroke:#000000;stroke-width:0;stroke-linecap:butt;stroke-linejoin:miter;stroke-opacity:1;marker-start:url(#DistanceStart);stroke-miterlimit:4;stroke-dasharray:none" />
    <path
       inkscape:connector-curvature="0"
       id="path5441"
       d="m 190.42596,692.36218 24.57404,0"
       style="fill:none;stroke:#000000;stroke-width:0.5;stroke-linecap:butt;stroke-linejoin:miter;stroke-miterlimit:4;stroke-opacity:1;stroke-dasharray:none;marker-start:url(#Arrow2Mstart);marker-end:url(#Arrow2Mend)" />
    <text
       sodipodi:linespacing="125%"
       id="text6024"
       y="703.9693"
       x="182.14285"
       style="font-size:6px;font-style:normal;font-variant:normal;font-weight:normal;font-stretch:normal;text-align:start;line-height:125%;letter-spacing:0px;word-spacing:0px;writing-mode:lr-tb;text-anchor:start;fill:#000000;fill-opacity:1;stroke:none;font-family:Sans;-inkscape-font-specification:Sans"
       xml:space="preserve"><tspan
         y="703.9693"
         x="182.14285"
         id="tspan6084"
         sodipodi:role="line">lattice length</tspan></text>
    <path
       inkscape:connector-curvature="0"
       id="path6030"
       d="m 189.96045,682.36218 0,15"
       style="fill:none;stroke:#000000;stroke-width:0.5;stroke-linecap:butt;stroke-linejoin:miter;stroke-miterlimit:4;stroke-opacity:1;stroke-dasharray:0.5, 0.5;stroke-dashoffset:0" />
    <path
       inkscape:connector-curvature="0"
       id="path6030-9"
       d="m 215.12422,683.43276 0,13.57947"
       style="fill:none;stroke:#000000;stroke-width:0.5;stroke-linecap:butt;stroke-linejoin:miter;stroke-miterlimit:4;stroke-opacity:1;stroke-dasharray:0.5, 0.5;stroke-dashoffset:0" />
    <path
       inkscape:connector-curvature="0"
       id="path5441-4"
       d="m 85.915227,727.3456 8.525102,0"
       style="fill:none;stroke:#000000;stroke-width:0.5;stroke-linecap:butt;stroke-linejoin:miter;stroke-miterlimit:4;stroke-opacity:1;stroke-dasharray:none;marker-start:url(#Arrow2Mstart);marker-end:url(#Arrow2Mend)" />
    <path
       inkscape:connector-curvature="0"
       id="path6030-5"
       d="m 85,717.36218 0,12"
       style="fill:none;stroke:#000000;stroke-width:0.5;stroke-linecap:butt;stroke-linejoin:miter;stroke-miterlimit:4;stroke-opacity:1;stroke-dasharray:0.5, 0.5;stroke-dashoffset:0" />
    <path
       inkscape:connector-curvature="0"
       id="path6030-5-4"
       d="m 95,717.36218 0,12"
       style="fill:none;stroke:#000000;stroke-width:0.5;stroke-linecap:butt;stroke-linejoin:miter;stroke-miterlimit:4;stroke-opacity:1;stroke-dasharray:0.5, 0.5;stroke-dashoffset:0" />
    <text
       sodipodi:linespacing="125%"
       id="text6122"
       y="729.75507"
       x="99.035713"
       style="font-size:40px;font-style:normal;font-weight:normal;line-height:125%;letter-spacing:0px;word-spacing:0px;fill:#000000;fill-opacity:1;stroke:none;font-family:Sans"
       xml:space="preserve"><tspan
         style="font-size:6px;font-style:normal;font-variant:normal;font-weight:normal;font-stretch:normal;text-align:start;line-height:125%;writing-mode:lr-tb;text-anchor:start;font-family:Sans;-inkscape-font-specification:Sans"
         y="729.75507"
         x="99.035713"
         id="tspan6124"
         sodipodi:role="line">box length</tspan></text>
    <path
       inkscape:connector-curvature="0"
       id="path6126"
       d="m 150,716.36218 0,-68"
       style="fill:none;stroke:#000000;stroke-width:0.5;stroke-linecap:butt;stroke-linejoin:miter;stroke-miterlimit:4;stroke-opacity:1;stroke-dasharray:none;marker-start:url(#Arrow2Mstart-7);marker-end:url(#Arrow2Mend-0)" />
    <path
       inkscape:connector-curvature="0"
       id="path6522"
       d="m 145,647.36218 9,0"
       style="fill:none;stroke:#000000;stroke-width:0.5;stroke-linecap:butt;stroke-linejoin:miter;stroke-miterlimit:4;stroke-opacity:1;stroke-dasharray:0.5, 0.5;stroke-dashoffset:0" />
    <path
       inkscape:connector-curvature="0"
       id="path6522-8"
       d="m 145,717.36218 9,0"
       style="fill:none;stroke:#000000;stroke-width:0.5;stroke-linecap:butt;stroke-linejoin:miter;stroke-miterlimit:4;stroke-opacity:1;stroke-dasharray:0.5, 0.5;stroke-dashoffset:0" />
    <text
       sodipodi:linespacing="125%"
       id="text6122-8"
       y="655.57648"
       x="154.10715"
       style="font-size:40px;font-style:normal;font-weight:normal;line-height:125%;letter-spacing:0px;word-spacing:0px;fill:#000000;fill-opacity:1;stroke:none;font-family:Sans"
       xml:space="preserve"><tspan
         style="font-size:6px;font-style:normal;font-variant:normal;font-weight:normal;font-stretch:normal;text-align:start;line-height:125%;writing-mode:lr-tb;text-anchor:start;font-family:Sans;-inkscape-font-specification:Sans"
         y="655.57648"
         x="154.10715"
         id="tspan6124-0"
         sodipodi:role="line">box width</tspan></text>
    <text
       sodipodi:linespacing="125%"
       id="text4968-1"
       y="634.23145"
       x="94.747459"
       style="font-size:40px;font-style:normal;font-weight:normal;line-height:125%;letter-spacing:0px;word-spacing:0px;fill:#0000c8;fill-opacity:1;stroke:none;font-family:Sans"
       xml:space="preserve"><tspan
         style="font-size:8px;font-style:normal;font-variant:normal;font-weight:normal;font-stretch:normal;text-align:start;line-height:125%;writing-mode:lr-tb;text-anchor:start;fill:#0000c8;fill-opacity:1;font-family:Sans;-inkscape-font-specification:Sans"
         y="634.23145"
         x="94.747459"
         id="tspan4970-8"
         sodipodi:role="line">y</tspan></text>
    <path
       inkscape:connector-curvature="0"
       id="path4984"
       d="m 89.940106,682.36218 140.834074,0"
       style="fill:none;stroke:#000000;stroke-width:0.99999994;stroke-linecap:butt;stroke-linejoin:miter;stroke-miterlimit:4;stroke-opacity:1;stroke-dasharray:1, 1;stroke-dashoffset:0" />
    <path
       transform="matrix(0.04444444,0,0,0.04444444,83.795635,669.31811)"
       d="m 185,294.09448 c 0,24.85282 -20.14719,45 -45,45 -24.85281,0 -45,-20.14718 -45,-45 0,-24.85281 20.14719,-45 45,-45 24.85281,0 45,20.14719 45,45 z"
       sodipodi:ry="45"
       sodipodi:rx="45"
       sodipodi:cy="294.09448"
       sodipodi:cx="140"
       id="path4974"
       style="fill:#000000;fill-opacity:1;stroke:none"
       sodipodi:type="arc" />
    <rect
       transform="matrix(0.95878247,-0.28414113,0.28414113,0.95878247,0,0)"
       ry="0.069836721"
       y="754.97388"
       x="-145.10422"
       height="70"
       width="10"
       id="rect4978-9"
       style="fill:#00a0ec;fill-opacity:0.63106791;stroke:none" />
    <rect
       transform="matrix(0.95878247,-0.28414113,0.28414113,0.95878247,0,0)"
       style="fill:#00a0ec;fill-opacity:0.63106791;stroke:none"
       id="rect4980-0"
       width="10"
       height="70"
       x="-120.10421"
       y="754.97388"
       ry="0.069836721" />
    <rect
       transform="matrix(0.95878247,-0.28414113,0.28414113,0.95878247,0,0)"
       ry="0.069836721"
       y="754.97388"
       x="-95.104218"
       height="70"
       width="10"
       id="rect4982-3"
       style="fill:#00a0ec;fill-opacity:0.63106791;stroke:none" />
    <path
       transform="matrix(0.04261255,-0.01262849,0.01262849,0.04261255,104.492,779.36277)"
       d="m 185,294.09448 c 0,24.85282 -20.14719,45 -45,45 -24.85281,0 -45,-20.14718 -45,-45 0,-24.85281 20.14719,-45 45,-45 24.85281,0 45,20.14719 45,45 z"
       sodipodi:ry="45"
       sodipodi:rx="45"
       sodipodi:cy="294.09448"
       sodipodi:cx="140"
       id="path4974-8-6"
       style="fill:#000000;fill-opacity:1;stroke:none"
       sodipodi:type="arc" />
    <path
       transform="matrix(0.04261255,-0.01262849,0.01262849,0.04261255,128.38864,772.32741)"
       d="m 185,294.09448 c 0,24.85282 -20.14719,45 -45,45 -24.85281,0 -45,-20.14718 -45,-45 0,-24.85281 20.14719,-45 45,-45 24.85281,0 45,20.14719 45,45 z"
       sodipodi:ry="45"
       sodipodi:rx="45"
       sodipodi:cy="294.09448"
       sodipodi:cx="140"
       id="path4974-8-8-4"
       style="fill:#000000;fill-opacity:1;stroke:none"
       sodipodi:type="arc" />
    <path
       transform="matrix(0.04261255,-0.01262849,0.01262849,0.04261255,152.33283,765.13828)"
       d="m 185,294.09448 c 0,24.85282 -20.14719,45 -45,45 -24.85281,0 -45,-20.14718 -45,-45 0,-24.85281 20.14719,-45 45,-45 24.85281,0 45,20.14719 45,45 z"
       sodipodi:ry="45"
       sodipodi:rx="45"
       sodipodi:cy="294.09448"
       sodipodi:cx="140"
       id="path4974-8-7-6"
       style="fill:#000000;fill-opacity:1;stroke:none"
       sodipodi:type="arc" />
    <path
       transform="matrix(0.04261255,-0.01262849,0.01262849,0.04261255,176.22948,758.10293)"
       d="m 185,294.09448 c 0,24.85282 -20.14719,45 -45,45 -24.85281,0 -45,-20.14718 -45,-45 0,-24.85281 20.14719,-45 45,-45 24.85281,0 45,20.14719 45,45 z"
       sodipodi:ry="45"
       sodipodi:rx="45"
       sodipodi:cy="294.09448"
       sodipodi:cx="140"
       id="path4974-8-85-2"
       style="fill:#000000;fill-opacity:1;stroke:none"
       sodipodi:type="arc" />
    <path
       transform="matrix(0.04261255,-0.01262849,0.01262849,0.04261255,200.37025,750.94866)"
       d="m 185,294.09448 c 0,24.85282 -20.14719,45 -45,45 -24.85281,0 -45,-20.14718 -45,-45 0,-24.85281 20.14719,-45 45,-45 24.85281,0 45,20.14719 45,45 z"
       sodipodi:ry="45"
       sodipodi:rx="45"
       sodipodi:cy="294.09448"
       sodipodi:cx="140"
       id="path4974-8-4-0"
       style="fill:#000000;fill-opacity:1;stroke:none"
       sodipodi:type="arc" />
    <path
       inkscape:connector-curvature="0"
       id="path4984-0"
       d="M 90.077195,797.23951 225.10645,757.22276"
       style="fill:none;stroke:#000000;stroke-width:0.99999994;stroke-linecap:butt;stroke-linejoin:miter;stroke-miterlimit:4;stroke-opacity:1;stroke-dasharray:1, 1;stroke-dashoffset:0" />
    <path
       transform="matrix(0.04261255,-0.01262849,0.01262849,0.04261255,80.479627,786.47899)"
       d="m 185,294.09448 c 0,24.85282 -20.14719,45 -45,45 -24.85281,0 -45,-20.14718 -45,-45 0,-24.85281 20.14719,-45 45,-45 24.85281,0 45,20.14719 45,45 z"
       sodipodi:ry="45"
       sodipodi:rx="45"
       sodipodi:cy="294.09448"
       sodipodi:cx="140"
       id="path4974-3"
       style="fill:#000000;fill-opacity:1;stroke:none"
       sodipodi:type="arc" />
    <path
       inkscape:connector-curvature="0"
       id="path2987-4"
       d="m 90.037324,797.42948 154.315976,0"
       style="fill:none;stroke:#0000c8;stroke-width:0.5;stroke-linecap:butt;stroke-linejoin:miter;stroke-miterlimit:4;stroke-opacity:1;stroke-dasharray:none;marker-end:url(#Arrow2Mendz)" />
    <path
       inkscape:connector-curvature="0"
       id="path4761-7"
       d="m 89.908381,797.57483 0,-55.45789"
       style="fill:none;stroke:#0000be;stroke-width:0.5;stroke-linecap:butt;stroke-linejoin:miter;stroke-miterlimit:4;stroke-opacity:1;stroke-dasharray:none;marker-end:url(#Arrow2Mendr)" />
    <text
       sodipodi:linespacing="125%"
       id="text4968-1-2"
       y="745.99963"
       x="94.102379"
       style="font-size:40px;font-style:normal;font-weight:normal;line-height:125%;letter-spacing:0px;word-spacing:0px;fill:#0000c8;fill-opacity:1;stroke:none;font-family:Sans"
       xml:space="preserve"><tspan
         style="font-size:8px;font-style:normal;font-variant:normal;font-weight:normal;font-stretch:normal;text-align:start;line-height:125%;writing-mode:lr-tb;text-anchor:start;fill:#0000c8;fill-opacity:1;font-family:Sans;-inkscape-font-specification:Sans"
         y="745.99963"
         x="94.102379"
         id="tspan4970-8-7"
         sodipodi:role="line">y</tspan></text>
    <text
       sodipodi:linespacing="125%"
       id="text4968-5"
       y="805.9256"
       x="235.53937"
       style="font-size:8px;font-style:normal;font-variant:normal;font-weight:normal;font-stretch:normal;text-align:start;line-height:125%;letter-spacing:0px;word-spacing:0px;writing-mode:lr-tb;text-anchor:start;fill:#0000c8;fill-opacity:1;stroke:none;font-family:Sans;-inkscape-font-specification:Sans"
       xml:space="preserve"><tspan
         style="font-size:8px;font-style:normal;font-variant:normal;font-weight:normal;font-stretch:normal;text-align:start;line-height:125%;writing-mode:lr-tb;text-anchor:start;fill:#0000c8;fill-opacity:1;font-family:Sans;-inkscape-font-specification:Sans"
         y="805.9256"
         x="235.53937"
         id="tspan4970-4"
         sodipodi:role="line">x</tspan></text>
    <path
       transform="translate(0,308.2677)"
       inkscape:connector-curvature="0"
       id="path7252"
       d="m 44.821429,374.09448 20,0.17857"
       style="stroke-linejoin:miter;marker-end:url(#marker70241);stroke-opacity:1;stroke:#d50000;stroke-linecap:butt;stroke-width:1px;fill:none" />
    <text
       sodipodi:linespacing="125%"
       id="text6122-7"
       y="690.80316"
       x="45.827705"
       style="font-size:40px;font-style:normal;font-weight:normal;line-height:125%;letter-spacing:0px;word-spacing:0px;fill:#000000;fill-opacity:1;stroke:none;font-family:Sans"
       xml:space="preserve"><tspan
         style="font-size:6px;font-style:normal;font-variant:normal;font-weight:normal;font-stretch:normal;text-align:start;line-height:125%;writing-mode:lr-tb;text-anchor:start;font-family:Sans;-inkscape-font-specification:Sans"
         y="690.80316"
         x="45.827705"
         id="tspan6124-9"
         sodipodi:role="line">beam</tspan></text>
    <path
       inkscape:connector-curvature="0"
       id="path7252-7"
       d="m 45.052437,797.30405 20,0.17857"
       style="fill:none;stroke:#d50000;stroke-width:1px;stroke-linecap:butt;stroke-linejoin:miter;stroke-opacity:1;marker-end:url(#marker70241)"
       inkscape:transform-center-y="-6.6908913" />
    <text
       sodipodi:linespacing="125%"
       id="text6122-7-9"
       y="805.745"
       x="46.058712"
       style="font-size:40px;font-style:normal;font-weight:normal;line-height:125%;letter-spacing:0px;word-spacing:0px;fill:#000000;fill-opacity:1;stroke:none;font-family:Sans"
       xml:space="preserve"
       inkscape:transform-center-x="0.96989378"
       inkscape:transform-center-y="-0.60899333"><tspan
         style="font-size:6px;font-style:normal;font-variant:normal;font-weight:normal;font-stretch:normal;text-align:start;line-height:125%;writing-mode:lr-tb;text-anchor:start;font-family:Sans;-inkscape-font-specification:Sans"
         y="805.745"
         x="46.058712"
         id="tspan6124-9-9"
         sodipodi:role="line">beam</tspan></text>
    <path
       style="fill:none;stroke:#000000;stroke-width:0.49999997;stroke-linecap:butt;stroke-linejoin:miter;stroke-miterlimit:4;stroke-opacity:1;stroke-dasharray:0.5, 0.5;stroke-dashoffset:0;marker-end:url(#marker7024)"
       d="m 166.28291,797.17237 c 0,0 -0.002,-6.73366 -0.7765,-10.31173 -0.60623,-2.8011 -2.77321,-8.47854 -2.77321,-8.47854"
       id="path7952"
       inkscape:connector-curvature="0"
       sodipodi:nodetypes="csc" />
    <text
       xml:space="preserve"
       style="font-size:40px;font-style:normal;font-weight:normal;line-height:125%;letter-spacing:0px;word-spacing:0px;fill:#000000;fill-opacity:1;stroke:none;font-family:Sans"
       x="168.94801"
       y="788.45984"
       id="text8181"
       sodipodi:linespacing="125%"><tspan
         sodipodi:role="line"
         id="tspan8183"
         x="168.94801"
         y="788.45984"
         style="font-size:8px;font-style:normal;font-variant:normal;font-weight:normal;font-stretch:normal;text-align:start;line-height:125%;writing-mode:lr-tb;text-anchor:start;font-family:Sans;-inkscape-font-specification:Sans">ξ</tspan></text>
  </g>
</svg>
