<?xml version="1.0" encoding="UTF-8" standalone="no"?>
<!-- Created with Inkscape (http://www.inkscape.org/) -->

<svg
   xmlns:dc="http://purl.org/dc/elements/1.1/"
   xmlns:cc="http://creativecommons.org/ns#"
   xmlns:rdf="http://www.w3.org/1999/02/22-rdf-syntax-ns#"
   xmlns:svg="http://www.w3.org/2000/svg"
   xmlns="http://www.w3.org/2000/svg"
   xmlns:xlink="http://www.w3.org/1999/xlink"
   xmlns:sodipodi="http://sodipodi.sourceforge.net/DTD/sodipodi-0.dtd"
   xmlns:inkscape="http://www.inkscape.org/namespaces/inkscape"
   width="16"
   height="16"
   id="svg2985"
   version="1.1"
   inkscape:version="0.48.4 r9939"
   sodipodi:docname="toolbar_pointer.svg">
  <defs
     id="defs2987">
    <linearGradient
       id="linearGradient4619">
      <stop
         style="stop-color:#c3c3c3;stop-opacity:1;"
         offset="0"
         id="stop4621" />
      <stop
         style="stop-color:#ffffff;stop-opacity:1;"
         offset="1"
         id="stop4623" />
    </linearGradient>
    <linearGradient
       id="linearGradient4592">
      <stop
         style="stop-color:#c3c3c3;stop-opacity:1;"
         offset="0"
         id="stop4594" />
      <stop
         style="stop-color:#fafafa;stop-opacity:0.98039216;"
         offset="1"
         id="stop4596" />
    </linearGradient>
    <linearGradient
       inkscape:collect="always"
       xlink:href="#linearGradient4592"
       id="linearGradient4598"
       x1="45"
       y1="48"
       x2="2"
       y2="-3"
       gradientUnits="userSpaceOnUse"
       gradientTransform="translate(10.909648,55.154329)" />
    <linearGradient
       inkscape:collect="always"
       xlink:href="#linearGradient4619"
       id="linearGradient4625"
       x1="29"
       y1="43"
       x2="29"
       y2="35"
       gradientUnits="userSpaceOnUse"
       gradientTransform="matrix(0.9869024,0,0,0.88776083,14.858206,-1.0006961)" />
    <linearGradient
       inkscape:collect="always"
       xlink:href="#linearGradient4619"
       id="linearGradient4656"
       x1="22"
       y1="38"
       x2="22"
       y2="26"
       gradientUnits="userSpaceOnUse"
       gradientTransform="matrix(0.62685746,0,0,0.94809312,-12.449527,-7.6976699)" />
    <linearGradient
       inkscape:collect="always"
       xlink:href="#linearGradient4619"
       id="linearGradient4668"
       gradientUnits="userSpaceOnUse"
       x1="22"
       y1="38"
       x2="22"
       y2="26"
       gradientTransform="matrix(1,0,0,1.4537913,18.3876,-22.652505)" />
    <linearGradient
       inkscape:collect="always"
       xlink:href="#linearGradient4619"
       id="linearGradient4672"
       gradientUnits="userSpaceOnUse"
       gradientTransform="matrix(1,0,0,0.79979796,22.377703,2.0874223)"
       x1="22"
       y1="38"
       x2="22"
       y2="26" />
    <linearGradient
       inkscape:collect="always"
       xlink:href="#linearGradient4619"
       id="linearGradient4676"
       gradientUnits="userSpaceOnUse"
       gradientTransform="matrix(1.0164907,0,0,0.3860471,26.03748,17.720659)"
       x1="22"
       y1="38"
       x2="22"
       y2="26" />
    <linearGradient
       inkscape:collect="always"
       xlink:href="#linearGradient4619"
       id="linearGradient4680"
       gradientUnits="userSpaceOnUse"
       gradientTransform="matrix(1,0,0,1.1601616,30.256893,-11.572613)"
       x1="22"
       y1="38"
       x2="22"
       y2="26" />
    <linearGradient
       inkscape:collect="always"
       xlink:href="#linearGradient4619"
       id="linearGradient4700"
       gradientUnits="userSpaceOnUse"
       x1="11"
       y1="12"
       x2="11"
       y2="6"
       gradientTransform="translate(15.508666,0.29673785)" />
    <linearGradient
       inkscape:collect="always"
       xlink:href="#linearGradient4619"
       id="linearGradient4704"
       gradientUnits="userSpaceOnUse"
       gradientTransform="translate(15.508666,4.2449983)"
       x1="11"
       y1="12"
       x2="11"
       y2="6" />
    <linearGradient
       inkscape:collect="always"
       xlink:href="#linearGradient4619"
       id="linearGradient4708"
       gradientUnits="userSpaceOnUse"
       gradientTransform="translate(-0.90913729,12.020815)"
       x1="11"
       y1="12"
       x2="11"
       y2="6" />
    <linearGradient
       inkscape:collect="always"
       xlink:href="#linearGradient4619"
       id="linearGradient4712"
       gradientUnits="userSpaceOnUse"
       x1="11"
       y1="12"
       x2="11"
       y2="6"
       gradientTransform="matrix(4.6365492,0,0,0.66328254,-16.517836,-0.93725566)" />
    <linearGradient
       inkscape:collect="always"
       xlink:href="#linearGradient4619"
       id="linearGradient4716"
       gradientUnits="userSpaceOnUse"
       gradientTransform="matrix(4.6702208,0,0,0.66328257,-16.95234,3.0023381)"
       x1="11"
       y1="12"
       x2="11"
       y2="6" />
    <linearGradient
       inkscape:collect="always"
       xlink:href="#linearGradient4619"
       id="linearGradient4720"
       gradientUnits="userSpaceOnUse"
       gradientTransform="matrix(4.6702208,0,0,0.71090166,-16.851325,6.6321668)"
       x1="11"
       y1="12"
       x2="11"
       y2="6" />
    <linearGradient
       inkscape:collect="always"
       xlink:href="#linearGradient4619"
       id="linearGradient4724"
       gradientUnits="userSpaceOnUse"
       gradientTransform="matrix(4.3671751,0,0,0.36023659,-29.207084,18.152322)"
       x1="11"
       y1="12"
       x2="11"
       y2="6" />
    <linearGradient
       inkscape:collect="always"
       xlink:href="#linearGradient4619"
       id="linearGradient4726"
       gradientUnits="userSpaceOnUse"
       x1="11"
       y1="12"
       x2="11"
       y2="6"
       gradientTransform="translate(15.508666,-3.5505077)" />
    <linearGradient
       inkscape:collect="always"
       xlink:href="#linearGradient4619"
       id="linearGradient4759"
       x1="-12"
       y1="130"
       x2="-53"
       y2="80"
       gradientUnits="userSpaceOnUse"
       gradientTransform="matrix(0.99471384,0,0,1,69.141448,-85.657091)" />
    <linearGradient
       inkscape:collect="always"
       xlink:href="#linearGradient4619"
       id="linearGradient4765"
       gradientUnits="userSpaceOnUse"
       gradientTransform="translate(15.437237,8.3570368)"
       x1="11"
       y1="12"
       x2="11"
       y2="6" />
    <linearGradient
       inkscape:collect="always"
       xlink:href="#linearGradient4619"
       id="linearGradient4767"
       gradientUnits="userSpaceOnUse"
       gradientTransform="matrix(4.6365491,0,0,0.7347112,-16.517838,10.410751)"
       x1="11"
       y1="12"
       x2="11"
       y2="6" />
    <linearGradient
       inkscape:collect="always"
       xlink:href="#linearGradient4619"
       id="linearGradient3052"
       gradientUnits="userSpaceOnUse"
       gradientTransform="matrix(0.65017886,0,0,1.1934711,-7.0238202,-19.963314)"
       x1="22"
       y1="38"
       x2="22"
       y2="26" />
    <linearGradient
       inkscape:collect="always"
       xlink:href="#linearGradient4619"
       id="linearGradient3056"
       gradientUnits="userSpaceOnUse"
       gradientTransform="matrix(0.59174541,-0.57615929,1.2570766,1.2463046,-46.888941,10.596382)"
       x1="21.556009"
       y1="32.141224"
       x2="21.209343"
       y2="43.517174" />
    <linearGradient
       inkscape:collect="always"
       xlink:href="#linearGradient4619"
       id="linearGradient3060"
       gradientUnits="userSpaceOnUse"
       gradientTransform="matrix(0.65017886,0,0,1.0471881,-10.988106,2.2960125)"
       x1="21.625385"
       y1="32.712341"
       x2="21.73777"
       y2="45.918842" />
    <linearGradient
       inkscape:collect="always"
       xlink:href="#linearGradient4619"
       id="linearGradient3063"
       gradientUnits="userSpaceOnUse"
       gradientTransform="matrix(0.66208822,0,0,1.1934971,-10.226661,-19.964316)"
       x1="22"
       y1="38"
       x2="22"
       y2="26" />
    <linearGradient
       inkscape:collect="always"
       xlink:href="#linearGradient4619"
       id="linearGradient3067"
       gradientUnits="userSpaceOnUse"
       gradientTransform="matrix(0,0.62685746,-0.61777663,0,23.807484,13.761641)"
       x1="21.943026"
       y1="41.468658"
       x2="21.886053"
       y2="19.814222" />
    <linearGradient
       inkscape:collect="always"
       xlink:href="#linearGradient4619"
       id="linearGradient3071"
       gradientUnits="userSpaceOnUse"
       gradientTransform="matrix(0.62685746,0,0,0.4762124,-9.4495267,12.189559)"
       x1="21.886053"
       y1="34.025185"
       x2="22"
       y2="26" />
    <linearGradient
       inkscape:collect="always"
       xlink:href="#linearGradient4619"
       id="linearGradient3094"
       gradientUnits="userSpaceOnUse"
       gradientTransform="matrix(0,0.66183962,-1.0707821,0,42.586367,20.739488)"
       x1="22.112387"
       y1="35.53643"
       x2="22.22477"
       y2="20.952692" />
    <linearGradient
       inkscape:collect="always"
       xlink:href="#linearGradient4619"
       id="linearGradient3121"
       gradientUnits="userSpaceOnUse"
       gradientTransform="matrix(0.69005948,-0.67245431,1.4201209,1.4075539,-53.070729,-8.4925184)"
       x1="21.556009"
       y1="32.141224"
       x2="21.209343"
       y2="43.517174" />
    <linearGradient
       inkscape:collect="always"
       xlink:href="#linearGradient4619"
       id="linearGradient3123"
       gradientUnits="userSpaceOnUse"
       gradientTransform="matrix(0.95335715,0,0,1.1887523,-17.132487,-19.248728)"
       x1="21.625385"
       y1="32.712341"
       x2="21.73777"
       y2="45.918842" />
    <linearGradient
       inkscape:collect="always"
       xlink:href="#linearGradient4619"
       id="linearGradient3125"
       gradientUnits="userSpaceOnUse"
       gradientTransform="matrix(0,0.95335715,-1.1887523,0,46.986745,-2.2784594)"
       x1="22.112387"
       y1="35.53643"
       x2="22.22477"
       y2="20.952692" />
  </defs>
  <sodipodi:namedview
     id="base"
     pagecolor="#ffffff"
     bordercolor="#666666"
     borderopacity="1.0"
     inkscape:pageopacity="0.0"
     inkscape:pageshadow="2"
     inkscape:zoom="28"
     inkscape:cx="21.230601"
     inkscape:cy="14.356689"
     inkscape:current-layer="layer1"
     showgrid="true"
     inkscape:grid-bbox="true"
     inkscape:document-units="px"
     inkscape:window-width="1866"
     inkscape:window-height="1129"
     inkscape:window-x="-2"
     inkscape:window-y="-3"
     inkscape:window-maximized="1"
     inkscape:snap-global="false">
    <inkscape:grid
       type="xygrid"
       id="grid3012"
       empspacing="5"
       visible="true"
       enabled="true"
       snapvisiblegridlinesonly="true" />
  </sodipodi:namedview>
  <metadata
     id="metadata2990">
    <rdf:RDF>
      <cc:Work
         rdf:about="">
        <dc:format>image/svg+xml</dc:format>
        <dc:type
           rdf:resource="http://purl.org/dc/dcmitype/StillImage" />
        <dc:title></dc:title>
      </cc:Work>
    </rdf:RDF>
  </metadata>
  <g
     id="layer1"
     inkscape:label="Layer 1"
     inkscape:groupmode="layer"
     transform="translate(0,-32)">
    <path
       style="font-size:medium;font-style:normal;font-variant:normal;font-weight:normal;font-stretch:normal;text-indent:0;text-align:start;text-decoration:none;line-height:normal;letter-spacing:normal;word-spacing:normal;text-transform:none;direction:ltr;block-progression:tb;writing-mode:lr-tb;text-anchor:start;baseline-shift:baseline;color:#000000;fill:#000000;fill-opacity:1;fill-rule:evenodd;stroke:none;stroke-width:5;marker:none;visibility:visible;display:inline;overflow:visible;enable-background:accumulate;font-family:Sans;-inkscape-font-specification:Sans"
       d="m -55.247193,-7.9794128 c -1.223508,0.123064 -2.25605,1.2703327 -2.25,2.5 l 0,36.9687498 c 1.31e-4,1.308961 1.191039,2.499869 2.5,2.5 l 32.9375,0 c 1.308961,-1.31e-4 2.499869,-1.191039 2.5,-2.5 l 0,-36.9687498 c -1.31e-4,-1.3089612 -1.191039,-2.4998691 -2.5,-2.5 l -32.9375,0 c -0.08326,-0.00417 -0.166736,-0.00417 -0.25,0 z m -0.28125,1.96875 34,0 0,37.9999998 -34,0 z"
       inkscape:connector-curvature="0"
       sodipodi:nodetypes="ccccccccccccccc"
       id="path32" />
    <path
       style="font-size:medium;font-style:normal;font-variant:normal;font-weight:normal;font-stretch:normal;text-indent:0;text-align:start;text-decoration:none;line-height:normal;letter-spacing:normal;word-spacing:normal;text-transform:none;direction:ltr;block-progression:tb;writing-mode:lr-tb;text-anchor:start;baseline-shift:baseline;color:#000000;fill:url(#linearGradient4598);fill-opacity:1;fill-rule:nonzero;stroke:none;stroke-width:5.00000048;marker:none;visibility:visible;display:inline;overflow:visible;enable-background:accumulate;font-family:Sans;-inkscape-font-specification:Sans"
       d="m 18.472148,58.248079 c -1.308962,1.31e-4 -2.499869,1.191039 -2.5,2.5 l 0,37.03125 c 1.31e-4,1.308961 1.191038,2.499871 2.5,2.500001 l 33.21875,0 c 1.308961,-1.3e-4 2.499869,-1.19104 2.5,-2.500001 l 0,-37.03125 c -1.31e-4,-1.308961 -1.191039,-2.499869 -2.5,-2.5 l -33.21875,0 z m 0.8125,2 31.1875,0 c 0.785377,7.8e-5 1.499921,0.714623 1.5,1.5 l 0,35.21875 c -7.9e-5,0.785377 -0.714623,1.499921 -1.5,1.5 l -31.1875,0 c -0.785376,-7.9e-5 -1.499921,-0.714623 -1.5,-1.5 l 0,-35.21875 c 7.9e-5,-0.785377 0.714624,-1.499922 1.5,-1.5 z"
       id="rect4554"
       inkscape:connector-curvature="0" />
    <path
       sodipodi:nodetypes="ccccccccc"
       inkscape:connector-curvature="0"
       id="path4586"
       d="m -49.410104,36.93386 c -1.308961,1.31e-4 -2.499869,1.191039 -2.5,2.5 l 0,37.03125 c 1.31e-4,1.308961 1.191039,2.499869 2.5,2.5 l 33.21875,0 c 1.308961,-1.31e-4 2.499869,-1.191039 2.5,-2.5 l 0,-37.03125 c -1.31e-4,-1.308961 -1.191039,-2.499869 -2.5,-2.5 z"
       style="font-size:medium;font-style:normal;font-variant:normal;font-weight:normal;font-stretch:normal;text-indent:0;text-align:start;text-decoration:none;line-height:normal;letter-spacing:normal;word-spacing:normal;text-transform:none;direction:ltr;block-progression:tb;writing-mode:lr-tb;text-anchor:start;baseline-shift:baseline;color:#000000;fill:#000000;fill-opacity:1;fill-rule:nonzero;stroke:none;stroke-width:5.00000048;marker:none;visibility:visible;display:inline;overflow:visible;enable-background:accumulate;font-family:Sans;-inkscape-font-specification:Sans" />
    <path
       sodipodi:nodetypes="ccccccccc"
       inkscape:connector-curvature="0"
       id="path4588"
       d="m -47.582343,40.059559 c -0.738965,7.4e-5 -1.411284,0.67118 -1.411358,1.408814 l 0,33.077771 c 7.4e-5,0.737634 0.672393,1.408739 1.411358,1.408814 l 29.344479,0 c 0.738965,-7.5e-5 1.411284,-0.67118 1.411358,-1.408814 l 0,-33.077771 c -7.4e-5,-0.737634 -0.672393,-1.40874 -1.411358,-1.408814 z"
       style="font-size:medium;font-style:normal;font-variant:normal;font-weight:normal;font-stretch:normal;text-indent:0;text-align:start;text-decoration:none;line-height:normal;letter-spacing:normal;word-spacing:normal;text-transform:none;direction:ltr;block-progression:tb;writing-mode:lr-tb;text-anchor:start;baseline-shift:baseline;color:#000000;fill:#00c000;fill-opacity:1;fill-rule:nonzero;stroke:none;stroke-width:3;marker:none;visibility:visible;display:inline;overflow:visible;enable-background:accumulate;font-family:Sans;-inkscape-font-specification:Sans" />
    <path
       style="font-size:medium;font-style:normal;font-variant:normal;font-weight:normal;font-stretch:normal;text-indent:0;text-align:start;text-decoration:none;line-height:normal;letter-spacing:normal;word-spacing:normal;text-transform:none;direction:ltr;block-progression:tb;writing-mode:lr-tb;text-anchor:start;baseline-shift:baseline;color:#000000;fill:url(#linearGradient4625);fill-opacity:1;fill-rule:nonzero;stroke:none;stroke-width:1;marker:none;visibility:visible;display:inline;overflow:visible;enable-background:accumulate;font-family:Sans;-inkscape-font-specification:Sans"
       d="m 34.349528,33.400036 0,0.44388 0,1.109701 0,0.443881 0.493451,0 18.04181,0 0.493451,0 0,-0.443881 0,-1.109701 0,-0.44388 -0.493451,0 -18.04181,0 z"
       id="rect4603"
       inkscape:connector-curvature="0"
       sodipodi:nodetypes="ccccccccccccc" />
    <path
       inkscape:connector-curvature="0"
       id="path4666"
       d="m 39.2001,21.460975 a 1.0001,1.4539366 0 0 0 -0.78125,1.453791 l 0,8.086714 a 1.0001,1.4539366 0 0 0 1,1.453791 l 1.0625,0 a 1.0001,1.4539366 0 0 0 1,-1.453791 l 0,-8.086714 a 1.0001,1.4539366 0 0 0 -1,-1.453791 l -1.0625,0 a 1.0001,1.4539366 0 0 0 -0.21875,0 z"
       style="font-size:medium;font-style:normal;font-variant:normal;font-weight:normal;font-stretch:normal;text-indent:0;text-align:start;text-decoration:none;line-height:normal;letter-spacing:normal;word-spacing:normal;text-transform:none;direction:ltr;block-progression:tb;writing-mode:lr-tb;text-anchor:start;baseline-shift:baseline;color:#000000;fill:url(#linearGradient4668);fill-opacity:1;fill-rule:nonzero;stroke:none;stroke-width:2;marker:none;visibility:visible;display:inline;overflow:visible;enable-background:accumulate;font-family:Sans;-inkscape-font-specification:Sans" />
    <path
       style="font-size:medium;font-style:normal;font-variant:normal;font-weight:normal;font-stretch:normal;text-indent:0;text-align:start;text-decoration:none;line-height:normal;letter-spacing:normal;word-spacing:normal;text-transform:none;direction:ltr;block-progression:tb;writing-mode:lr-tb;text-anchor:start;baseline-shift:baseline;color:#000000;fill:url(#linearGradient4672);fill-opacity:1;fill-rule:nonzero;stroke:none;stroke-width:2;marker:none;visibility:visible;display:inline;overflow:visible;enable-background:accumulate;font-family:Sans;-inkscape-font-specification:Sans"
       d="m 43.190203,26.356292 a 1.0001,0.7998779 0 0 0 -0.78125,0.799798 l 0,4.448876 a 1.0001,0.7998779 0 0 0 1,0.799798 l 1.0625,0 a 1.0001,0.7998779 0 0 0 1,-0.799798 l 0,-4.448876 a 1.0001,0.7998779 0 0 0 -1,-0.799798 l -1.0625,0 a 1.0001,0.7998779 0 0 0 -0.21875,0 z"
       id="path4670"
       inkscape:connector-curvature="0" />
    <path
       inkscape:connector-curvature="0"
       id="path4674"
       d="m 47.193195,29.434775 a 1.0165924,0.38608568 0 0 0 -0.794134,0.386047 l 0,2.147387 a 1.0165924,0.38608568 0 0 0 1.01649,0.386047 l 1.080022,0 a 1.0165924,0.38608568 0 0 0 1.016491,-0.386047 l 0,-2.147387 a 1.0165924,0.38608568 0 0 0 -1.016491,-0.386047 l -1.080022,0 a 1.0165924,0.38608568 0 0 0 -0.222356,0 z"
       style="font-size:medium;font-style:normal;font-variant:normal;font-weight:normal;font-stretch:normal;text-indent:0;text-align:start;text-decoration:none;line-height:normal;letter-spacing:normal;word-spacing:normal;text-transform:none;direction:ltr;block-progression:tb;writing-mode:lr-tb;text-anchor:start;baseline-shift:baseline;color:#000000;fill:url(#linearGradient4676);fill-opacity:1;fill-rule:nonzero;stroke:none;stroke-width:2;marker:none;visibility:visible;display:inline;overflow:visible;enable-background:accumulate;font-family:Sans;-inkscape-font-specification:Sans" />
    <path
       inkscape:connector-curvature="0"
       id="path4678"
       d="m 51.069393,23.631042 a 1.0001,1.1602776 0 0 0 -0.78125,1.160162 l 0,6.453398 a 1.0001,1.1602776 0 0 0 1,1.160162 l 1.0625,0 a 1.0001,1.1602776 0 0 0 1,-1.160162 l 0,-6.453398 a 1.0001,1.1602776 0 0 0 -1,-1.160162 l -1.0625,0 a 1.0001,1.1602776 0 0 0 -0.21875,0 z"
       style="font-size:medium;font-style:normal;font-variant:normal;font-weight:normal;font-stretch:normal;text-indent:0;text-align:start;text-decoration:none;line-height:normal;letter-spacing:normal;word-spacing:normal;text-transform:none;direction:ltr;block-progression:tb;writing-mode:lr-tb;text-anchor:start;baseline-shift:baseline;color:#000000;fill:url(#linearGradient4680);fill-opacity:1;fill-rule:nonzero;stroke:none;stroke-width:2;marker:none;visibility:visible;display:inline;overflow:visible;enable-background:accumulate;font-family:Sans;-inkscape-font-specification:Sans" />
    <path
       sodipodi:nodetypes="ccccccccccccc"
       inkscape:connector-curvature="0"
       id="path4696"
       d="m 25.412727,4.4545686 0,0.5 0,1.9999992 0,0.5 0.5,0 1.999999,0 0.5,0 0,-0.5 0,-1.9999992 0,-0.5 -0.5,0 -1.999999,0 z"
       style="font-size:medium;font-style:normal;font-variant:normal;font-weight:normal;font-stretch:normal;text-indent:0;text-align:start;text-decoration:none;line-height:normal;letter-spacing:normal;word-spacing:normal;text-transform:none;direction:ltr;block-progression:tb;writing-mode:lr-tb;text-anchor:start;baseline-shift:baseline;color:#000000;fill:url(#linearGradient4726);fill-opacity:1;fill-rule:nonzero;stroke:none;stroke-width:1;marker:none;visibility:visible;display:inline;overflow:visible;enable-background:accumulate;font-family:Sans;-inkscape-font-specification:Sans" />
    <path
       style="font-size:medium;font-style:normal;font-variant:normal;font-weight:normal;font-stretch:normal;text-indent:0;text-align:start;text-decoration:none;line-height:normal;letter-spacing:normal;word-spacing:normal;text-transform:none;direction:ltr;block-progression:tb;writing-mode:lr-tb;text-anchor:start;baseline-shift:baseline;color:#000000;fill:url(#linearGradient4700);fill-opacity:1;fill-rule:nonzero;stroke:none;stroke-width:1;marker:none;visibility:visible;display:inline;overflow:visible;enable-background:accumulate;font-family:Sans;-inkscape-font-specification:Sans"
       d="m 25.412727,8.3018128 0,0.5 0,2.0000002 0,0.5 0.5,0 1.999999,0 0.5,0 0,-0.5 0,-2.0000002 0,-0.5 -0.5,0 -1.999999,0 z"
       id="path4698"
       inkscape:connector-curvature="0"
       sodipodi:nodetypes="ccccccccccccc" />
    <path
       sodipodi:nodetypes="ccccccccccccc"
       inkscape:connector-curvature="0"
       id="path4702"
       d="m 25.412727,12.250074 0,0.5 0,2 0,0.5 0.5,0 1.999999,0 0.5,0 0,-0.5 0,-2 0,-0.5 -0.5,0 -1.999999,0 z"
       style="font-size:medium;font-style:normal;font-variant:normal;font-weight:normal;font-stretch:normal;text-indent:0;text-align:start;text-decoration:none;line-height:normal;letter-spacing:normal;word-spacing:normal;text-transform:none;direction:ltr;block-progression:tb;writing-mode:lr-tb;text-anchor:start;baseline-shift:baseline;color:#000000;fill:url(#linearGradient4704);fill-opacity:1;fill-rule:nonzero;stroke:none;stroke-width:1;marker:none;visibility:visible;display:inline;overflow:visible;enable-background:accumulate;font-family:Sans;-inkscape-font-specification:Sans" />
    <path
       style="font-size:medium;font-style:normal;font-variant:normal;font-weight:normal;font-stretch:normal;text-indent:0;text-align:start;text-decoration:none;line-height:normal;letter-spacing:normal;word-spacing:normal;text-transform:none;direction:ltr;block-progression:tb;writing-mode:lr-tb;text-anchor:start;baseline-shift:baseline;color:#000000;fill:url(#linearGradient4712);fill-opacity:1;fill-rule:nonzero;stroke:none;stroke-width:1;marker:none;visibility:visible;display:inline;overflow:visible;enable-background:accumulate;font-family:Sans;-inkscape-font-specification:Sans"
       d="m 29.402829,4.3723717 0,0.3316413 0,1.3265648 0,0.33164 2.318275,0 9.273097,0 2.318276,0 0,-0.33164 0,-1.3265648 0,-0.3316413 -2.318276,0 -9.273097,0 z"
       id="path4710"
       inkscape:connector-curvature="0"
       sodipodi:nodetypes="ccccccccccccc" />
    <path
       sodipodi:nodetypes="ccccccccccccc"
       inkscape:connector-curvature="0"
       id="path4714"
       d="m 29.301813,8.3119668 0,0.331641 0,1.326564 0,0.3316412 2.33511,0 9.340441,0 2.335112,0 0,-0.3316412 0,-1.326564 0,-0.331641 -2.335112,0 -9.340441,0 z"
       style="font-size:medium;font-style:normal;font-variant:normal;font-weight:normal;font-stretch:normal;text-indent:0;text-align:start;text-decoration:none;line-height:normal;letter-spacing:normal;word-spacing:normal;text-transform:none;direction:ltr;block-progression:tb;writing-mode:lr-tb;text-anchor:start;baseline-shift:baseline;color:#000000;fill:url(#linearGradient4716);fill-opacity:1;fill-rule:nonzero;stroke:none;stroke-width:1;marker:none;visibility:visible;display:inline;overflow:visible;enable-background:accumulate;font-family:Sans;-inkscape-font-specification:Sans" />
    <path
       style="font-size:medium;font-style:normal;font-variant:normal;font-weight:normal;font-stretch:normal;text-indent:0;text-align:start;text-decoration:none;line-height:normal;letter-spacing:normal;word-spacing:normal;text-transform:none;direction:ltr;block-progression:tb;writing-mode:lr-tb;text-anchor:start;baseline-shift:baseline;color:#000000;fill:url(#linearGradient4720);fill-opacity:1;fill-rule:nonzero;stroke:none;stroke-width:1;marker:none;visibility:visible;display:inline;overflow:visible;enable-background:accumulate;font-family:Sans;-inkscape-font-specification:Sans"
       d="m 29.402828,12.322991 0,0.355451 0,1.421803 0,0.355449 2.33511,0 9.340441,0 2.335112,0 0,-0.355449 0,-1.421803 0,-0.355451 -2.335112,0 -9.340441,0 z"
       id="path4718"
       inkscape:connector-curvature="0"
       sodipodi:nodetypes="ccccccccccccc" />
    <path
       style="font-size:medium;font-style:normal;font-variant:normal;font-weight:normal;font-stretch:normal;text-indent:0;text-align:start;text-decoration:none;line-height:normal;letter-spacing:normal;word-spacing:normal;text-transform:none;direction:ltr;block-progression:tb;writing-mode:lr-tb;text-anchor:start;baseline-shift:baseline;color:#000000;fill:url(#linearGradient4759);fill-opacity:1;fill-rule:nonzero;stroke:none;stroke-width:5.00000048;marker:none;visibility:visible;display:inline;overflow:visible;enable-background:accumulate;font-family:Sans;-inkscape-font-specification:Sans"
       d="m 22.918339,-1.6570914 c -1.302042,1.31e-4 -2.486655,1.19103905 -2.486785,2.50000005 l 0,37.03125035 c 1.3e-4,1.30896 1.184743,2.49987 2.486785,2.5 l 33.043151,0 c 1.302042,-1.3e-4 2.486654,-1.19104 2.486784,-2.5 l 0,-37.03125035 c -1.3e-4,-1.308961 -1.184742,-2.49986905 -2.486784,-2.50000005 l -33.043151,0 z m 1.802918,3.125 29.188636,0 c 0.735058,7.4e-5 1.398742,0.668616 1.398816,1.40625 l 0,33.0937504 c -7.4e-5,0.73764 -0.663758,1.40617 -1.398816,1.40625 l -29.188636,0 c -0.735058,-8e-5 -1.398742,-0.66861 -1.398816,-1.40625 l 0,-33.0937504 c 7.4e-5,-0.737634 0.663758,-1.406176 1.398816,-1.40625 z"
       id="path4748"
       inkscape:connector-curvature="0" />
    <path
       style="font-size:medium;font-style:normal;font-variant:normal;font-weight:normal;font-stretch:normal;text-indent:0;text-align:start;text-decoration:none;line-height:normal;letter-spacing:normal;word-spacing:normal;text-transform:none;direction:ltr;block-progression:tb;writing-mode:lr-tb;text-anchor:start;baseline-shift:baseline;color:#000000;fill:url(#linearGradient4765);fill-opacity:1;fill-rule:nonzero;stroke:none;stroke-width:1;marker:none;visibility:visible;display:inline;overflow:visible;enable-background:accumulate;font-family:Sans;-inkscape-font-specification:Sans"
       d="m 25.341298,16.362112 0,0.5 0,2 0,0.5 0.5,0 1.999999,0 0.5,0 0,-0.5 0,-2 0,-0.5 -0.5,0 -1.999999,0 z"
       id="path4761"
       inkscape:connector-curvature="0"
       sodipodi:nodetypes="ccccccccccccc" />
    <path
       sodipodi:nodetypes="ccccccccccccc"
       inkscape:connector-curvature="0"
       id="path4763"
       d="m 29.402828,16.292172 0,0.367355 0,1.469423 0,0.367354 2.318274,0 9.273098,0 2.318276,0 0,-0.367354 0,-1.469423 0,-0.367355 -2.318276,0 -9.273098,0 z"
       style="font-size:medium;font-style:normal;font-variant:normal;font-weight:normal;font-stretch:normal;text-indent:0;text-align:start;text-decoration:none;line-height:normal;letter-spacing:normal;word-spacing:normal;text-transform:none;direction:ltr;block-progression:tb;writing-mode:lr-tb;text-anchor:start;baseline-shift:baseline;color:#000000;fill:url(#linearGradient4767);fill-opacity:1;fill-rule:nonzero;stroke:none;stroke-width:1;marker:none;visibility:visible;display:inline;overflow:visible;enable-background:accumulate;font-family:Sans;-inkscape-font-specification:Sans" />
    <path
       inkscape:connector-curvature="0"
       id="path3054"
       d="m 3.5711821,36.422619 a 1.7704279,0.82582505 44.472215 0 0 0.7947729,1.696429 l 6.992487,6.932572 a 1.7704279,0.82582505 44.472215 0 0 1.848823,0.670146 l 0.628737,-0.612162 A 1.7704279,0.82582505 44.472215 0 0 13.170666,43.287136 L 6.1781743,36.354563 A 1.7704279,0.82582505 44.472215 0 0 4.3293574,35.684418 l -0.6287376,0.612163 a 1.7704279,0.82582505 44.472215 0 0 -0.1294357,0.126042 z"
       style="font-size:medium;font-style:normal;font-variant:normal;font-weight:normal;font-stretch:normal;text-indent:0;text-align:start;text-decoration:none;line-height:normal;letter-spacing:normal;word-spacing:normal;text-transform:none;direction:ltr;block-progression:tb;writing-mode:lr-tb;text-anchor:start;baseline-shift:baseline;color:#000000;fill:url(#linearGradient3056);fill-opacity:1;fill-rule:nonzero;stroke:none;stroke-width:2;marker:none;visibility:visible;display:inline;overflow:visible;enable-background:accumulate;font-family:Sans;-inkscape-font-specification:Sans" />
    <path
       style="font-size:medium;font-style:normal;font-variant:normal;font-weight:normal;font-stretch:normal;text-indent:0;text-align:start;text-decoration:none;line-height:normal;letter-spacing:normal;word-spacing:normal;text-transform:none;direction:ltr;block-progression:tb;writing-mode:lr-tb;text-anchor:start;baseline-shift:baseline;color:#000000;fill:url(#linearGradient3060);fill-opacity:1;fill-rule:nonzero;stroke:none;stroke-width:2;marker:none;visibility:visible;display:inline;overflow:visible;enable-background:accumulate;font-family:Sans;-inkscape-font-specification:Sans"
       d="m 2.543742,34.071627 a 0.65024388,1.0472928 0 0 0 -0.5079529,1.047187 l 0,5.824984 a 0.65024388,1.0472928 0 0 0 0.6501789,1.047188 l 0.690815,0 a 0.65024388,1.0472928 0 0 0 0.650179,-1.047188 l 0,-5.824984 A 0.65024388,1.0472928 0 0 0 3.376783,34.071627 l -0.690815,0 a 0.65024388,1.0472928 0 0 0 -0.142226,0 z"
       id="path3058"
       inkscape:connector-curvature="0" />
    <path
       inkscape:connector-curvature="0"
       id="path3092"
       d="M 10.094822,34.514025 A 1.0708892,0.6619058 0 0 0 9.0240399,33.996962 l -5.9562251,0 a 1.0708892,0.6619058 0 0 0 -1.0707827,0.66184 l 0,0.703204 a 1.0708892,0.6619058 0 0 0 1.0707827,0.66184 l 5.9562251,0 a 1.0708892,0.6619058 0 0 0 1.0707821,-0.66184 l 0,-0.703204 a 1.0708892,0.6619058 0 0 0 0,-0.144777 z"
       style="font-size:medium;font-style:normal;font-variant:normal;font-weight:normal;font-stretch:normal;text-indent:0;text-align:start;text-decoration:none;line-height:normal;letter-spacing:normal;word-spacing:normal;text-transform:none;direction:ltr;block-progression:tb;writing-mode:lr-tb;text-anchor:start;baseline-shift:baseline;color:#000000;fill:url(#linearGradient3094);fill-opacity:1;fill-rule:nonzero;stroke:none;stroke-width:2;marker:none;visibility:visible;display:inline;overflow:visible;enable-background:accumulate;font-family:Sans;-inkscape-font-specification:Sans" />
    <path
       style="font-size:medium;font-style:normal;font-variant:normal;font-weight:normal;font-stretch:normal;text-indent:0;text-align:start;text-decoration:none;line-height:normal;letter-spacing:normal;word-spacing:normal;text-transform:none;direction:ltr;block-progression:tb;writing-mode:lr-tb;text-anchor:start;baseline-shift:baseline;color:#000000;fill:url(#linearGradient3121);fill-opacity:1;fill-rule:nonzero;stroke:none;stroke-width:2;marker:none;visibility:visible;display:inline;overflow:visible;enable-background:accumulate;font-family:Sans;-inkscape-font-specification:Sans"
       d="m 4.3829314,20.222489 a 1.9997788,0.96343031 44.444578 0 0 0.8810091,1.932909 l 7.8994205,7.829519 a 1.9997788,0.96343031 44.444578 0 0 2.110181,0.735099 l 0.733191,-0.714481 A 1.9997788,0.96343031 44.444578 0 0 15.276669,27.925524 L 7.3772476,20.096004 A 1.9997788,0.96343031 44.444578 0 0 5.2670691,19.360906 l -0.7331909,0.714481 a 1.9997788,0.96343031 44.444578 0 0 -0.1510043,0.147045 z"
       id="path3115"
       inkscape:connector-curvature="0" />
    <path
       inkscape:connector-curvature="0"
       id="path3117"
       d="m 2.7092596,16.822476 a 0.95345249,1.1888712 0 0 0 -0.7448113,1.188751 l 0,6.612435 a 0.95345249,1.1888712 0 0 0 0.9533573,1.188753 l 1.0129419,0 a 0.95345249,1.1888712 0 0 0 0.9533573,-1.188753 l 0,-6.612435 A 0.95345249,1.1888712 0 0 0 3.9307475,16.822476 l -1.0129419,0 a 0.95345249,1.1888712 0 0 0 -0.208546,0 z"
       style="font-size:medium;font-style:normal;font-variant:normal;font-weight:normal;font-stretch:normal;text-indent:0;text-align:start;text-decoration:none;line-height:normal;letter-spacing:normal;word-spacing:normal;text-transform:none;direction:ltr;block-progression:tb;writing-mode:lr-tb;text-anchor:start;baseline-shift:baseline;color:#000000;fill:url(#linearGradient3123);fill-opacity:1;fill-rule:nonzero;stroke:none;stroke-width:2;marker:none;visibility:visible;display:inline;overflow:visible;enable-background:accumulate;font-family:Sans;-inkscape-font-specification:Sans" />
    <path
       style="font-size:medium;font-style:normal;font-variant:normal;font-weight:normal;font-stretch:normal;text-indent:0;text-align:start;text-decoration:none;line-height:normal;letter-spacing:normal;word-spacing:normal;text-transform:none;direction:ltr;block-progression:tb;writing-mode:lr-tb;text-anchor:start;baseline-shift:baseline;color:#000000;fill:url(#linearGradient3125);fill-opacity:1;fill-rule:nonzero;stroke:none;stroke-width:2;marker:none;visibility:visible;display:inline;overflow:visible;enable-background:accumulate;font-family:Sans;-inkscape-font-specification:Sans"
       d="M 10.915542,17.563287 A 1.1888712,0.95345249 0 0 0 9.7267906,16.818475 l -6.6124341,0 a 1.1888712,0.95345249 0 0 0 -1.1887529,0.953358 l 0,1.012941 a 1.1888712,0.95345249 0 0 0 1.1887529,0.953358 l 6.6124341,0 a 1.1888712,0.95345249 0 0 0 1.1887514,-0.953358 l 0,-1.012941 a 1.1888712,0.95345249 0 0 0 0,-0.208546 z"
       id="path3119"
       inkscape:connector-curvature="0" />
  </g>
</svg>
