<?xml version="1.0" encoding="UTF-8" standalone="no"?>
<!-- Created with Inkscape (http://www.inkscape.org/) -->

<svg
   xmlns:dc="http://purl.org/dc/elements/1.1/"
   xmlns:cc="http://creativecommons.org/ns#"
   xmlns:rdf="http://www.w3.org/1999/02/22-rdf-syntax-ns#"
   xmlns:svg="http://www.w3.org/2000/svg"
   xmlns="http://www.w3.org/2000/svg"
   xmlns:xlink="http://www.w3.org/1999/xlink"
   xmlns:sodipodi="http://sodipodi.sourceforge.net/DTD/sodipodi-0.dtd"
   xmlns:inkscape="http://www.inkscape.org/namespaces/inkscape"
   width="16"
   height="16"
   id="svg2985"
   version="1.1"
   inkscape:version="0.48.4 r9939"
   sodipodi:docname="toolbar_unddo.svg">
  <defs
     id="defs2987">
    <linearGradient
       id="linearGradient4619">
      <stop
         style="stop-color:#c3c3c3;stop-opacity:1;"
         offset="0"
         id="stop4621" />
      <stop
         style="stop-color:#ffffff;stop-opacity:1;"
         offset="1"
         id="stop4623" />
    </linearGradient>
    <linearGradient
       id="linearGradient4592">
      <stop
         style="stop-color:#c3c3c3;stop-opacity:1;"
         offset="0"
         id="stop4594" />
      <stop
         style="stop-color:#fafafa;stop-opacity:0.98039216;"
         offset="1"
         id="stop4596" />
    </linearGradient>
    <linearGradient
       inkscape:collect="always"
       xlink:href="#linearGradient4592"
       id="linearGradient4598"
       x1="45"
       y1="48"
       x2="2"
       y2="-3"
       gradientUnits="userSpaceOnUse"
       gradientTransform="translate(10.909648,55.154329)" />
    <linearGradient
       inkscape:collect="always"
       xlink:href="#linearGradient4619"
       id="linearGradient4625"
       x1="29"
       y1="43"
       x2="29"
       y2="35"
       gradientUnits="userSpaceOnUse"
       gradientTransform="matrix(0.9869024,0,0,0.88776083,14.858206,-1.0006961)" />
    <linearGradient
       inkscape:collect="always"
       xlink:href="#linearGradient4619"
       id="linearGradient4668"
       gradientUnits="userSpaceOnUse"
       x1="22"
       y1="38"
       x2="22"
       y2="26"
       gradientTransform="matrix(1,0,0,1.4537913,18.3876,-22.652505)" />
    <linearGradient
       inkscape:collect="always"
       xlink:href="#linearGradient4619"
       id="linearGradient4672"
       gradientUnits="userSpaceOnUse"
       gradientTransform="matrix(1,0,0,0.79979796,22.377703,2.0874223)"
       x1="22"
       y1="38"
       x2="22"
       y2="26" />
    <linearGradient
       inkscape:collect="always"
       xlink:href="#linearGradient4619"
       id="linearGradient4676"
       gradientUnits="userSpaceOnUse"
       gradientTransform="matrix(1.0164907,0,0,0.3860471,26.03748,17.720659)"
       x1="22"
       y1="38"
       x2="22"
       y2="26" />
    <linearGradient
       inkscape:collect="always"
       xlink:href="#linearGradient4619"
       id="linearGradient4680"
       gradientUnits="userSpaceOnUse"
       gradientTransform="matrix(1,0,0,1.1601616,30.256893,-11.572613)"
       x1="22"
       y1="38"
       x2="22"
       y2="26" />
    <linearGradient
       inkscape:collect="always"
       xlink:href="#linearGradient4619"
       id="linearGradient4700"
       gradientUnits="userSpaceOnUse"
       x1="11"
       y1="12"
       x2="11"
       y2="6"
       gradientTransform="translate(15.508666,0.29673785)" />
    <linearGradient
       inkscape:collect="always"
       xlink:href="#linearGradient4619"
       id="linearGradient4704"
       gradientUnits="userSpaceOnUse"
       gradientTransform="translate(15.508666,4.2449983)"
       x1="11"
       y1="12"
       x2="11"
       y2="6" />
    <linearGradient
       inkscape:collect="always"
       xlink:href="#linearGradient4619"
       id="linearGradient4708"
       gradientUnits="userSpaceOnUse"
       gradientTransform="translate(-0.90913729,12.020815)"
       x1="11"
       y1="12"
       x2="11"
       y2="6" />
    <linearGradient
       inkscape:collect="always"
       xlink:href="#linearGradient4619"
       id="linearGradient4712"
       gradientUnits="userSpaceOnUse"
       x1="11"
       y1="12"
       x2="11"
       y2="6"
       gradientTransform="matrix(4.6365492,0,0,0.66328254,-16.517836,-0.93725566)" />
    <linearGradient
       inkscape:collect="always"
       xlink:href="#linearGradient4619"
       id="linearGradient4716"
       gradientUnits="userSpaceOnUse"
       gradientTransform="matrix(4.6702208,0,0,0.66328257,-16.95234,3.0023381)"
       x1="11"
       y1="12"
       x2="11"
       y2="6" />
    <linearGradient
       inkscape:collect="always"
       xlink:href="#linearGradient4619"
       id="linearGradient4720"
       gradientUnits="userSpaceOnUse"
       gradientTransform="matrix(4.6702208,0,0,0.71090166,-16.851325,6.6321668)"
       x1="11"
       y1="12"
       x2="11"
       y2="6" />
    <linearGradient
       inkscape:collect="always"
       xlink:href="#linearGradient4619"
       id="linearGradient4724"
       gradientUnits="userSpaceOnUse"
       gradientTransform="matrix(4.3671751,0,0,0.36023659,-29.207084,18.152322)"
       x1="11"
       y1="12"
       x2="11"
       y2="6" />
    <linearGradient
       inkscape:collect="always"
       xlink:href="#linearGradient4619"
       id="linearGradient4726"
       gradientUnits="userSpaceOnUse"
       x1="11"
       y1="12"
       x2="11"
       y2="6"
       gradientTransform="translate(15.508666,-3.5505077)" />
    <linearGradient
       inkscape:collect="always"
       xlink:href="#linearGradient4619"
       id="linearGradient4759"
       x1="-12"
       y1="130"
       x2="-53"
       y2="80"
       gradientUnits="userSpaceOnUse"
       gradientTransform="matrix(0.99471384,0,0,1,69.141448,-85.657091)" />
    <linearGradient
       inkscape:collect="always"
       xlink:href="#linearGradient4619"
       id="linearGradient4765"
       gradientUnits="userSpaceOnUse"
       gradientTransform="translate(15.437237,8.3570368)"
       x1="11"
       y1="12"
       x2="11"
       y2="6" />
    <linearGradient
       inkscape:collect="always"
       xlink:href="#linearGradient4619"
       id="linearGradient4767"
       gradientUnits="userSpaceOnUse"
       gradientTransform="matrix(4.6365491,0,0,0.7347112,-16.517838,10.410751)"
       x1="11"
       y1="12"
       x2="11"
       y2="6" />
    <linearGradient
       inkscape:collect="always"
       xlink:href="#linearGradient4619"
       id="linearGradient3048"
       gradientUnits="userSpaceOnUse"
       gradientTransform="matrix(0.62685746,0,0,1,-8.55667,-29.093836)"
       x1="22"
       y1="38"
       x2="22"
       y2="26" />
    <linearGradient
       inkscape:collect="always"
       xlink:href="#linearGradient4619"
       id="linearGradient3849"
       x1="6.7053576"
       y1="2.4417202"
       x2="16.750076"
       y2="16.584578"
       gradientUnits="userSpaceOnUse"
       gradientTransform="matrix(1.0646916,0,0,1.0646916,5.7075434,16.103804)" />
    <linearGradient
       inkscape:collect="always"
       xlink:href="#linearGradient4619"
       id="linearGradient3857"
       x1="8.1339283"
       y1="39.205357"
       x2="9.6383924"
       y2="41.88393"
       gradientUnits="userSpaceOnUse"
       gradientTransform="matrix(1.2897384,0,0,1.2897384,3.7451135,-27.058853)" />
    <linearGradient
       inkscape:collect="always"
       xlink:href="#linearGradient4619"
       id="linearGradient3907"
       x1="10.138392"
       y1="3.9216595"
       x2="16.049644"
       y2="11.671659"
       gradientUnits="userSpaceOnUse" />
    <linearGradient
       inkscape:collect="always"
       xlink:href="#linearGradient4619"
       id="linearGradient3942"
       gradientUnits="userSpaceOnUse"
       x1="10.138392"
       y1="3.9216595"
       x2="16.049644"
       y2="11.671659"
       gradientTransform="matrix(-1,0,0,1,15.621307,32.607143)" />
  </defs>
  <sodipodi:namedview
     id="base"
     pagecolor="#ffffff"
     bordercolor="#666666"
     borderopacity="1.0"
     inkscape:pageopacity="0.0"
     inkscape:pageshadow="2"
     inkscape:zoom="28"
     inkscape:cx="7.2712593"
     inkscape:cy="12.928118"
     inkscape:current-layer="layer1"
     showgrid="true"
     inkscape:grid-bbox="true"
     inkscape:document-units="px"
     inkscape:window-width="1866"
     inkscape:window-height="1129"
     inkscape:window-x="-2"
     inkscape:window-y="-3"
     inkscape:window-maximized="1"
     inkscape:snap-global="false">
    <inkscape:grid
       type="xygrid"
       id="grid3012"
       empspacing="5"
       visible="true"
       enabled="true"
       snapvisiblegridlinesonly="true" />
  </sodipodi:namedview>
  <metadata
     id="metadata2990">
    <rdf:RDF>
      <cc:Work
         rdf:about="">
        <dc:format>image/svg+xml</dc:format>
        <dc:type
           rdf:resource="http://purl.org/dc/dcmitype/StillImage" />
        <dc:title />
      </cc:Work>
    </rdf:RDF>
  </metadata>
  <g
     id="layer1"
     inkscape:label="Layer 1"
     inkscape:groupmode="layer"
     transform="translate(0,-32)">
    <path
       style="font-size:medium;font-style:normal;font-variant:normal;font-weight:normal;font-stretch:normal;text-indent:0;text-align:start;text-decoration:none;line-height:normal;letter-spacing:normal;word-spacing:normal;text-transform:none;direction:ltr;block-progression:tb;writing-mode:lr-tb;text-anchor:start;baseline-shift:baseline;color:#000000;fill:#000000;fill-opacity:1;fill-rule:evenodd;stroke:none;stroke-width:5;marker:none;visibility:visible;display:inline;overflow:visible;enable-background:accumulate;font-family:Sans;-inkscape-font-specification:Sans"
       d="m -55.247193,-7.9794128 c -1.223508,0.123064 -2.25605,1.2703327 -2.25,2.5 l 0,36.9687498 c 1.31e-4,1.308961 1.191039,2.499869 2.5,2.5 l 32.9375,0 c 1.308961,-1.31e-4 2.499869,-1.191039 2.5,-2.5 l 0,-36.9687498 c -1.31e-4,-1.3089612 -1.191039,-2.4998691 -2.5,-2.5 l -32.9375,0 c -0.08326,-0.00417 -0.166736,-0.00417 -0.25,0 z m -0.28125,1.96875 34,0 0,37.9999998 -34,0 z"
       inkscape:connector-curvature="0"
       sodipodi:nodetypes="ccccccccccccccc"
       id="path32" />
    <path
       style="font-size:medium;font-style:normal;font-variant:normal;font-weight:normal;font-stretch:normal;text-indent:0;text-align:start;text-decoration:none;line-height:normal;letter-spacing:normal;word-spacing:normal;text-transform:none;direction:ltr;block-progression:tb;writing-mode:lr-tb;text-anchor:start;baseline-shift:baseline;color:#000000;fill:url(#linearGradient4598);fill-opacity:1;fill-rule:nonzero;stroke:none;stroke-width:5.00000048;marker:none;visibility:visible;display:inline;overflow:visible;enable-background:accumulate;font-family:Sans;-inkscape-font-specification:Sans"
       d="m 18.472148,58.248079 c -1.308962,1.31e-4 -2.499869,1.191039 -2.5,2.5 l 0,37.03125 c 1.31e-4,1.308961 1.191038,2.499871 2.5,2.500001 l 33.21875,0 c 1.308961,-1.3e-4 2.499869,-1.19104 2.5,-2.500001 l 0,-37.03125 c -1.31e-4,-1.308961 -1.191039,-2.499869 -2.5,-2.5 l -33.21875,0 z m 0.8125,2 31.1875,0 c 0.785377,7.8e-5 1.499921,0.714623 1.5,1.5 l 0,35.21875 c -7.9e-5,0.785377 -0.714623,1.499921 -1.5,1.5 l -31.1875,0 c -0.785376,-7.9e-5 -1.499921,-0.714623 -1.5,-1.5 l 0,-35.21875 c 7.9e-5,-0.785377 0.714624,-1.499922 1.5,-1.5 z"
       id="rect4554"
       inkscape:connector-curvature="0" />
    <path
       sodipodi:nodetypes="ccccccccc"
       inkscape:connector-curvature="0"
       id="path4586"
       d="m -49.410104,36.93386 c -1.308961,1.31e-4 -2.499869,1.191039 -2.5,2.5 l 0,37.03125 c 1.31e-4,1.308961 1.191039,2.499869 2.5,2.5 l 33.21875,0 c 1.308961,-1.31e-4 2.499869,-1.191039 2.5,-2.5 l 0,-37.03125 c -1.31e-4,-1.308961 -1.191039,-2.499869 -2.5,-2.5 z"
       style="font-size:medium;font-style:normal;font-variant:normal;font-weight:normal;font-stretch:normal;text-indent:0;text-align:start;text-decoration:none;line-height:normal;letter-spacing:normal;word-spacing:normal;text-transform:none;direction:ltr;block-progression:tb;writing-mode:lr-tb;text-anchor:start;baseline-shift:baseline;color:#000000;fill:#000000;fill-opacity:1;fill-rule:nonzero;stroke:none;stroke-width:5.00000048;marker:none;visibility:visible;display:inline;overflow:visible;enable-background:accumulate;font-family:Sans;-inkscape-font-specification:Sans" />
    <path
       sodipodi:nodetypes="ccccccccc"
       inkscape:connector-curvature="0"
       id="path4588"
       d="m -47.582343,40.059559 c -0.738965,7.4e-5 -1.411284,0.67118 -1.411358,1.408814 l 0,33.077771 c 7.4e-5,0.737634 0.672393,1.408739 1.411358,1.408814 l 29.344479,0 c 0.738965,-7.5e-5 1.411284,-0.67118 1.411358,-1.408814 l 0,-33.077771 c -7.4e-5,-0.737634 -0.672393,-1.40874 -1.411358,-1.408814 z"
       style="font-size:medium;font-style:normal;font-variant:normal;font-weight:normal;font-stretch:normal;text-indent:0;text-align:start;text-decoration:none;line-height:normal;letter-spacing:normal;word-spacing:normal;text-transform:none;direction:ltr;block-progression:tb;writing-mode:lr-tb;text-anchor:start;baseline-shift:baseline;color:#000000;fill:#00c000;fill-opacity:1;fill-rule:nonzero;stroke:none;stroke-width:3;marker:none;visibility:visible;display:inline;overflow:visible;enable-background:accumulate;font-family:Sans;-inkscape-font-specification:Sans" />
    <path
       style="font-size:medium;font-style:normal;font-variant:normal;font-weight:normal;font-stretch:normal;text-indent:0;text-align:start;text-decoration:none;line-height:normal;letter-spacing:normal;word-spacing:normal;text-transform:none;direction:ltr;block-progression:tb;writing-mode:lr-tb;text-anchor:start;baseline-shift:baseline;color:#000000;fill:url(#linearGradient4625);fill-opacity:1;fill-rule:nonzero;stroke:none;stroke-width:1;marker:none;visibility:visible;display:inline;overflow:visible;enable-background:accumulate;font-family:Sans;-inkscape-font-specification:Sans"
       d="m 34.349528,33.400036 0,0.44388 0,1.109701 0,0.443881 0.493451,0 18.04181,0 0.493451,0 0,-0.443881 0,-1.109701 0,-0.44388 -0.493451,0 -18.04181,0 z"
       id="rect4603"
       inkscape:connector-curvature="0"
       sodipodi:nodetypes="ccccccccccccc" />
    <path
       inkscape:connector-curvature="0"
       id="path4666"
       d="m 39.2001,21.460975 a 1.0001,1.4539366 0 0 0 -0.78125,1.453791 l 0,8.086714 a 1.0001,1.4539366 0 0 0 1,1.453791 l 1.0625,0 a 1.0001,1.4539366 0 0 0 1,-1.453791 l 0,-8.086714 a 1.0001,1.4539366 0 0 0 -1,-1.453791 l -1.0625,0 a 1.0001,1.4539366 0 0 0 -0.21875,0 z"
       style="font-size:medium;font-style:normal;font-variant:normal;font-weight:normal;font-stretch:normal;text-indent:0;text-align:start;text-decoration:none;line-height:normal;letter-spacing:normal;word-spacing:normal;text-transform:none;direction:ltr;block-progression:tb;writing-mode:lr-tb;text-anchor:start;baseline-shift:baseline;color:#000000;fill:url(#linearGradient4668);fill-opacity:1;fill-rule:nonzero;stroke:none;stroke-width:2;marker:none;visibility:visible;display:inline;overflow:visible;enable-background:accumulate;font-family:Sans;-inkscape-font-specification:Sans" />
    <path
       style="font-size:medium;font-style:normal;font-variant:normal;font-weight:normal;font-stretch:normal;text-indent:0;text-align:start;text-decoration:none;line-height:normal;letter-spacing:normal;word-spacing:normal;text-transform:none;direction:ltr;block-progression:tb;writing-mode:lr-tb;text-anchor:start;baseline-shift:baseline;color:#000000;fill:url(#linearGradient4672);fill-opacity:1;fill-rule:nonzero;stroke:none;stroke-width:2;marker:none;visibility:visible;display:inline;overflow:visible;enable-background:accumulate;font-family:Sans;-inkscape-font-specification:Sans"
       d="m 43.190203,26.356292 a 1.0001,0.7998779 0 0 0 -0.78125,0.799798 l 0,4.448876 a 1.0001,0.7998779 0 0 0 1,0.799798 l 1.0625,0 a 1.0001,0.7998779 0 0 0 1,-0.799798 l 0,-4.448876 a 1.0001,0.7998779 0 0 0 -1,-0.799798 l -1.0625,0 a 1.0001,0.7998779 0 0 0 -0.21875,0 z"
       id="path4670"
       inkscape:connector-curvature="0" />
    <path
       inkscape:connector-curvature="0"
       id="path4674"
       d="m 47.193195,29.434775 a 1.0165924,0.38608568 0 0 0 -0.794134,0.386047 l 0,2.147387 a 1.0165924,0.38608568 0 0 0 1.01649,0.386047 l 1.080022,0 a 1.0165924,0.38608568 0 0 0 1.016491,-0.386047 l 0,-2.147387 a 1.0165924,0.38608568 0 0 0 -1.016491,-0.386047 l -1.080022,0 a 1.0165924,0.38608568 0 0 0 -0.222356,0 z"
       style="font-size:medium;font-style:normal;font-variant:normal;font-weight:normal;font-stretch:normal;text-indent:0;text-align:start;text-decoration:none;line-height:normal;letter-spacing:normal;word-spacing:normal;text-transform:none;direction:ltr;block-progression:tb;writing-mode:lr-tb;text-anchor:start;baseline-shift:baseline;color:#000000;fill:url(#linearGradient4676);fill-opacity:1;fill-rule:nonzero;stroke:none;stroke-width:2;marker:none;visibility:visible;display:inline;overflow:visible;enable-background:accumulate;font-family:Sans;-inkscape-font-specification:Sans" />
    <path
       inkscape:connector-curvature="0"
       id="path4678"
       d="m 51.069393,23.631042 a 1.0001,1.1602776 0 0 0 -0.78125,1.160162 l 0,6.453398 a 1.0001,1.1602776 0 0 0 1,1.160162 l 1.0625,0 a 1.0001,1.1602776 0 0 0 1,-1.160162 l 0,-6.453398 a 1.0001,1.1602776 0 0 0 -1,-1.160162 l -1.0625,0 a 1.0001,1.1602776 0 0 0 -0.21875,0 z"
       style="font-size:medium;font-style:normal;font-variant:normal;font-weight:normal;font-stretch:normal;text-indent:0;text-align:start;text-decoration:none;line-height:normal;letter-spacing:normal;word-spacing:normal;text-transform:none;direction:ltr;block-progression:tb;writing-mode:lr-tb;text-anchor:start;baseline-shift:baseline;color:#000000;fill:url(#linearGradient4680);fill-opacity:1;fill-rule:nonzero;stroke:none;stroke-width:2;marker:none;visibility:visible;display:inline;overflow:visible;enable-background:accumulate;font-family:Sans;-inkscape-font-specification:Sans" />
    <path
       sodipodi:nodetypes="ccccccccccccc"
       inkscape:connector-curvature="0"
       id="path4696"
       d="m 25.412727,4.4545686 0,0.5 0,1.9999992 0,0.5 0.5,0 1.999999,0 0.5,0 0,-0.5 0,-1.9999992 0,-0.5 -0.5,0 -1.999999,0 z"
       style="font-size:medium;font-style:normal;font-variant:normal;font-weight:normal;font-stretch:normal;text-indent:0;text-align:start;text-decoration:none;line-height:normal;letter-spacing:normal;word-spacing:normal;text-transform:none;direction:ltr;block-progression:tb;writing-mode:lr-tb;text-anchor:start;baseline-shift:baseline;color:#000000;fill:url(#linearGradient4726);fill-opacity:1;fill-rule:nonzero;stroke:none;stroke-width:1;marker:none;visibility:visible;display:inline;overflow:visible;enable-background:accumulate;font-family:Sans;-inkscape-font-specification:Sans" />
    <path
       style="font-size:medium;font-style:normal;font-variant:normal;font-weight:normal;font-stretch:normal;text-indent:0;text-align:start;text-decoration:none;line-height:normal;letter-spacing:normal;word-spacing:normal;text-transform:none;direction:ltr;block-progression:tb;writing-mode:lr-tb;text-anchor:start;baseline-shift:baseline;color:#000000;fill:url(#linearGradient4700);fill-opacity:1;fill-rule:nonzero;stroke:none;stroke-width:1;marker:none;visibility:visible;display:inline;overflow:visible;enable-background:accumulate;font-family:Sans;-inkscape-font-specification:Sans"
       d="m 25.412727,8.3018128 0,0.5 0,2.0000002 0,0.5 0.5,0 1.999999,0 0.5,0 0,-0.5 0,-2.0000002 0,-0.5 -0.5,0 -1.999999,0 z"
       id="path4698"
       inkscape:connector-curvature="0"
       sodipodi:nodetypes="ccccccccccccc" />
    <path
       sodipodi:nodetypes="ccccccccccccc"
       inkscape:connector-curvature="0"
       id="path4702"
       d="m 25.412727,12.250074 0,0.5 0,2 0,0.5 0.5,0 1.999999,0 0.5,0 0,-0.5 0,-2 0,-0.5 -0.5,0 -1.999999,0 z"
       style="font-size:medium;font-style:normal;font-variant:normal;font-weight:normal;font-stretch:normal;text-indent:0;text-align:start;text-decoration:none;line-height:normal;letter-spacing:normal;word-spacing:normal;text-transform:none;direction:ltr;block-progression:tb;writing-mode:lr-tb;text-anchor:start;baseline-shift:baseline;color:#000000;fill:url(#linearGradient4704);fill-opacity:1;fill-rule:nonzero;stroke:none;stroke-width:1;marker:none;visibility:visible;display:inline;overflow:visible;enable-background:accumulate;font-family:Sans;-inkscape-font-specification:Sans" />
    <path
       style="font-size:medium;font-style:normal;font-variant:normal;font-weight:normal;font-stretch:normal;text-indent:0;text-align:start;text-decoration:none;line-height:normal;letter-spacing:normal;word-spacing:normal;text-transform:none;direction:ltr;block-progression:tb;writing-mode:lr-tb;text-anchor:start;baseline-shift:baseline;color:#000000;fill:url(#linearGradient4712);fill-opacity:1;fill-rule:nonzero;stroke:none;stroke-width:1;marker:none;visibility:visible;display:inline;overflow:visible;enable-background:accumulate;font-family:Sans;-inkscape-font-specification:Sans"
       d="m 29.402829,4.3723717 0,0.3316413 0,1.3265648 0,0.33164 2.318275,0 9.273097,0 2.318276,0 0,-0.33164 0,-1.3265648 0,-0.3316413 -2.318276,0 -9.273097,0 z"
       id="path4710"
       inkscape:connector-curvature="0"
       sodipodi:nodetypes="ccccccccccccc" />
    <path
       sodipodi:nodetypes="ccccccccccccc"
       inkscape:connector-curvature="0"
       id="path4714"
       d="m 29.301813,8.3119668 0,0.331641 0,1.326564 0,0.3316412 2.33511,0 9.340441,0 2.335112,0 0,-0.3316412 0,-1.326564 0,-0.331641 -2.335112,0 -9.340441,0 z"
       style="font-size:medium;font-style:normal;font-variant:normal;font-weight:normal;font-stretch:normal;text-indent:0;text-align:start;text-decoration:none;line-height:normal;letter-spacing:normal;word-spacing:normal;text-transform:none;direction:ltr;block-progression:tb;writing-mode:lr-tb;text-anchor:start;baseline-shift:baseline;color:#000000;fill:url(#linearGradient4716);fill-opacity:1;fill-rule:nonzero;stroke:none;stroke-width:1;marker:none;visibility:visible;display:inline;overflow:visible;enable-background:accumulate;font-family:Sans;-inkscape-font-specification:Sans" />
    <path
       style="font-size:medium;font-style:normal;font-variant:normal;font-weight:normal;font-stretch:normal;text-indent:0;text-align:start;text-decoration:none;line-height:normal;letter-spacing:normal;word-spacing:normal;text-transform:none;direction:ltr;block-progression:tb;writing-mode:lr-tb;text-anchor:start;baseline-shift:baseline;color:#000000;fill:url(#linearGradient4720);fill-opacity:1;fill-rule:nonzero;stroke:none;stroke-width:1;marker:none;visibility:visible;display:inline;overflow:visible;enable-background:accumulate;font-family:Sans;-inkscape-font-specification:Sans"
       d="m 29.402828,12.322991 0,0.355451 0,1.421803 0,0.355449 2.33511,0 9.340441,0 2.335112,0 0,-0.355449 0,-1.421803 0,-0.355451 -2.335112,0 -9.340441,0 z"
       id="path4718"
       inkscape:connector-curvature="0"
       sodipodi:nodetypes="ccccccccccccc" />
    <path
       style="font-size:medium;font-style:normal;font-variant:normal;font-weight:normal;font-stretch:normal;text-indent:0;text-align:start;text-decoration:none;line-height:normal;letter-spacing:normal;word-spacing:normal;text-transform:none;direction:ltr;block-progression:tb;writing-mode:lr-tb;text-anchor:start;baseline-shift:baseline;color:#000000;fill:url(#linearGradient4759);fill-opacity:1;fill-rule:nonzero;stroke:none;stroke-width:5.00000048;marker:none;visibility:visible;display:inline;overflow:visible;enable-background:accumulate;font-family:Sans;-inkscape-font-specification:Sans"
       d="m 22.918339,-1.6570914 c -1.302042,1.31e-4 -2.486655,1.19103905 -2.486785,2.50000005 l 0,37.03125035 c 1.3e-4,1.30896 1.184743,2.49987 2.486785,2.5 l 33.043151,0 c 1.302042,-1.3e-4 2.486654,-1.19104 2.486784,-2.5 l 0,-37.03125035 c -1.3e-4,-1.308961 -1.184742,-2.49986905 -2.486784,-2.50000005 l -33.043151,0 z m 1.802918,3.125 29.188636,0 c 0.735058,7.4e-5 1.398742,0.668616 1.398816,1.40625 l 0,33.0937504 c -7.4e-5,0.73764 -0.663758,1.40617 -1.398816,1.40625 l -29.188636,0 c -0.735058,-8e-5 -1.398742,-0.66861 -1.398816,-1.40625 l 0,-33.0937504 c 7.4e-5,-0.737634 0.663758,-1.406176 1.398816,-1.40625 z"
       id="path4748"
       inkscape:connector-curvature="0" />
    <path
       style="font-size:medium;font-style:normal;font-variant:normal;font-weight:normal;font-stretch:normal;text-indent:0;text-align:start;text-decoration:none;line-height:normal;letter-spacing:normal;word-spacing:normal;text-transform:none;direction:ltr;block-progression:tb;writing-mode:lr-tb;text-anchor:start;baseline-shift:baseline;color:#000000;fill:url(#linearGradient4765);fill-opacity:1;fill-rule:nonzero;stroke:none;stroke-width:1;marker:none;visibility:visible;display:inline;overflow:visible;enable-background:accumulate;font-family:Sans;-inkscape-font-specification:Sans"
       d="m 25.341298,16.362112 0,0.5 0,2 0,0.5 0.5,0 1.999999,0 0.5,0 0,-0.5 0,-2 0,-0.5 -0.5,0 -1.999999,0 z"
       id="path4761"
       inkscape:connector-curvature="0"
       sodipodi:nodetypes="ccccccccccccc" />
    <path
       sodipodi:nodetypes="ccccccccccccc"
       inkscape:connector-curvature="0"
       id="path4763"
       d="m 29.402828,16.292172 0,0.367355 0,1.469423 0,0.367354 2.318274,0 9.273098,0 2.318276,0 0,-0.367354 0,-1.469423 0,-0.367355 -2.318276,0 -9.273098,0 z"
       style="font-size:medium;font-style:normal;font-variant:normal;font-weight:normal;font-stretch:normal;text-indent:0;text-align:start;text-decoration:none;line-height:normal;letter-spacing:normal;word-spacing:normal;text-transform:none;direction:ltr;block-progression:tb;writing-mode:lr-tb;text-anchor:start;baseline-shift:baseline;color:#000000;fill:url(#linearGradient4767);fill-opacity:1;fill-rule:nonzero;stroke:none;stroke-width:1;marker:none;visibility:visible;display:inline;overflow:visible;enable-background:accumulate;font-family:Sans;-inkscape-font-specification:Sans" />
    <path
       style="font-size:medium;font-style:normal;font-variant:normal;font-weight:normal;font-stretch:normal;text-indent:0;text-align:start;text-decoration:none;line-height:normal;letter-spacing:normal;word-spacing:normal;text-transform:none;direction:ltr;block-progression:tb;writing-mode:lr-tb;text-anchor:start;baseline-shift:baseline;color:#000000;fill:url(#linearGradient3849);fill-opacity:1;stroke:none;stroke-width:1.5;marker:none;visibility:visible;display:inline;overflow:visible;enable-background:accumulate;font-family:Sans;-inkscape-font-specification:Sans"
       d="m 14.125262,17.334854 c -0.09921,0.0043 -0.217573,0.0102 -0.299445,0.06654 -0.146918,0.09776 -0.234794,0.289342 -0.232901,0.465802 l 0,0.898334 c -3.026075,0.275115 -5.4232731,2.827368 -5.4232731,5.92235 0,3.277115 2.6785051,5.955619 5.9556191,5.955619 3.277114,0 5.955619,-2.678504 5.955619,-5.955619 a 0.7985986,0.7985986 0 1 0 -1.597038,0 c 0,2.414012 -1.944569,4.358582 -4.358581,4.358582 -2.414011,0 -4.3585816,-1.94457 -4.3585816,-4.358582 0,-2.228115 1.6729276,-4.023683 3.8262356,-4.292038 l 0.03327,0.865062 c 0.0034,0.373211 0.478686,0.658171 0.798519,0.465803 l 1.463951,-0.865062 1.46395,-0.865062 c 0.323178,-0.186698 0.324884,-0.747893 0,-0.931606 l -1.463951,-0.83179 -1.497222,-0.83179 c -0.08638,-0.04915 -0.166961,-0.07078 -0.266173,-0.06654 z"
       id="path3039"
       inkscape:connector-curvature="0" />
    <path
       style="fill:none;stroke:#3861a5;stroke-width:1.5;stroke-linecap:round;stroke-linejoin:round;stroke-miterlimit:4;stroke-opacity:1;stroke-dashoffset:0"
       d="m 31.892857,42.821429 c 11.468437,-3.661343 12.025516,0.884115 4.821428,4.821429 m 0,0 c 0,2.662801 -2.158627,4.821428 -4.821428,4.821428 -2.662801,0 -4.821428,-2.158627 -4.821428,-4.821428 0,-2.662802 2.158627,-4.821429 4.821428,-4.821429"
       inkscape:connector-curvature="0"
       sodipodi:nodetypes="cccssc" />
    <path
       sodipodi:nodetypes="cssc"
       inkscape:connector-curvature="0"
       id="path3827"
       d="m 6.4642867,24.875001 c 0,2.672664 -2.166622,4.839286 -4.8392862,4.839286 -2.6726637,0 -4.8392856,-2.166622 -4.8392856,-4.839286 0,-2.672664 2.1666219,-4.839286 4.8392856,-4.839286"
       style="fill:none;stroke:#3861a5;stroke-width:1.5;stroke-linecap:round;stroke-linejoin:round;stroke-miterlimit:4;stroke-opacity:1;stroke-dashoffset:0" />
    <path
       style="font-size:medium;font-style:normal;font-variant:normal;font-weight:normal;font-stretch:normal;text-indent:0;text-align:start;text-decoration:none;line-height:normal;letter-spacing:normal;word-spacing:normal;text-transform:none;direction:ltr;block-progression:tb;writing-mode:lr-tb;text-anchor:start;baseline-shift:baseline;color:#000000;fill:url(#linearGradient3942);fill-opacity:1;stroke:none;stroke-width:1;marker:none;visibility:visible;display:inline;overflow:visible;enable-background:accumulate;font-family:Sans;-inkscape-font-specification:Sans"
       d="m 7.0275575,32.950893 c 0.1098371,0.0051 0.2218606,0.05768 0.3125,0.125 0.1626513,0.116824 0.2833455,0.320378 0.28125,0.53125 l -0.03125,1.0625 c 0.010416,-1.79e-4 0.020834,-1.79e-4 0.03125,0 3.2872685,0 5.9687495,2.681481 5.9687495,5.96875 0,3.287269 -2.681481,5.96875 -5.9687495,5.96875 -1.400123,0 -2.68593,-0.488494 -3.70146,-1.303052 -0.507765,-0.407279 -0.94796,-0.896075 -1.30109,-1.446084 -0.353131,-0.550009 -0.702348,-1.148979 -0.551416,-1.737603 0.02315,-0.09029 0.202403,-0.192949 0.202403,-0.192949 l 0.429688,-0.117187 c 0,0 0.292397,-0.131452 0.43006,-0.08285 0.469553,0.165767 0.718963,0.749037 0.964347,1.140905 0.245383,0.391867 0.553258,0.739997 0.909987,1.030008 0.7134559,0.580019 1.6223231,0.927562 2.617481,0.927562 2.3144768,0 4.1874995,-1.873023 4.1874995,-4.1875 0,-2.314477 -1.8730228,-4.15625 -4.1874995,-4.15625 -0.010416,1.79e-4 -0.020834,1.79e-4 -0.03125,0 l -0.03125,1.21875 c -0.00381,0.445991 -0.5209163,0.761132 -0.875,0.53125 l -1.625,-1.03125 -1.625,-1.03125 c -0.357786,-0.223106 -0.35966,-0.874212 0,-1.09375 l 1.625,-1.03125 1.65625,-1 c 0.09563,-0.05874 0.2026629,-0.09882 0.3125,-0.09375 z"
       id="path3829"
       inkscape:connector-curvature="0"
       sodipodi:nodetypes="sccccssssaccasssscccccccccs" />
    <path
       style="font-size:medium;font-style:normal;font-variant:normal;font-weight:normal;font-stretch:normal;text-indent:0;text-align:start;text-decoration:none;line-height:normal;letter-spacing:normal;word-spacing:normal;text-transform:none;direction:ltr;block-progression:tb;writing-mode:lr-tb;text-anchor:start;baseline-shift:baseline;color:#000000;fill:url(#linearGradient3857);fill-opacity:1;stroke:none;stroke-width:1.5;marker:none;visibility:visible;display:inline;overflow:visible;enable-background:accumulate;font-family:Sans;-inkscape-font-specification:Sans"
       d="m 14.120599,23.28125 c -0.67261,0 -1.450956,0.473066 -1.450956,1.330043 0,0.856977 0.778346,1.330043 1.450956,1.330043 0.672609,0 1.410651,-0.473066 1.410651,-1.330043 0,-0.856977 -0.738042,-1.330043 -1.410651,-1.330043 z"
       id="path3837"
       inkscape:connector-curvature="0"
       sodipodi:nodetypes="sssss" />
    <path
       style="font-size:medium;font-style:normal;font-variant:normal;font-weight:normal;font-stretch:normal;text-indent:0;text-align:start;text-decoration:none;line-height:normal;letter-spacing:normal;word-spacing:normal;text-transform:none;direction:ltr;block-progression:tb;writing-mode:lr-tb;text-anchor:start;baseline-shift:baseline;color:#000000;fill:#3861a5;fill-opacity:1;stroke:none;stroke-width:1;marker:none;visibility:visible;display:inline;overflow:visible;enable-background:accumulate;font-family:Sans;-inkscape-font-specification:Sans"
       d="m -9.1886404,28.53678 c -0.1626513,0.116824 -0.2649546,0.325628 -0.2628591,0.5365 l 0.016755,2.066288 0.02978,2.011846 c 0.00381,0.445991 0.5390979,0.769231 0.8931816,0.539349 l 1.6182962,-1.029768 1.618296,-1.029768 c 0.357786,-0.223106 0.35496,-0.885175 -0.0047,-1.104713 l -1.61635,-1.002269 -1.6667824,-1.016327 c -0.1912592,-0.117473 -0.4443385,-0.105794 -0.6256173,0.02885 z"
       id="path3896"
       inkscape:connector-curvature="0"
       sodipodi:nodetypes="ccccccccccc" />
    <path
       inkscape:connector-curvature="0"
       id="path3898"
       d="m -9.4597253,30.128148 c -3.2872687,0 -5.9698737,2.682605 -5.9698737,5.969874 0,3.287269 2.682605,5.969874 5.9698737,5.969874 3.2872686,0 5.9698736,-2.682605 5.9698736,-5.969874 a 0.90008997,0.90008997 0 1 0 -1.787769,0 c 0,2.314477 -1.867628,4.182104 -4.1821046,4.182104 -2.3144767,0 -4.1821047,-1.867627 -4.1821047,-4.182104 0,-2.314477 1.867628,-4.15018 4.1821047,-4.15018 a 0.90984709,0.90984709 0 0 0 0,-1.819694 z"
       style="font-size:medium;font-style:normal;font-variant:normal;font-weight:normal;font-stretch:normal;text-indent:0;text-align:start;text-decoration:none;line-height:normal;letter-spacing:normal;word-spacing:normal;text-transform:none;direction:ltr;block-progression:tb;writing-mode:lr-tb;text-anchor:start;baseline-shift:baseline;color:#000000;fill:#3861a5;fill-opacity:1;stroke:none;stroke-width:1.76197183;marker:none;visibility:visible;display:inline;overflow:visible;enable-background:accumulate;font-family:Sans;-inkscape-font-specification:Sans" />
  </g>
</svg>
